<svg xmlns="http://www.w3.org/2000/svg" xmlns:xlink="http://www.w3.org/1999/xlink" viewBox="0 0 130.24 37.82"><defs><style>.cls-1{fill:#fff;}.cls-2{fill:#2b94bd;}.cls-3{fill:#c0cc63;}.cls-4{fill:url(#Gradient_bez_nazwy_15);}.cls-5{fill:url(#Gradient_bez_nazwy_15-2);}</style><linearGradient id="Gradient_bez_nazwy_15" x1="2.43" y1="38.89" x2="25.54" y2="19.92" gradientUnits="userSpaceOnUse"><stop offset="0" stop-color="#ef7a2b"/><stop offset="1" stop-color="#e73231"/></linearGradient><linearGradient id="Gradient_bez_nazwy_15-2" x1="3.14" y1="39.75" x2="26.25" y2="20.79" xlink:href="#Gradient_bez_nazwy_15"/></defs><g id="Warstwa_2" data-name="Warstwa 2"><g id="Warstwa_1-2" data-name="Warstwa 1"><path class="cls-1" d="M56.9,30.49c-7.47,0-13-4.67-13-10.83s5.5-10.42,13-10.42H72.15l-4.71,6.19H56.9c-3.4,0-5.59,1.08-5.59,4.23s2.19,4.73,5.59,4.73H72.15l-4.71,6.1Z"/><path class="cls-1" d="M84.41,24.57v5.92H77V9.24h24.27l-4.73,6.19H84.41v3.39H94l-4.48,5.75Z"/><path class="cls-1" d="M106.08,30.49l4.44-6.1h3.8c1,0,2.22,0,2.89.07a23.6,23.6,0,0,1-1.46-2l-3.56-5.18-9.5,13.21H94l13.59-18.93a5.64,5.64,0,0,1,4.74-2.7,5.48,5.48,0,0,1,4.7,2.7l13.22,18.93Z"/><path class="cls-2" d="M25.51,6.9a45.51,45.51,0,0,0-13,2.56A25.28,25.28,0,0,0,9.82,2.61,1.74,1.74,0,0,1,11.65,0a52.93,52.93,0,0,1,18.45,7L30,7A28.43,28.43,0,0,0,25.51,6.9Z"/><path class="cls-3" d="M12.62,14.6a37.74,37.74,0,0,0-5.88,8.24A23.53,23.53,0,0,0,1.3,20.68a1.73,1.73,0,0,1-.53-3.12,56.81,56.81,0,0,1,10.45-5.68c.57-.24,1.15-.47,1.73-.68a41.18,41.18,0,0,1,6-1.76,29,29,0,0,0-5.53,4.34C13.16,14,12.89,14.31,12.62,14.6Z"/><path class="cls-4" d="M28.12,33a1.57,1.57,0,0,1-.3,0c-2.41.19-4.81.41-7.13.74-4.76.65-9.19,1.74-12.64,3.83a1.74,1.74,0,0,1-2.58-1.83A57.27,57.27,0,0,1,8.79,24.45c.05-.12.1-.23.14-.34A42.64,42.64,0,0,1,13.35,16l.34-.48a25.57,25.57,0,0,1,3.43-3.83,13.08,13.08,0,0,0-2.69,6.12,12.91,12.91,0,0,0,.2,5.09c.1.4.21.8.35,1.19v0A13.1,13.1,0,0,0,28.12,33Z"/><path class="cls-5" d="M33.43,24.74a6.49,6.49,0,0,1-1,1,8,8,0,0,1-3.29,1.69,7.77,7.77,0,0,1-9-4.67,6.49,6.49,0,0,1-.35-1.08,7.66,7.66,0,0,1-.16-2.77.13.13,0,0,1,0-.06,7.37,7.37,0,0,1,.41-1.68,0,0,0,0,0,0,0h0a7.66,7.66,0,0,1,1.47-2.45l0,0a7.89,7.89,0,0,1,4-2.38,7.64,7.64,0,0,1,5,.49,7.75,7.75,0,0,1,4.18,4.62s0,0,0,.06a4.1,4.1,0,0,1,.14.5.24.24,0,0,1,0,.08A7.72,7.72,0,0,1,33.43,24.74Z"/></g></g></svg>