<svg xmlns="http://www.w3.org/2000/svg" xmlns:xlink="http://www.w3.org/1999/xlink" width="364.639" height="435.946" viewBox="0 0 364.639 435.946">
  <defs>
    <clipPath id="clip-path">
      <rect id="Rectangle_61" data-name="Rectangle 61" width="261.993" height="97.157" fill="#fff"/>
    </clipPath>
    <clipPath id="clip-path-2">
      <rect id="Rectangle_71" data-name="Rectangle 71" width="364.639" height="316.973" fill="none"/>
    </clipPath>
  </defs>
  <g id="Group_270" data-name="Group 270" transform="translate(-804 -29.999)">
    <g id="Group_16" data-name="Group 16" transform="translate(854.95 368.788)">
      <g id="Group_261" data-name="Group 261" clip-path="url(#clip-path)">
        <path id="Path_5550" data-name="Path 5550" d="M0,23.146H29.618c-.494,5.278-.98,10.481-1.474,15.764H16.058v11.9H26.549c-.1,5.134-.2,10.183-.3,15.343H16.013V93.007L7.507,94.6q-3.389.63-6.779,1.26a1.028,1.028,0,0,0-.263.137H0V23.146" transform="translate(0 1.165)" fill="#fff"/>
        <path id="Path_5551" data-name="Path 5551" d="M148.141,62.808c.287,7.836.573,15.673.862,23.563H134.591V29.616l5.919-1.2c1.948-.395,3.9-.771,5.843-1.194.6-.129.886-.043,1.141.593q5.146,12.854,10.357,25.683a1.688,1.688,0,0,0,.512.754c-.71-9.248-1.42-18.5-2.133-27.8h14.765c0,1.789-.009,3.539,0,5.288q.18,27.5.378,55c.005.613-.129.834-.786.883q-5.409.416-10.811.939c-.606.057-.838-.149-1.06-.688q-5.062-12.264-10.17-24.506c-.086-.206-.175-.41-.264-.613Z" transform="translate(6.773 1.331)" fill="#fff"/>
        <path id="Path_5552" data-name="Path 5552" d="M103.93,88.35c-1.64.146-3.2.293-4.766.422-3.425.284-6.854.534-10.276.855-.653.061-.827-.175-.984-.721q-2.774-9.585-5.585-19.161a1.239,1.239,0,0,0-.328-.593c-.211,6.08-.422,12.161-.635,18.29H66.249V27.463h.933c5.793,0,11.585.067,17.376-.019a16.018,16.018,0,0,1,13.781,7,23.456,23.456,0,0,1,4.354,16.615A19.471,19.471,0,0,1,98.3,62.11a11.413,11.413,0,0,1-1.632,1.647.983.983,0,0,0-.387,1.29q3.394,10.244,6.738,20.5c.3.9.587,1.8.911,2.8m-22.325-47.3V57.778a12.707,12.707,0,0,0,1.5-.576,5.434,5.434,0,0,0,2.458-3.075,15.581,15.581,0,0,0,.694-6.869,8.91,8.91,0,0,0-1.328-4.315,3.894,3.894,0,0,0-3.323-1.887" transform="translate(3.334 1.381)" fill="#fff"/>
        <path id="Path_5553" data-name="Path 5553" d="M66.144,57.1c-.093,5.78-.377,11.519-1.895,17.129A23.723,23.723,0,0,1,60.3,82.65a15.4,15.4,0,0,1-10.8,5.99,21.229,21.229,0,0,1-8.225-.517,15.719,15.719,0,0,1-10.22-8.817,34.834,34.834,0,0,1-3.086-11.211,84.31,84.31,0,0,1-.149-19.012,33.855,33.855,0,0,1,3.77-13.464c2.883-5.116,7.34-7.738,13.14-8.194a21.2,21.2,0,0,1,8.422.874,15.553,15.553,0,0,1,9.222,8.331,33.391,33.391,0,0,1,3.09,11.365c.332,3.024.465,6.069.686,9.105m-22.178.956c.194,4.346.321,8.684.618,13.009a24.075,24.075,0,0,0,.986,4.589c.1.358.648.85.959.829a1.482,1.482,0,0,0,1.039-.843,12.507,12.507,0,0,0,.828-3.28c.274-4.172.529-8.349.6-12.527A106.687,106.687,0,0,0,48.407,43.9a12.659,12.659,0,0,0-.9-3.257c-.444-1.039-1.35-.992-1.914,0a3.519,3.519,0,0,0-.411,1,24.935,24.935,0,0,0-.615,3.5c-.248,4.3-.409,8.613-.6,12.918" transform="translate(1.376 1.376)" fill="#fff"/>
        <path id="Path_5554" data-name="Path 5554" d="M223.666,26.338l27.061-2.215V41.639l-11.544.441v9.662h9.826V65.772h-.87c-2.689,0-5.379.005-8.068-.005-.442,0-.72.035-.717.608.022,3.719.012,7.438.016,11.158a3.011,3.011,0,0,0,.064.419h11.3v16.2L223.666,92.2Z" transform="translate(11.256 1.214)" fill="#fff"/>
        <path id="Path_5555" data-name="Path 5555" d="M223.275,45.67h-8.906V90.895H198.59V47.407h-8.564V32.066l33.249-1.734Z" transform="translate(9.563 1.526)" fill="#fff"/>
        <path id="Path_5556" data-name="Path 5556" d="M134.337,45.506h-8.642V87.045H109.868V42.918h-8.315V27.55q16.4,1.311,32.784,2.617Z" transform="translate(5.111 1.386)" fill="#fff"/>
        <rect id="Rectangle_59" data-name="Rectangle 59" width="16.157" height="59.94" transform="translate(181.442 30.636)" fill="#fff"/>
        <path id="Path_5557" data-name="Path 5557" d="M173.853,21.2c-1.873.155-3.7.289-5.522.468-.512.05-.6-.286-.748-.6q-1.949-4.128-3.9-8.257a.73.73,0,0,0-.378-.388c.1,2.728.211,5.456.318,8.221h-6.059V1.376c.4-.027.874-.069,1.352-.089,1.317-.056,2.636-.077,3.951-.167a.8.8,0,0,1,.931.566c1.222,2.759,2.472,5.5,3.715,8.255a1.385,1.385,0,0,0,.462.622C167.789,7.1,167.6,3.638,167.4.147h5.971c.16,7.018.318,13.979.479,21.052" transform="translate(7.93 0.007)" fill="#fff"/>
        <path id="Path_5558" data-name="Path 5558" d="M133.041.737c3.869-.7,7.627-1.239,11.365.019a7.191,7.191,0,0,1,4.013,10.25,18.684,18.684,0,0,1-2.352,2.77c1.085,2.276,2.287,4.8,3.528,7.4-2.157.217-4.228.439-6.3.609-.168.015-.448-.284-.535-.495-.77-1.885-1.528-3.776-2.245-5.681-.229-.609-.539-.837-1.185-.552v5.8h-6.289Zm6.224,10.02c1.37-.028,2.55-.128,3.194-1.387a3.469,3.469,0,0,0-.415-3.567,2.8,2.8,0,0,0-2.779-.674Z" transform="translate(6.695 0)" fill="#fff"/>
        <path id="Path_5559" data-name="Path 5559" d="M191.726,8.378c-1.547.046-3.038.091-4.528.134-.645.019-1.454.275-1.885-.02-.383-.263-.337-1.14-.5-1.739a3.792,3.792,0,0,0-.309-.791,1.426,1.426,0,0,0-2.6-.117,4.977,4.977,0,0,0-.629,1.8,18.578,18.578,0,0,0,.208,7.38c.243.971.667,1.882,1.864,2.007,1.332.139,2.2-.782,2.34-2.48h-2.833V10.083h9.317c.025,3.271-.184,6.43-2.281,9.121a6.182,6.182,0,0,1-3.251,2.136,12.177,12.177,0,0,1-5.6.276,7.465,7.465,0,0,1-6.2-5.869,18.017,18.017,0,0,1-.088-9.265,7.841,7.841,0,0,1,7.924-6.34c2.931-.107,5.551.576,7.38,3.089a9.026,9.026,0,0,1,1.674,5.147" transform="translate(8.766 0.007)" fill="#fff"/>
        <path id="Path_5560" data-name="Path 5560" d="M116.722.816l6.237.8c-.14,1.7-.3,3.335-.4,4.975a26.97,26.97,0,0,0,.38,7.324,4.376,4.376,0,0,0,.457,1.224,1.036,1.036,0,0,0,1.94-.008,5.661,5.661,0,0,0,.525-1.921,53.635,53.635,0,0,0-.206-10.823c-.061-.615-.14-1.229-.225-1.974L131.87.068a49.678,49.678,0,0,1,.737,11.548,20.814,20.814,0,0,1-.781,4.481c-1.4,4.554-4.594,5.957-8.928,5.323-3.473-.508-5.491-2.739-6.326-6.617a32.665,32.665,0,0,1-.384-9.253c.11-1.539.342-3.068.535-4.734" transform="translate(5.84 0.003)" fill="#fff"/>
        <path id="Path_5561" data-name="Path 5561" d="M89.142.5h9.544q2.1,10.48,4.228,21.087H96.1l-.476-3.165H91.782c-.1.726-.193,1.457-.293,2.214H85.027C86.4,13.9,87.764,7.247,89.142.5M93.76,5.467l-.155-.034c-.395,2.687-.79,5.373-1.19,8.1h2.534c-.4-2.725-.8-5.394-1.189-8.064" transform="translate(4.279 0.025)" fill="#fff"/>
        <path id="Path_5562" data-name="Path 5562" d="M78.313,13.444V15.77h6.645V21.3c-4.343-.105-8.621-.208-12.995-.315C71.885,14.23,71.806,7.5,71.724.6H84.96V6.03H78.184V8.449h5.474v5Z" transform="translate(3.61 0.03)" fill="#fff"/>
        <path id="Path_5563" data-name="Path 5563" d="M58.409.563h12.77V6.376H64.726V9.849h5.313v5.711H64.812v5.414h-6.4Z" transform="translate(2.939 0.028)" fill="#fff"/>
        <path id="Path_5564" data-name="Path 5564" d="M115.843,6.444H111.8v14.7h-6.451V6.463H101.2V.612h14.638Z" transform="translate(5.093 0.031)" fill="#fff"/>
        <rect id="Rectangle_60" data-name="Rectangle 60" width="6.381" height="20.488" transform="translate(157.297 0.673)" fill="#fff"/>
      </g>
    </g>
    <g id="Group_269" data-name="Group 269" transform="translate(804 29.999)">
      <g id="Group_268" data-name="Group 268" transform="translate(0 0)">
        <g id="Group_267" data-name="Group 267" clip-path="url(#clip-path-2)">
          <path id="Path_5565" data-name="Path 5565" d="M0,24.288V316.97l37.348-16.136,12.272-5.275,16.074-6.938c8.958-3.87,17.548-7.01,26.745-9.961q5.716-1.825,11.481-3.413a296.126,296.126,0,0,1,196,13.8l32.644,14.1,32.073,13.83V24.288A24.291,24.291,0,0,0,340.347,0H24.291A24.291,24.291,0,0,0,0,24.288M347.712,290.594l-9.371-4.034-31.707-13.7q-2.172-.931-4.363-1.846a311.653,311.653,0,0,0-119.954-23.859q-2.42,0-4.835.037-15.586.233-30.943,1.986a310.942,310.942,0,0,0-67.956,15.618Q68.195,268.445,58,272.86L16.927,290.594V117.914H274.543l0-.012h73.166Z" transform="translate(0 0.003)" fill="#fff"/>
          <path id="Path_5566" data-name="Path 5566" d="M152.931,524.935a8.2,8.2,0,0,0-2.054-2.38,4.681,4.681,0,0,0-2.752-1.015H128.75A3.618,3.618,0,0,0,126.4,522.7a9.585,9.585,0,0,0-1.762,2.334,16.607,16.607,0,0,0-1.285,2.864,9.348,9.348,0,0,0-.559,2.932V649.276a8.472,8.472,0,0,0,.521,2.867,10.261,10.261,0,0,0,1.281,2.482,6.333,6.333,0,0,0,1.881,1.862,3.484,3.484,0,0,0,1.719.521,2.56,2.56,0,0,0,.953-.183l14.556-5.337.245-.341c.692-.959,1.309-1.927,1.862-2.833l.149-.239c.233-.376.459-.742.7-1.08,1.669.381,3.45.776,5.415,1.2l1.648.354.524-75.047-1.589.239-7.987,1.21-4.627.7-.161.984c-1.03,6.225-2.07,12.6-3.1,18.959l.13-49.763a2,2,0,0,1,.723-1.552l.056-.046a3.3,3.3,0,0,1,1.108-.717c.289,0,.885.5,1.08.664a2.225,2.225,0,0,1,.67,1.756l-.077,18.69,2.464-3.122c3.752-4.754,7.565-9.437,11.332-13.92l.31-.378.109-15.639a13.679,13.679,0,0,0-.475-3.5,12.439,12.439,0,0,0-1.306-3.125m-13.138,73.461-.05,30.7a.814.814,0,0,1-.136.376,5.043,5.043,0,0,1-.621.841,5.515,5.515,0,0,1-.723.686,2.973,2.973,0,0,1-.282.2.91.91,0,0,1-.2.018,4.023,4.023,0,0,1-.931-.168.621.621,0,0,1-.158-.521V630.5l.084-31.471Z" transform="translate(-91.613 -389.091)" fill="#fff"/>
          <path id="Path_5567" data-name="Path 5567" d="M292.158,521.527H273.046a4.035,4.035,0,0,0-2.433.968,10.8,10.8,0,0,0-1.831,1.933,11.849,11.849,0,0,0-1.406,2.535,7.755,7.755,0,0,0-.621,2.827l-.974,107.34v.037a7.261,7.261,0,0,0,.565,2.628,8.774,8.774,0,0,0,1.384,2.191,5.7,5.7,0,0,0,2.054,1.551,4.11,4.11,0,0,0,1.552.348,2.892,2.892,0,0,0,.953-.158c6.169-1.98,12.477-3.82,18.73-5.461a7.863,7.863,0,0,0,4.686-4.034,13.319,13.319,0,0,0,1.88-6.532l1.272-96.929a10.98,10.98,0,0,0-1.793-6.206,6.027,6.027,0,0,0-4.915-3.026M283.7,617.485a3.04,3.04,0,0,1-.838,2.02,3.9,3.9,0,0,1-1.409,1.148.463.463,0,0,1-.09,0,1.76,1.76,0,0,1-.288-.028,1.057,1.057,0,0,1-.453-.2,3.069,3.069,0,0,1-.574-.543.517.517,0,0,1-.04-.264l.878-75.909v-.053a.98.98,0,0,1,.134-.435,6.122,6.122,0,0,1,.7-.844,2.355,2.355,0,0,1,.667-.478,1.683,1.683,0,0,1,.438-.152,2.571,2.571,0,0,1,1.148.649,1.887,1.887,0,0,1,.639,1.527Z" transform="translate(-198.285 -389.081)" fill="#fff"/>
          <path id="Path_5568" data-name="Path 5568" d="M541.181,629.631l1.551-.189c3.783-.462,7.621-.872,11.407-1.213l1.241-.112s.158-32.8.233-48.578c4.127-.189,8.3-.345,12.412-.459l1.325-.037.087-17.458-1.406.028c-4.071.084-8.2.2-12.288.332l.189-22.9c5.418-.068,10.907-.118,16.338-.149h1.359l.068-17.327H542.3Z" transform="translate(-403.745 -389.11)" fill="#fff"/>
          <path id="Path_5569" data-name="Path 5569" d="M720.221,524.292a6.2,6.2,0,0,0-4.918-2.752H696.2a4.342,4.342,0,0,0-2.28.766A8.141,8.141,0,0,0,692,524.029a10.191,10.191,0,0,0-1.415,2.2,5.972,5.972,0,0,0-.621,2.529l-.143,90.869a5.82,5.82,0,0,0,.621,2.532,9.974,9.974,0,0,0,1.452,2.172A9.047,9.047,0,0,0,693.815,626a4.448,4.448,0,0,0,2.374.776h.093c6.47,0,13.033.177,19.484.521h.267a6.091,6.091,0,0,0,4.782-2.513,9.376,9.376,0,0,0,1.927-5.719l-.59-88.951a9.689,9.689,0,0,0-1.942-5.846m-12.49,83.89a2.792,2.792,0,0,1-1.334.621,1.8,1.8,0,0,1-.528-.14,2.307,2.307,0,0,1-.682-.4,4.977,4.977,0,0,1-.686-.7.308.308,0,0,1-.074-.227l-.121-66.262a.311.311,0,0,1,.068-.22,4.722,4.722,0,0,1,.661-.67,2.085,2.085,0,0,1,.639-.372,1.691,1.691,0,0,1,.487-.121,2.824,2.824,0,0,1,1.3.67,1.582,1.582,0,0,1,.621,1.269l.242,65.378a1.428,1.428,0,0,1-.6,1.182" transform="translate(-514.637 -389.091)" fill="#fff"/>
          <path id="Path_5570" data-name="Path 5570" d="M867.578,586.1a4.344,4.344,0,0,0,1.921-3.857l-.7-55.349a5.305,5.305,0,0,0-1.675-3.724,4.992,4.992,0,0,0-3.184-1.617h-25.8l.906,106.685,1.241.118c3.68.351,7.4.76,11.072,1.22l1.552.2-.416-39.266q2.349,19.415,4.692,38.834l.127,1.04,1.036.152c3.724.549,7.515,1.167,11.233,1.831l1.818.31-.214-1.834c-1.614-13.765-3.308-28.147-5.173-43.935a9.149,9.149,0,0,0,1.579-.807M854.4,565.869a.862.862,0,0,1-.13.189l-2.113-.118-.261-24.57,2.148.046a3.183,3.183,0,0,1,.267.267.9.9,0,0,1,.23.54l.257,22.463a2.644,2.644,0,0,1-.394,1.185" transform="translate(-625.284 -389.1)" fill="#fff"/>
          <path id="Path_5571" data-name="Path 5571" d="M1114.154,642.079c3.569,1.089,7.168,2.25,10.7,3.447l1.828.621-1.114-124.608h-13.709l1.334,120.248Z" transform="translate(-829.496 -389.09)" fill="#fff"/>
          <path id="Path_5572" data-name="Path 5572" d="M1195.991,542.408l.5,108.714,13.38,4.906-.223-112.922,8.729.447V521.54h-31.34l.14,20.421Z" transform="translate(-885.584 -389.091)" fill="#fff"/>
          <path id="Path_5573" data-name="Path 5573" d="M847.778,393.214l.048-.233h-.1l-.088.086v.051l.088.1Z" transform="translate(-632.379 -293.18)" fill="#d60812"/>
          <path id="Path_5574" data-name="Path 5574" d="M671.919,352.157l.4-.1v.052l.59-.157h.291v-.1h.35v-.1h.542l.1-.1a.444.444,0,0,0-.392-.491.468.468,0,0,0-.053,0l.047-.049c0-.085-.063-.133-.193-.145l.1-.157v-.1a4.807,4.807,0,0,0-.893-1.23h.106a19.654,19.654,0,0,0-1.433-2.414h-2.956a29.794,29.794,0,0,0,1.631,2.762q.525,1.037.739,1.037c0,.194.048.291.144.291h.2v-.1h.145v.1l.243.046a.539.539,0,0,0,.447.252v.1l-.246.048-.094-.1-.2.1c-.192,0-.291-.048-.291-.146h-.1v.048l.386.69h.049c.07,0,.107-.05.107-.148h.143Zm-1.326-4.293-.1-.1v-.047l.1.1Zm1.819,2.268.049-.047.146.146v.057l-.1.1-.1-.1Zm-.2,1.085c0-.081.068-.131.2-.143v-.4h.1c0,.109.148.208.445.3h.543v.048c-.136.012-.2.061-.2.146v.047l.049.051-.289.2h-.1l-.25-.057v.158c-.129,0-.2-.1-.2-.3h-.3Z" transform="translate(-498.744 -258.935)" fill="#d60812"/>
          <path id="Path_5575" data-name="Path 5575" d="M700.969,361.116l.1-.1v-.106a.541.541,0,0,0-.3-.243v.048l-.052.05v.25l.1.1Z" transform="translate(-522.765 -269.074)" fill="#d60812"/>
          <path id="Path_5576" data-name="Path 5576" d="M684.488,367.379v.147l.048.049h-.048l-.146-.1c.014-.129.064-.2.146-.2a.911.911,0,0,0-.348-.592h-.05v.1l-.144-.046c-.3.062-.447.177-.447.336h-.047l-.145-.093-.3.19h-.292l-.251-.048-.048.205-.243-.051h-.253v-.107h-.388a1.919,1.919,0,0,0,.341.7l.048-.05h.107v.05h-.107a19.465,19.465,0,0,0,1.29,2.16q3.167,5.385,3.4,5.571h1.474l.1-.1.3.1h.978v-.1l-4.824-8.129Zm-1.23.292h-.145v-.1h.145Zm.542.446-.095.1v-.147h.095Zm0-.1h-.049l-.2-.049v-.048l.157-.046.1.094Zm4.475,6.9.057-.048.1.1h-.156Zm-3.836-6.5h-.2v-.06h.2Zm2.016,6.744.252.051v.045h-.252l-.095-.1Zm-1.327-6.056.049-.144h.094v.1l-.094.1h-.049Zm.049.542h.046v.1h-.144Zm-.448,1.282h-.048v-.1h.147Zm.05-2.811-.147.239h-.146c.08-.16.157-.241.242-.241Z" transform="translate(-508.453 -273.566)" fill="#d60812"/>
          <path id="Path_5577" data-name="Path 5577" d="M847.73,395.2h-.088v.465l.088-.087Z" transform="translate(-632.379 -294.833)" fill="#d60812"/>
          <path id="Path_5578" data-name="Path 5578" d="M821.868,349.423a7.456,7.456,0,0,0-1.219,3.2v.046l.049.051q-.145,0-.145,1.131c0,.694.048,1.038.145,1.038l.039-.144q-.057,0-.088-.284l.186.1-.049.04.1.19.184-.145h.047l-.135.145.047.233v.1h-.144l-.234-.146c0,.471.064.7.186.7h.232V355.6h.426l.281-.1v.049l.094-.1V355.4l.149.048h.047l.038-.048h.1l-.049.048.049.049-.1.181.049.054v.046l-.049.049-.182-.094v.046l-.052-.046a.432.432,0,0,0-.231.375c.057.143.12.22.185.233h.2l.086-.086c.077,0,.186.076.329.232h.05c.1,0,.146-.065.146-.194h.048l.047.047-.047.051v.046l.047.049v.048l-.095.1v-.1h-.1l-.048.049-.136-.1v.048l-.143-.048h-.049l.1.28h-.1l-.049-.047.049-.049a.533.533,0,0,0-.466-.279v.046l-.243-.046.049-.33h.048l.049.047v-.1l-.049-.047.146-.138-.1-.094h-.147v.145l-.046-.05h-.042l-.048.05c0-.1-.029-.145-.094-.145l.048.232c-.222,0-.332.143-.332.427q.439,1.267.611,1.268h.049l-.049.146.708.987.1-.1h.048l.038.045-.038.194a5.336,5.336,0,0,0,2.027,1.453.162.162,0,0,0,.181-.139.154.154,0,0,0,0-.045h.048c.093,0,.136.062.136.184l.1-.088.284.088-.041.243.844.183v-.046h.1c-.032-.22-.1-.331-.192-.331v-.049h.049l.047.049-.047-.233.047-.146c-.122,0-.183-.045-.183-.136l.087-.1h.049l.143.1h.05l-.05-.047c.151-.253.258-.379.331-.379a1.048,1.048,0,0,1-.28.524l.134.038v.1h-.1v.143l.193-.045.1-.1v-.185h-.1v-.1l.185-.143.194.093h.049l.088-.231v-.1c-.123,0-.184-.03-.184-.1l-.2.05h-.039l.037-.234c.1,0,.146-.032.146-.1l.1.1h.049l.045-.049v-.048l-.045-.048v-.136l.045-.048h-.045v-.049l.045-.048c0-.045-.062-.092-.192-.137v.042l-.327-.088h-.1l-.182.046h-.049l.049.137v.1c0,.067-.077.1-.232.1v.037l.038.051-.184.048v-.048c0-.122-.048-.185-.143-.185v-.1a.535.535,0,0,0,.522-.425l.284.045v.051l-.052.048v.05h.1v-.149h.1l.037.051v-.051l.048-.045v-.137l-.8-.194c-.659-.427-.987-.678-.987-.747a5.451,5.451,0,0,0-.756-1.182l.047-.046c0-.284-.079-.427-.241-.427v.045h-.085v-.045h.046l.136-.137a3.747,3.747,0,0,0-.328-1.464l-.135.051h-.049l-.049-.051v-.048l.049-.05.137.05.1-.088v-.1l-.049-.05h.049c.1,0,.144-.185.144-.561v-.1l-.046-.048c-.1,0-.146-.032-.146-.1h.146l.046.048a4.866,4.866,0,0,1,1.027-2.45v-.088c-.057,0-.087.044-.087.136-.064-.014-.128-.093-.192-.235l.378.1.8-.612,1.083-.375-.144-.052v-.048l.284-.193v-2.16l-.049-.048a6.3,6.3,0,0,0-4.992,2.451m-.278,7.393-.475-.281v-.048l.05-.05.193.05h.042l.046-.05a.355.355,0,0,1,.146.285Zm.379,1.464h-.047v-.148h.1l.085.1Zm.328.133h-.048l-.048-.045v-.136h.048l.048.136Zm3.44-.181h.087v-.048l-.038-.051h.038l.1.1v.048l-.048-.048-.136.1Zm-.1,1.548c0,.1.034.146.1.146v.1h-.194l-.088-.243Zm-.473.284.048-.038.191.038v.146h-.191v-.048l.048-.049h-.1Zm-.234-.284.192.048v.05h-.143l-.049-.05Zm-2.075-10.4.2-.1h.04a.424.424,0,0,1-.237.234Zm-.094,3.111h.143v.086h-.143Zm-.8.659.134.048v.05h-.134Zm-.428-1.7h.146v.1h-.146Zm0,1.5h.146v.145l-.048.05-.1-.1Zm-.1,1.036.049-.049v.1l-.136.051v-.148l.042.049Zm-.225-.663.143.1v.05l-.143-.05Zm.094,1.317v-.086h.09l.095.086Zm.428.29v-.047l.086-.1h.046Zm.233-.335c0,.1-.035.144-.1.144l.052-.185h.048Zm0-.332c0,.13-.143.227-.428.292H821.5c0-.053.126-.133.376-.241,0-.091.034-.138.1-.138h.048c0-.315-.125-.475-.379-.475v-.048l.048-.046c.122.018.182.066.182.142a.886.886,0,0,0,.429-.142l-.047-.137v-.05h.047a.557.557,0,0,0,.233.329h.048l.049-.048v.048c0,.114.108.189.327.234V353.9h.052v.088h.28l-.049.242v.038l.049.051-.147.047-.185-.136h-.048v.089l.048.047h-.149v-.1h-.088l.04.146v.046h-.233l.048-.046-.1-.1h-.05l-.038.047-.048-.047v-.051l.048-.038h-.1l-.047.038v-.038Zm1.317.95-.192.184-.041-.135.136-.049Zm-.658.417h-.05l-.329-.185V355.4h.047l.135.048.2-.145h.048l-.1.1Zm-.146.523-.136-.05-.048.147h-.047l-.048-.147.048-.143.232.047Zm.1,1.035h.185l-.088.137-.193-.04Zm.1,1.5v-.042l-.048.042-.1-.088.1-.1h.135l.047.144Zm.231-.748-.1.088h-.088l-.047-.184h.135l.047.045.049-.045Zm-.049-1.985a.313.313,0,0,0-.227.29h-.052l-.048-.193.192-.284h.04l.047.049v-.049l.2.049c.057,0,.088-.049.088-.148h.094v.246c.091,0,.228.154.428.466h-.049l-.185-.186h-.048l-.048.05h-.233l-.147-.243h.1v-.047Zm.71,2.972h-.1v-.144h.1Zm-.428-.1-.087.1h-.046l.133-.145Zm.243-.232h.049l-.049.184h-.1l-.1-.1Zm.464,1.126h-.227a.341.341,0,0,1-.331-.236v-.046l.234.1v.1l-.052.037.148-.037.227.037Zm.284.19-.185.1H823.9l.048-.145.049-.049.048.049h.088Zm.049-.278h-.088l.088-.148h.049Zm.523-.853h-.1a.341.341,0,0,1-.233-.33v-.184l.331.33Zm0-.939-.426.134.233-.231.193.048Zm-.332-.853h.052l.135.1-.1.1-.091-.1Zm-.241.523c.1.027.146.119.146.284h-.1l-.049-.048.049-.138v-.047Zm-.185-.853.146-.037v.087h-.15Zm.1,2.4.137-.087v.087l-.087.1c-.129,0-.194.032-.194.1h-.049v-.1l-.133.048-.1-.1v-.048l.047-.051-.047-.037h.143Zm-.376-.941h.1l-.046.2h-.05Zm-.1-3.013h.049v.1l-.234.048v-.048l-.048-.05Zm.049-2.549h-.049v-.084c.1,0,.147-.033.147-.1h.085Z" transform="translate(-612.168 -258.855)" fill="#d60812"/>
          <path id="Path_5579" data-name="Path 5579" d="M843.315,400l-.33.145v.1h.052l.045-.048.136.184v.05l.379-.05h.049l-.049-.136c0-.162-.092-.241-.282-.241" transform="translate(-628.904 -298.418)" fill="#d60812"/>
          <path id="Path_5580" data-name="Path 5580" d="M844.856,398.586l.137.049v-.049l.049-.036v-.38h-.049c-.054,0-.1.139-.137.416" transform="translate(-630.3 -297.052)" fill="#d60812"/>
          <path id="Path_5581" data-name="Path 5581" d="M821.713,382.086l-.191-.048h-.05l.05.231h.047l.144-.143Z" transform="translate(-612.855 -285.016)" fill="#d60812"/>
          <path id="Path_5582" data-name="Path 5582" d="M701.986,347.08l-.35.052-.194-.052H701l-.049.052-.048-.052h-.3l-.043.052.043,1.325v1.933a.711.711,0,0,0,.545.291l-.1.143v.253l-.4.1v.445l.1.1-.1.146v1.386l.048,1.47a10.4,10.4,0,0,0,1.384,2.521l.049-.057.094.106h-.094l1.472,2.607h.107V351.47c0-.071-.069-.107-.2-.107v-.045c.136,0,.2-.034.2-.1v-3.5c0-.065-.084-.094-.252-.094v-.1h.252v-.348l-.107-.1Zm-.8,5.417-.241-.049V352.4l.049-.046.193.046Zm.3-3.691-.048-.144v-.052l.194.052Zm.241,3.45h-.046v-.1h.143Zm.1-4.491.05-.047.107.1h-.157Zm.05.642h.251v.1h-.251Zm.346,1.677-.094-.1.094-.1Zm.4-2.562-.1.1v-.194h.1Zm.048.836v-.047l.2-.1h.1l-.2.146Zm.388,7.441h-.051l-.1-.1h.146Zm.056-6.258h-.107v-.048h.047l.3.145v.057h-.147c-.064,0-.1-.048-.1-.152Zm.338,1.337h-.047l-.242-.057v-.046h.049l.241.048Z" transform="translate(-522.644 -258.936)" fill="#d60812"/>
          <path id="Path_5583" data-name="Path 5583" d="M646.419,399.843l-.1.1a.536.536,0,0,1,.2.4h.1l.241-.1v-.1h-.046a.425.425,0,0,0-.4-.3" transform="translate(-482.184 -298.3)" fill="#d60812"/>
          <path id="Path_5584" data-name="Path 5584" d="M640.72,400.842l-.194.147.1.1h.444v-.048l-.2-.2Z" transform="translate(-477.861 -299.045)" fill="#d60812"/>
          <path id="Path_5585" data-name="Path 5585" d="M668.577,354.678h.057l.1-.1c.362-.089.542-.176.542-.252v-.049l.436.049q0-.338.3-.338c0-.1.029-.146.095-.146l-1.676-2.856h-.094v3.446h.046Z" transform="translate(-498.608 -261.852)" fill="#d60812"/>
          <path id="Path_5586" data-name="Path 5586" d="M685.955,363.1l.1-.094v-.194l-.243.194.1.094Z" transform="translate(-511.643 -270.672)" fill="#d60812"/>
          <path id="Path_5587" data-name="Path 5587" d="M621.911,347.08v.052l.107.3-.057.048-.243-.1-.095.142c.044.2.109.295.192.295l-.145.443.2.051v.1a.455.455,0,0,0-.291.156h-.048l-.048-.3-.252.051h-.146l-.049-.051-.047.051.047.047c0,.136-.083.205-.251.205v.045l.155.149h.049l.047-.048c0,.064.049.094.146.094v.049l-.1.1.1.447c-.057,0-.09.065-.1.194h-.053v-.1l.049-.243h-.3l-.193.146c0,.2.13.317.4.348v-.107h.047v.057c-.018.129-.151.191-.4.191v-.144h-.1v.194h.1l-.1.348v.39h.192v-.048c.267-.163.4-.3.4-.4l-.1-.341h.242l.051.051c.134-.123.2-.223.2-.3h.1v.4a1,1,0,0,0,.637.349v.094l-.3.1h-.1v-.049l.049-.049-.1-.094h-.048v.193h-.1l-.1-.291.1-.106-.144-.145h-.157a.3.3,0,0,1-.192.3v.051l.049.048v.2h-.146v.25l.194-.057v-.1h-.1v-.046h.1l.252.046v-.094h.1v.145c0,.071-.049.106-.146.106v.1l.048-.049.436.1h.057l.048-.048a.258.258,0,0,0,.219.291.261.261,0,0,0,.073,0v.094c-.1,0-.148.036-.148.107v.292h-.252l-.047-.048-.1.1a.413.413,0,0,0,.254.349v.05a.394.394,0,0,1-.4-.349l-.144.048v.205c0,.063.048.1.144.1l-.046.241v.2h.494v-.107l.192.107.1-.3h.1l.049.046v-.145l.2-.049.146-.148v-.1l-.046-.048h.046l.052-.048.046.3c.138,0,.2.05.2.147h-.048l-.057.05H622.8v.19h-.4c0,.171-.066.254-.2.254l.1.288-.145.048v.057a.409.409,0,0,0,.243.437h.145l.1-.1v-.141l-.047-.049h.047l.051-.048.046.243c0,.065-.046.1-.144.1v.2l.1.1h.243c.095,0,.143-.079.143-.25h.057c0,.171.031.25.1.25h.147l.145-.1-.049-.048c0-.231.062-.349.192-.349v-2.363c0-.065-.048-.1-.143-.1v-.1h.143v-.592l-.386-.155v-.047h.049l.337.047v-1.522c-.192-.069-.288-.137-.288-.2v-.1l.1-.1c.063,0,.1.1.1.292h.094v-1.331l-.094-.1Zm-.244,1.775-.241.047h-.059v-.1l.3-.094Zm.145.146h-.1v-.146h.1Zm1.279,3.943h-.2l-.045-.145v-.051h.045l.2.1Zm-.2-4.138h.1v.1h.156l.243.049V349h-.049l-.448.2h-.046v-.155h.1Zm.2-.689c-.086,0-.165.065-.24.2-.3.012-.446.076-.446.192h-.1v-.1h.1v-.292h.145l-.049.048.107.1h.047v-.242h.437Zm-.484-.686.1.093-.1.1H622.5Zm-.2.337h.048l-.146.147h-.049Zm-.243.944.1-.1h.049l-.049.149h-.1Zm.048.685h-.095v-.146h.095Zm.1-.3h-.1v-.05l.1-.1h.051l.046.051Zm.785,2.567-.1.1-.688.145v-.145l.348-.048.2.048c.1-.025.143-.123.143-.292l.1.1Zm-.2-.493H622.8c0-.131-.034-.193-.1-.193v-.1h.046v.048Zm.052.047.046.145h-.1v-.144Zm.25-.338h-.156c0-.136-.082-.2-.241-.2h-.1l-.051.046-.154-.145v-.048l.049-.049a1.468,1.468,0,0,1,.649.341Zm.291,1.869h-.1l-.1-.1.1-.107h.046l.051.157Zm-.146-1.975.094.106h-.192Zm.094-1.279h.1l.048.048-.048.156h-.291l-.2.192v.051c.1,0,.156.031.156.1v.048l-.493-.145-.051.048-.25-.048v-.195l.145-.048.1.094h.294Zm0-1.579c-.063,0-.126-.13-.192-.392l.147-.045h.046l.051.045c0,.165.031.244.1.244Z" transform="translate(-462.945 -258.936)" fill="#d60812"/>
          <path id="Path_5588" data-name="Path 5588" d="M640.993,391.492v.153l.05.05-.1.1a1.688,1.688,0,0,0-.7-.3h-.832c.038.232.121.349.24.349v.1l-.386-.192.048-.049a.3.3,0,0,0-.2-.2l-.195.107-.146-.107H637.1l-.194.2h-.057l-.05-.05V391.6l.05-.049v-.057h-.435c-.066,0-.094.053-.094.153l-.207-.153h-.289l-.106.107v.145h.057l.048.048-.048.049c0,.128-.068.194-.2.194,0-.1-.032-.147-.1-.147l-.1.494h.194v.1c-.128,0-.194.048-.194.145l-.3.25v.4h.153v.2l-.1.141v.3l.057.048c.131,0,.193.05.193.147h.642l.094-.1v-.05h-.192v-.492c-.136,0-.2-.05-.2-.148h.156v-.106c-.171-.019-.253-.069-.253-.146v-.1a.545.545,0,0,0,.155-.348l-.057-.243.2-.1c.143.076.223.157.241.243l-.094.155v.046l.046.051-.046.047v.048a.48.48,0,0,1,.3.146v.048l-.048.048v.3l.048.051h-.158v.337l.11.107c.192,0,.284-.084.284-.251h.3v.1h.245l.145.2c-.1,0-.145.034-.145.1v.048h.688l.095-.1v-.049l-.048-.048h.048c0-.1-.048-.155-.145-.155v-.148l.35-.141a1.139,1.139,0,0,0,.543.141l-.155.3.25.2h.787v-.146h.143l.049.049v-.049h.107v.049l-.2.049v.048h1.978l.1-.1v-.639l-.1-.155.1-.146v-.048l-.048-.048.048-.05v-.638h-.048l-.2.146h-.049l.3-.447V391.6l-.1-.107Zm-2.963.2h.107l.049.049v.048l-.156-.048Zm-.591.1.1-.1v.193h-.1Zm.347,1.328-.046.048-.447-.387H637.1l-.1.1-.3-.25v-.049l.141.107.2-.057.341.154h.107l.146-.2-.05.251c0,.163.065.243.194.243Zm.5-.243-.048.048v.05l.048.048v.049c-.2-.079-.3-.143-.3-.2h.156v-.048l-.049-.047v-.3h.1l.1.1c-.085,0-.134.083-.146.251Zm.095-.785-.095-.107h.193Zm.69-.25h.048l.046.143-.1.107Zm-.192.394.046-.045h.1v.045c-.067,0-.1.051-.1.148h-.046Zm.284,1.571a.708.708,0,0,1-.387-.292v-.734h.1v.242l.192.194-.1.2.192.341Zm0-1.023h-.046l-.048-.155v-.05h.048l.046.154Zm0-.251h.061l.146-.146v.193l-.207.05Zm.3.745-.095.1h-.05l.05-.252v-.146h.095Zm.29-.3h-.1l-.049-.05v-.1h.049l.1.1Zm.7.193-.049.048-.152-.048c0-.13-.035-.193-.1-.193l-.048-.05-.049-.048h.1l.3.2Zm.2-.542h-.049l-.048-.243v-.1h.1l.048.048Zm.891,0,.048.2-.048.048-.057-.048-.2.048.049.243v.154c-.1,0-.146.034-.146.1h-.094l.192-.3a1.1,1.1,0,0,1-.145-.494l.1-.1h.047v.1l-.047.05.047.057Z" transform="translate(-473.795 -292.068)" fill="#d60812"/>
          <path id="Path_5589" data-name="Path 5589" d="M623.547,365.718v.057l-.292-.107v.048c-.168,0-.252.036-.252.1.138,0,.2.035.2.1v.1l-.049-.048-.253.1h-.045l.045-.244v-.25l-.045-.048c-.162,0-.243-.032-.243-.1s-.215-.239-.649-.543v-.141h.107c0-.167.031-.25.1-.25,0-.227-.133-.338-.4-.338l-.1.144v.144l.048.05c.1,0,.147.033.147.1v.057l-.147.05v-.05c-.063,0-.095.1-.095.292a.344.344,0,0,1-.35-.2v-.046q0-.109.252-.109v-.336l-.1-.1h-.06l-.045.046v-.046a.4.4,0,0,1-.341-.446l.1-.1h.047l.146.147.156-.1-.105-.3v-.048l.046-.05h-.046a.4.4,0,0,0,.154-.341h.241l.1-.107v-.145h-.047l-.241-.143-.252.048c0,.065.052.1.156.1l-.06.252h-.045q-.186-.493-.293-.492a.476.476,0,0,1-.251.291l.057.049v.044l-.057.049v.106l.347.1v.048c-.192,0-.289.033-.289.1v.252h-.106l-.049-.154h.049l-.1-.1h-.1v1.918l.241.25v.05h-.05l-.049-.05h-.047l-.1.1v1.086c0,.062.048.1.142.1v.047c-.095,0-.142.031-.142.1v2.905l.1.155v.145l-.1.146v.047h.348l-.348.3v.88c0,.065.063.1.192.1v.048h-.1v.35c0,.063.113.1.349.1.038.2.088.3.143.3h.3v-.3c0-.065-.1-.1-.3-.1v-.35l-.047-.048.4-.048-.049-.243q0-.193-.35-.192l.1-.107h.048l.049.05.1-.292V370.6l.156.048h.1c.064,0,.095-.114.095-.35h.049v.051l.1.2h.156v-.092l-.057-.052h.252l-.095.292v.048l.046.05-.25-.05h-.049l-.1.1V371a.372.372,0,0,1,.3.241c.257-.048.387-.15.387-.3v-.05l.155.05.542-.391-.107-.092.156-.3h.1l.1.394v.148h-.1v-.1h-.048a.323.323,0,0,1-.3.243v.047c0,.2.082.3.25.3v.048H623.1l-.289-.241h-.195v.291h.195v.048l-.195.3c-.17,0-.25.049-.25.148h-.243c-.066,0-.117.11-.157.337l.3.057c.195-.114.292-.215.292-.3h.057l.1.1v.051h-.051l-.2.094v.2h.3v-.1l.292-.107v.155l-.048.049.156.1h.243l.288-.3v-.634l-.048-.243.048-.048v-.048h-.143l-.049.048v-.1a.652.652,0,0,0,.192-.4v-3.254l-.048-.436.048-.349v-1.137H623.6Zm-.341.745h.146c-.051.13-.1.2-.146.2Zm-.107.932.155-.147a.414.414,0,0,1,.292.3.213.213,0,0,0-.243.241h-.145l-.057-.346Zm-.143-.641h.095v.147l-.095-.1Zm.143,1.137v.2H623l.048-.2Zm-2.063-3.248-.143.145v-.145l.047-.057h.049Zm-.3-.59.049-.156h.107l.047.049-.1.154h-.057Zm.3,7.431h-.251v-.1l.057-.048-.106-.1c.1,0,.157-.048.157-.144h.047a.493.493,0,0,0,.1.341Zm-.047-1.279v-.047h.1l.047.047v.1h-.047Zm.047-.444v-.194l.195-.146.048.048Zm.195.842-.1-.1v-.047l.2.047Zm.144-.542-.144.048-.1-.1h.243Zm.108-1.232a.653.653,0,0,0-.641.341h-.156v-.053l.156-.047h.05l-.05-.146v-.05l.05-.047h-.107v-.1h.155l.1.1.447-.1Zm-.3-1.038-.147-.142v-.1l.049.05.245-.05.105.1v.045Zm.1.591v.05l-.147-.145v-.05Zm-.194-.191v.048h-.1l-.049-.048v.048h-.047v-.048l.047-.05Zm-.049-1.132-.047.047-.146-.047v-.1l.146-.155h.047Zm.736,1.471h-.193v-.049l.144-.048h.048Zm.194-1.869h-.047v-.1l-.2.1.048.047c-.038.17-.085.254-.143.254h-.1a.536.536,0,0,0-.1-.35l.145.049c.064,0,.1-.081.1-.243l.291.047Zm.2-.447v.155l-.1-.107v-.1l.049-.046-.157-.146h-.337l-.049.146.049.193h-.252v.35h-.1v-.1l-.493.1v-.049l-.05-.048v-.049l.252-.049v.049l.29-.1-.049-.253v-.192h-.1v-.1l.243-.05v-.045h-.144l.252-.4h.193q-.074.341-.193.341h-.051l.049.154v.048h-.106v.1h.205v-.2h.341l.047-.152h.057l.048.048.049-.291h.1v.048l-.048.243h.048l.048.057h.147v-.107h.145l-.192.4c0,.077.08.126.25.146,0,.17.032.251.1.251v.049h-.1l-.057-.049-.05.389h-.1l.048-.243v-.048l-.048-.049.048-.049v-.047l-.194-.2Zm.641,1.037v.1l-.148.048h-.047v-.147Zm-.544.5v-.1l.292-.1h.057v.05l-.155.146Zm.544,1.083h-.1v-.053a.572.572,0,0,0,.146-.348v-.05l-.3-.047v-.1l.649.1v.24l-.3.051c0,.137-.029.2-.093.2Zm.192,1.132v-.049a.224.224,0,0,0,.253-.254l.147.051v.3Zm.593,1.726v.048c0,.065-.1.113-.291.147h-.049v-.052l.147-.143Zm-.1-2.568c0-.127-.051-.193-.146-.193v-.151l.049-.048h.146v.048h-.1a.638.638,0,0,0,.195.341Z" transform="translate(-462.954 -270.383)" fill="#d60812"/>
          <path id="Path_5590" data-name="Path 5590" d="M671.184,370.163v-.1h.192v-.347l-.094-.292-.052.05c-.16,0-.257-.149-.289-.445h-.057l-.049.048h-.193v-.243l-.3.144v.052l.057.048v.1h-.206v-.1h-.637l-.148.144v.1l.243.048h.253c0,.079.063.178.191.3v.1l-.095.1h-.048c0-.2-.069-.308-.2-.341l-.146.048c0-.063-.148-.163-.445-.3h-.1a.49.49,0,0,1-.341.1.4.4,0,0,0-.4.3v7.491l.046.048.195-.048.2.048h2.655l.049-.048-.1-7Zm-2.22,1.525-.048.057v.048l.048.048h-.048l-.1-.1v-.107h.145Zm.048-1.232a.615.615,0,0,0-.194-.389h.4c0,.066.047.1.143.1v.1c-.077,0-.177.064-.3.2Zm.493.3h-.193v-.048l.046-.048.147.048Zm.193-.1v-.252c.331-.011.494-.092.494-.243h.1v.1c-.1,0-.148.064-.148.2a.561.561,0,0,0-.4.2Zm.494.289-.1.1H669.9c0-.064.1-.114.289-.145Zm.4-.289h-.3v-.1h.3Zm-.048-.939H670.5v-.148l.046-.251.146.107c0,.164-.049.258-.145.289Zm.592.888-.1-.1v-.048h.1l.048.152Z" transform="translate(-498.596 -275.169)" fill="#d60812"/>
          <path id="Path_5591" data-name="Path 5591" d="M679.266,369.737h.045a.327.327,0,0,0-.192-.341h-.1a.341.341,0,0,0,.244.341" transform="translate(-506.58 -275.585)" fill="#d60812"/>
          <path id="Path_5592" data-name="Path 5592" d="M675.758,364.66l.147-.1-.147-.2h-.1l-.148.147.148.145Z" transform="translate(-503.957 -271.835)" fill="#d60812"/>
          <path id="Path_5593" data-name="Path 5593" d="M668.567,366.131l.351-.2h.145l.253.051.144-.148c.163,0,.242-.035.242-.107h.545a1.349,1.349,0,0,1,.637-.144v-.046a.588.588,0,0,0-.289-.5h-.146c0,.062-.082.129-.252.2h-.1V365.2l.1-.155-.1-.1h-.047l-.145.1h-.3c0,.1-.032.155-.1.155l.1-.252c-.012-.064-.1-.129-.243-.193l-.046.048h-.05l.1.243v.048h-.3l.048.251c-.227.031-.341.083-.341.147l-.351-.048v-.049l.051-.05-.1-.1h-.045v.246l.045.05-.045.046v.446l.094.1Z" transform="translate(-498.597 -272.122)" fill="#d60812"/>
          <path id="Path_5594" data-name="Path 5594" d="M853.759,375.457v-.048h-.048l-.049.048h-.144v-.1l-.184.1-.051-.145.146-.049.184.049.048-.233v-.1H850.8l.088.144v.038h-.1c-.044,0-.048.175-.006.522v.049h.143l.1-.1v-.1h.088l-.039.243c-.1,0-.146.029-.146.087h-.1l-.046-.04v.04l-.041.048v.284c0,.066.06.1.184.1v.1c-.079,0-.126.078-.143.234l.046.046h-.046l-.139-.1H850.6l-.048.332c0,.1.032.146.095.146h.232v.182h-.048a.12.12,0,0,0-.1-.135.116.116,0,0,0-.034,0h-.047l-.047.049-.048-.049h-.1l-.01.013v.016l-.014.1.024.149v.146q-.417.25-.418.329v.038h.087l.047-.038v.038l.05.047V378h-.33c0,.1-.188.3-.562.611-.5.25-.755.443-.755.568h-.1v-.048l.048-.048v-.051l-.427.1v.136l.243-.039v.184l-.049.05.049.048c-.252.038-.376.227-.376.561v.184l.28.381-.191.093h-.038l-.146-.093h-.147v.288h-.088v.657h.184c0,.057-.045.09-.135.09v.1a6.4,6.4,0,0,0,4.661-2.124,6.976,6.976,0,0,0,1.6-4.045h-.233Zm-5.329,5.794-.136-.052v-.1l.049-.048.088.1Zm.048-1.183-.137-.049v-.048h.134Zm1.037.511h-.1v-.037l.1-.1h.05Zm1.038-2.208-.1.1h-.04l-.049-.145c0-.094.032-.138.089-.138l.1.089Zm.279-.378-.087.1h-.052l-.047-.147c0-.089.033-.134.1-.134l.087.088Zm.284.232h-.136l-.048-.04v-.048l.185.048Zm-.039-.8-.1-.1h.049l.087.1Zm-.048-.94-.049-.145V376.3h.1l.088.193Zm.182.37.048-.187h.049l.052.049h.085l.049-.049v.049l.052.049-.185.087Zm.334,1.133.045-.051-.045-.046.094-.088.048.185Zm.142-2.5-.048.045c-.062,0-.094-.045-.094-.133-.346-.052-.516-.118-.516-.194v-.051h.048l.039.051c.063,0,.094-.049.094-.137h.1c.007.154.057.233.136.233h.049l.052-.048c0,.129.045.195.141.195Zm.235.471h-.148l.049-.048-.049-.135v-.048h.049l.1.184Zm.143-.232-.143-.1h-.148l-.039.046v-.093l.039-.052h.049l.047.052.146-.1h.046Zm.379.284H852.3l-.045-.146.191.048Zm.284-.476V375.5l.135-.04.1.086Zm.939.476h-.144l.045-.146h.1Z" transform="translate(-632.372 -279.753)" fill="#d60812"/>
          <path id="Path_5595" data-name="Path 5595" d="M872.229,375.078l.019-.1h-.106c.011.063.04.1.086.1" transform="translate(-650.658 -279.753)" fill="#d60812"/>
          <path id="Path_5596" data-name="Path 5596" d="M746.379,399.843l-.1.1a.545.545,0,0,1,.2.4h.1l.242-.1v-.1h-.046a.423.423,0,0,0-.4-.3" transform="translate(-556.76 -298.3)" fill="#d60812"/>
          <path id="Path_5597" data-name="Path 5597" d="M886.195,346.973l-6.124,13.933h3.508l2.81-6.4a.122.122,0,0,0-.077.119l-.057.05h-.176v-.05c0-.048.122-.125.358-.224l.061-.14-.078-.022v-.049h.109l3.175-7.219Zm.184,5.659.163.048.351-.233h.057v.1c-.271.057-.409.151-.409.281h-.162Zm-.067-1.53v-.039h.107c.05-.162.109-.242.17-.242a.511.511,0,0,0,.289.435v.183Zm.5-1.357-.118-.106a.96.96,0,0,0,.64-.235l.057.051c-.041.1-.236.191-.579.29Zm-.349-1.9a.623.623,0,0,0,.349-.134h.057l.176.246-.176.132h-.057a.47.47,0,0,0-.349-.181Zm-.106,2.4h.173l-.057.224h-.185Zm-.91.952h.126l.057.144v.036h-.184Zm-.341-.293h.1v.194l-.1-.088Zm-.35,1.674.114-.242h.176l.279-.049V352.2l-.162-.146.045-.29h.117c0,.066.063.1.185.1v.048h-.124v.057l.057.233c.231.061.349.119.349.185v.057l-.223-.057h-.061l-.065.057c0,.123-.042.185-.119.185v.1l.1-.077.046.052v.051l-.106.095h-.036v.057h-.057l-.062-.231-.277.049h-.059l-.114-.1Zm1.04.584h-.057l-.061.039h-.166l.228-.186Zm-.96.978h.173v.1h-.173Zm-.011-.5H885v.093h-.177Zm-1.046-.655h.057l.114.1h-.175Zm-1,7.326h-.057l-.05-.048-.7-.232v-.049l.41-.146h.455l-.114.146v.1Zm.173-2.109h-.113l-.057-.05v-.1h.057l.113.1Zm.117-1h-.057l.108-.144.114.088Zm.561-.7h-.118l-.125-.1h.242Zm.1-.814-.12-.136.234-.094.057.182Zm.114-.8h-.057v-.1h.176Zm.389-2.373h.182v.085h-.3Zm.29.667v.1l-.29-.144v-.05h.125c0,.068.057.1.165.1Zm-.1,2.182h-.182l-.117-.087h.3Zm.1-.667c-.106,0-.162.03-.162.093h-.124v-.046l.288-.144Zm-.227,0v-.052l.125-.155v-.1c0-.089-.084-.136-.243-.136v-.048h.3l.057.232c-.081.159-.159.24-.243.256Zm.193-1.028h-.3v-.052c.162,0,.243-.042.243-.134v-.1l-.126-.156v-.049c.085.013.163.1.243.253Zm.707,3.3H885.1v-.1l.107-.087Zm.583-1.481c0,.066-.119.129-.35.185l-.061.233v.057h.127v.047c-.121,0-.185.032-.185.1h-.114l-.052-.288.167-.147v-.088l-.28-.048h-.176l-.114-.242v-.05l.114-.095h.057l.281.05.057-.234h.057v.057h.057l.109.1v.047l-.048.05-.118-.09v.114c.08,0,.118.064.118.188l.066.057h.061l.223-.057Zm-.057-.628-.227-.184h.165l.061.039h.057Zm-.41-.62v-.048c.162,0,.245-.061.245-.185h.1c0,.14.1.269.291.377-.431-.028-.645-.077-.645-.145Zm.359-.369h-.105c0-.123-.083-.185-.245-.185v-.045c0-.066.216-.114.642-.148-.2.113-.3.24-.3.379Zm-.019-3.508h-.057V350.3c0-.141.17-.27.522-.389v.229c-.3,0-.456.07-.469.219Zm.427,2.887V353.2h.17l.061.046c0,.1.057.148.162.148v.1c-.267-.107-.4-.188-.4-.241Zm.337.436v-.045l.175-.052v.052l.068.045Zm.359-.568v-.1l.228-.05c-.006.046-.083.1-.232.146Zm.505-3.05h-.174l.114-.107h.177Zm.057-.863.118-.1h.107l-.107.1Zm.4.619-.057.137h-.165c0-.067.057-.1.165-.1v-.088h.057Zm.185-1.239h-.057c0-.1-.062-.146-.184-.146v-.147l.057-.047.185.047c.071,0,.108-.062.108-.194a.607.607,0,0,1,.356.243h-.185c-.193,0-.285.08-.285.243Z" transform="translate(-656.572 -258.856)" fill="#d60812"/>
          <path id="Path_5598" data-name="Path 5598" d="M720.491,401.137v.048l.048.048.1-.1v-.048l-.046-.048Z" transform="translate(-537.519 -299.194)" fill="#d60812"/>
          <path id="Path_5599" data-name="Path 5599" d="M724.576,397.573l.1.3.1-.1v-.251h-.149Z" transform="translate(-540.566 -296.57)" fill="#d60812"/>
          <path id="Path_5600" data-name="Path 5600" d="M740.676,400.842l-.2.147.094.1h.449v-.048l-.2-.2Z" transform="translate(-552.431 -299.045)" fill="#d60812"/>
          <path id="Path_5601" data-name="Path 5601" d="M845.187,356.248h-.049c-.057,0-.087.048-.087.144l.136-.049Z" transform="translate(-630.446 -265.776)" fill="#d60812"/>
          <path id="Path_5602" data-name="Path 5602" d="M723.494,365.718v.057l-.29-.107v.048c-.17,0-.255.036-.255.1.139,0,.207.035.207.1v.1l-.048-.048-.252.1h-.048l.048-.244v-.25l-.048-.048c-.16,0-.243-.032-.243-.1s-.216-.239-.649-.543v-.141h.107c0-.167.03-.25.1-.25,0-.227-.134-.338-.4-.338l-.1.144v.144l.047.05c.1,0,.147.033.147.1v.057l-.147.05v-.05c-.063,0-.1.1-.1.292a.34.34,0,0,1-.348-.2v-.046c0-.072.085-.109.25-.109v-.336l-.094-.1h-.057l-.049.046v-.046a.4.4,0,0,1-.341-.446l.1-.1h.046l.146.147.156-.1-.108-.3v-.048l.049-.05h-.049a.4.4,0,0,0,.155-.341h.241l.1-.107v-.145h-.045l-.246-.143-.25.048c0,.065.05.1.156.1l-.057.252h-.049c-.122-.328-.221-.492-.291-.492a.472.472,0,0,1-.253.291l.057.049v.044l-.057.049v.106l.35.1v.048c-.2,0-.292.033-.292.1v.252h-.107l-.049-.154h.049l-.095-.1h-.1v1.918l.24.25v.05h-.048l-.049-.05h-.046l-.1.1v1.086c0,.062.047.1.142.1v.047c-.1,0-.142.031-.142.1v2.905l.1.155v.145l-.1.146v.047h.349l-.349.3v.88c0,.065.063.1.191.1v.048h-.095v.35c0,.063.117.1.347.1.038.2.088.3.147.3h.3v-.3c0-.065-.1-.1-.3-.1v-.35l-.047-.048.4-.048-.047-.243c0-.129-.117-.192-.348-.192l.093-.107h.05l.049.05.1-.292V370.6l.152.048h.1c.068,0,.1-.114.1-.35h.052v.051l.095.2h.155v-.092l-.057-.052h.252l-.094.292v.048l.046.05-.254-.05h-.047l-.1.1V371a.372.372,0,0,1,.3.241c.26-.048.388-.15.388-.3v-.05l.154.05.543-.391-.107-.092.155-.3h.1l.095.394v.148h-.095v-.1h-.048a.326.326,0,0,1-.3.243v.047c0,.2.083.3.252.3v.048h-.108L722.76,371h-.193v.291h.193v.048l-.193.3c-.17,0-.25.049-.25.148h-.241c-.065,0-.117.11-.157.337l.3.057c.194-.114.292-.215.292-.3h.057l.1.1v.051h-.048l-.2.094v.2h.3v-.1l.292-.107v.155l-.052.049.159.1h.24l.293-.3v-.634l-.05-.243.05-.048v-.048H723.5l-.046.048v-.1a.656.656,0,0,0,.193-.4v-3.254l-.05-.436.05-.349v-1.137h-.1Zm-.338.745h.143c-.051.13-.1.2-.143.2Zm-.108.932.156-.147a.41.41,0,0,1,.29.3.214.214,0,0,0-.241.182.225.225,0,0,0,0,.059h-.142l-.057-.346Zm-.144-.641h.1v.147l-.1-.1Zm.144,1.137v.2h-.1l.052-.2Zm-2.063-3.248-.144.145v-.145l.047-.057h.048Zm-.3-.59.048-.156h.109l.047.049-.1.154h-.057Zm.3,7.431h-.253v-.1l.057-.048-.107-.1c.1,0,.157-.048.157-.144h.046a.492.492,0,0,0,.1.341Zm-.049-1.279v-.047h.1l.047.047v.1h-.047Zm.049-.444v-.194l.194-.146.049.048Zm.194.842-.1-.1v-.047l.194.047Zm.146-.542-.146.048-.1-.1h.243Zm.106-1.232a.653.653,0,0,0-.641.341h-.156v-.053l.156-.047h.051l-.051-.146v-.05l.051-.047h-.109v-.1h.155l.1.1.446-.1Zm-.3-1.038-.143-.142v-.1l.051.05.24-.05.108.1v.045Zm.1.591v.05l-.145-.145v-.05Zm-.192-.191v.048h-.1l-.048-.048v.048h-.047v-.048l.047-.05Zm-.05-1.132-.05.047-.145-.047v-.1l.145-.155h.05Zm.739,1.471h-.195v-.049l.143-.048h.052Zm.192-1.869h-.05v-.1l-.194.1.052.047c-.043.17-.09.254-.148.254h-.1a.55.55,0,0,0-.094-.35l.145.049c.062,0,.1-.081.1-.243l.291.047Zm.2-.447v.155l-.1-.107v-.1l.05-.046-.157-.146h-.341l-.046.146.046.193h-.25v.35h-.1v-.1l-.495.1v-.049l-.048-.048v-.049l.252-.049v.049l.291-.1-.049-.253v-.192h-.1v-.1l.243-.05v-.045h-.147l.252-.4h.193c-.052.227-.114.341-.193.341h-.047l.047.154v.048h-.106v.1h.2v-.2h.337l.049-.152h.057l.048.048.051-.291h.094v.048l-.048.243h.048l.049.057h.143v-.107h.149l-.194.4c0,.077.083.126.25.146,0,.17.032.251.1.251v.049h-.1l-.057-.049-.051.389h-.1l.052-.243v-.048l-.052-.049.052-.049v-.047l-.195-.2Zm.638,1.037v.1l-.145.048h-.048v-.147Zm-.541.5v-.1l.291-.1h.057v.05l-.153.146Zm.541,1.083h-.1v-.053a.576.576,0,0,0,.146-.348v-.05l-.3-.047v-.1l.649.1v.24l-.3.051c0,.137-.035.2-.1.2Zm.192,1.132v-.049a.227.227,0,0,0,.255-.254l.143.051v.3Zm.594,1.726v.048c0,.065-.1.113-.29.147H723.2v-.052l.143-.143Zm-.1-2.568c0-.127-.05-.193-.148-.193v-.151l.048-.048h.146v.048h-.1a.64.64,0,0,0,.193.341Z" transform="translate(-537.519 -270.383)" fill="#d60812"/>
          <path id="Path_5603" data-name="Path 5603" d="M905.031,376.255v-.1c-.015.006-.027.013-.041.018l-.047.1a.185.185,0,0,1,.088-.026" transform="translate(-675.128 -280.63)" fill="#d60812"/>
          <path id="Path_5604" data-name="Path 5604" d="M721.869,347.08v.052l.108.3-.057.048-.243-.1-.1.142c.045.2.109.295.193.295l-.144.443.194.051v.1a.45.45,0,0,0-.289.156h-.052l-.047-.3-.252.051h-.143l-.051-.051-.049.051.049.047c0,.136-.083.205-.253.205v.045l.155.149h.049l.049-.048c0,.064.051.094.143.094v.049l-.092.1.092.447c-.057,0-.086.065-.092.194h-.051v-.1l.051-.243h-.3l-.193.146c0,.2.132.317.4.348v-.107h.05v.057c-.02.129-.151.191-.4.191v-.144h-.1v.194h.1l-.1.348v.39h.192v-.048c.264-.163.4-.3.4-.4l-.1-.341h.243l.048.051c.137-.123.2-.223.2-.3h.1v.4a1.011,1.011,0,0,0,.641.349v.094l-.3.1h-.1v-.049l.047-.049-.1-.094h-.045v.193h-.1l-.1-.291.1-.106-.147-.145h-.152a.3.3,0,0,1-.2.3v.051l.051.048v.2h-.143v.25l.192-.057v-.1h-.1v-.046h.1l.25.046v-.094h.1v.145c0,.071-.046.106-.144.106v.1l.046-.049.438.1h.057l.048-.048a.257.257,0,0,0,.219.291.248.248,0,0,0,.073,0v.094c-.1,0-.146.036-.146.107v.292h-.25l-.049-.048-.1.1a.417.417,0,0,0,.254.349v.05a.391.391,0,0,1-.4-.349l-.147.048v.205c0,.063.052.1.147.1l-.049.241v.2h.5v-.107l.192.107.094-.3h.1l.051.046v-.145l.2-.049.146-.148v-.1l-.049-.048h.049l.049-.048.045.3c.139,0,.207.05.207.147h-.047l-.057.05h-.291v.19h-.4c0,.171-.063.254-.192.254l.1.288-.146.048v.057a.41.41,0,0,0,.24.437h.149l.1-.1v-.141l-.048-.049h.048l.048-.048.048.243c0,.065-.048.1-.145.1v.2l.1.1h.243c.1,0,.144-.079.144-.25h.057c0,.171.031.25.1.25h.143l.146-.1-.046-.048c0-.231.063-.349.193-.349v-2.363c0-.065-.05-.1-.147-.1v-.1h.147v-.592l-.388-.155v-.047h.047l.341.047v-1.522c-.192-.069-.293-.137-.293-.2v-.1l.1-.1c.063,0,.1.1.1.292h.1v-1.331l-.1-.1Zm-.241,1.775-.24.047h-.057v-.1l.3-.094Zm.144.146h-.1v-.146h.1Zm1.279,3.943h-.193l-.048-.145v-.051h.048l.193.1Zm-.193-4.138h.094v.1h.159l.24.049V349H723.3l-.444.2h-.048v-.155h.1Zm.193-.689c-.081,0-.165.065-.241.2-.3.012-.448.076-.448.192h-.094v-.1h.094v-.292h.149l-.051.048.108.1h.048v-.242h.436Zm-.484-.686.1.093-.1.1h-.107Zm-.205.337h.052l-.146.147h-.049Zm-.24.944.1-.1h.049l-.049.149h-.1Zm.048.685h-.094v-.146h.094Zm.1-.3h-.1v-.05l.1-.1h.049l.045.051Zm.783,2.567-.1.1-.682.145v-.145l.348-.048.2.048c.1-.025.142-.123.142-.292l.1.1Zm-.193-.493h-.1c0-.131-.034-.193-.1-.193v-.1h.048v.048Zm.049.047.045.145h-.094v-.144Zm.252-.338H723c0-.136-.082-.2-.243-.2h-.1l-.048.046-.156-.145v-.048l.051-.049a1.468,1.468,0,0,1,.649.341Zm.292,1.869h-.1l-.1-.1.1-.107h.05l.05.157Zm-.148-1.975.1.106h-.193Zm.1-1.279h.1l.05.048-.05.156h-.289l-.2.192v.051c.1,0,.155.031.155.1v.048l-.495-.145-.049.048-.253-.048v-.195l.149-.048.1.094h.292Zm0-1.579c-.063,0-.129-.13-.193-.392l.143-.045h.05l.05.045c0,.165.033.244.1.244Z" transform="translate(-537.522 -258.936)" fill="#d60812"/>
          <path id="Path_5605" data-name="Path 5605" d="M883.538,351.478h-.185l.126-.1h.1l.963-2.1-1.009-2.3H880.03l2.733,6.21Zm-.5-.8.165.057-.114.089-.107-.146Zm-1.007-1.56-.233-.1.114-.135.176.048Zm-.087-1.22v-.052l.7-.231.05-.047h.057l-.057.232v.1l.114.143h-.454Zm.8,1.83.057-.048h.117v.048l-.117.1h-.057Z" transform="translate(-656.542 -258.857)" fill="#d60812"/>
          <path id="Path_5606" data-name="Path 5606" d="M905.465,375.5v-.05l.07-.048H905.4l-.031.071Z" transform="translate(-675.446 -280.065)" fill="#d60812"/>
          <path id="Path_5607" data-name="Path 5607" d="M770.931,346.8l-.048-.051-.046.051H768.51l-.094.1v13.718l.094.1h.8v-.146h.1v.146h1.58c.063,0,.1-.05.1-.146h.095v.146h.3l.1-.1v-6.018l-.049-.048.049-.06v-1.624l-.049-.052h.049l-.049-.143.049-.2v-5.579l-.1-.1ZM769,360.166l-.095.1v-.147H769Zm0-.687h-.145v-.1H769Zm.1.589.1-.1.106.1Zm1.98-7.4v.095h-.052l-.1-.095Zm-.5,2.171.192-.1h.061l-.061.2h-.192Zm-.147,4.047h.049l.1.1h-.147Zm-.4-4.291c.2-.045.3-.131.3-.25h.049v.048l-.1.25h-.251Zm-.05,5.716h-.049l-.045-.145h.094Zm.1-.69c0,.067-.114.114-.351.147v-.045l.159-.149h.192Zm.252-.735h-.047l-.155-.154v-.05h.2Zm.192,1.328-.144.2v-.154l.1-.1h.045Zm.052-.048v-.05l.048-.049.1.1Zm.5-2.762-.4.146v-.1c.2,0,.3-.047.3-.143h.1Zm.095-.193h-.095l.047-.2h.095Zm.2-2.771h-.2v-.1h.2Zm.049-2.015c-.021.065-.1.13-.252.195h-.047v-.051a.171.171,0,0,0,.194-.144.165.165,0,0,0,0-.048h.106Zm0-1.337h-.156v-.1h.156Z" transform="translate(-573.273 -258.688)" fill="#d60812"/>
          <path id="Path_5608" data-name="Path 5608" d="M848.209,349.606A3.617,3.617,0,0,1,850,350.787l.562.939v.05l-.043.048.516.464,2.5-1.181c-.057-.154-.1-.232-.147-.232v.289l-.1-.1v-.1l.1-.136a5.3,5.3,0,0,0-1.461-2.217,6.576,6.576,0,0,0-4.186-1.648l-.1.1v2.352c0,.079.189.142.562.187m4.474,1.693c.157,0,.234-.044.234-.133l.046.036h.051l.045-.036h.1v.087l-.284.1h-.195Zm-1.648-2.778h.182v.193h-.085c0-.1-.034-.145-.1-.145Z" transform="translate(-632.382 -258.853)" fill="#d60812"/>
          <path id="Path_5609" data-name="Path 5609" d="M736.943,349.638l.144-.1.144.1h2.81c0-.1.034-.146.1-.146v.146h1.281l.106-.1v-2.364l-.106-.1h-1.774v.052l.049.044v.052h-.1l-.05-.052-.048.052v-.148h-1.228v.147l.047.048h-.047l-.049.048c-.079,0-.126-.08-.148-.243h-.635l-.057.052-.05-.052h-.837c0,.236-.048.351-.142.351h-.05v-.155l.1-.1-.1-.1h-1.184l-.108.1v.206h.108v.141h-.108v1.523l.05.05-.05.057v.388l.108.1Zm2.266-1.724.052.057c.192,0,.288-.069.288-.206h.049v.054l-.146.3h-.292Zm-.107.3v.146h-.143Zm-.193,1.183h.1v.194l-.1-.1Zm-.687-.3h.1v.154l-.147.146h-.046Zm-1.086-1.181.143.105-.1.1h-.1Zm-.1,1.086h.191l-.094.1h-.1Zm-1.385.2h-.1v-.1h.2Zm.4-1.085h.1v.1l-.1.1ZM735.9,349.3h.052l.045.049-.045.145H735.9Zm-.347-1.672h.048l.048.046-.048.146-.145-.1Zm-.194.878.047-.049a1.014,1.014,0,0,1,.445.494V349l-.143.046h-.057v-.288l-.149-.194-.044.045h-.05l-.047-.045Z" transform="translate(-548.351 -258.936)" fill="#d60812"/>
          <path id="Path_5610" data-name="Path 5610" d="M720.633,362.068l-.046-.253h-.1v.5l.1.095Z" transform="translate(-537.517 -269.929)" fill="#d60812"/>
          <path id="Path_5611" data-name="Path 5611" d="M740.936,391.492v.153l.045.05-.1.1a1.674,1.674,0,0,0-.7-.3h-.834c.039.232.12.349.243.349v.1l-.389-.192.052-.049a.3.3,0,0,0-.205-.2l-.2.107-.144-.107h-1.675l-.191.2h-.062l-.046-.05V391.6l.046-.049v-.057h-.433c-.067,0-.1.053-.1.153l-.2-.153h-.292l-.107.107v.145h.057l.048.048-.048.049c0,.128-.069.194-.207.194,0-.1-.029-.147-.095-.147l-.1.494h.191v.1c-.128,0-.191.048-.191.145l-.3.25v.4h.155v.2l-.105.141v.3l.057.048c.129,0,.194.05.194.147h.642l.1-.1v-.05h-.192v-.492c-.134,0-.2-.05-.2-.148h.153v-.106c-.167-.019-.25-.069-.25-.146v-.1a.57.57,0,0,0,.155-.348l-.057-.243.2-.1c.143.076.228.157.242.243l-.1.155v.046l.052.051-.052.047v.048a.483.483,0,0,1,.3.146v.048l-.05.048v.3l.05.051h-.155v.337l.106.107c.194,0,.291-.084.291-.251h.3v.1h.239l.144.2c-.095,0-.144.034-.144.1v.048h.689l.1-.1v-.049l-.048-.048h.048c0-.1-.048-.155-.146-.155v-.148l.347-.141a1.172,1.172,0,0,0,.546.141l-.157.3.252.2h.785v-.146h.146l.048.049v-.049h.106v.049l-.2.049v.048h1.975l.1-.1v-.639l-.1-.155.1-.146v-.048l-.05-.048.05-.05v-.638h-.05l-.2.146h-.052l.3-.447V391.6l-.1-.107Zm-2.966.2h.1l.051.049v.048l-.155-.048Zm-.59.1.1-.1v.193h-.1Zm.347,1.328-.049.048-.447-.387h-.191l-.1.1-.3-.25v-.049l.143.107.205-.057.341.154h.108l.145-.2-.05.251c0,.163.065.243.195.243Zm.495-.243-.051.048v.05l.051.048v.049c-.2-.079-.3-.143-.3-.2h.155v-.048l-.046-.047v-.3h.1l.1.1c-.086,0-.133.083-.148.251Zm.1-.785-.1-.107h.191Zm.688-.25h.048l.047.143-.1.107Zm-.193.394.046-.045h.1v.045c-.065,0-.1.051-.1.148h-.045Zm.288,1.571a.691.691,0,0,1-.387-.292v-.734h.1v.242l.193.194-.1.2.193.341Zm0-1.023h-.047l-.048-.155v-.05h.048l.047.154Zm0-.251h.057l.145-.146v.193l-.2.05Zm.3.745-.1.1h-.045l.045-.252v-.146h.1Zm.292-.3h-.1l-.05-.05v-.1h.05l.1.1Zm.7.193-.049.048-.155-.048c0-.13-.032-.193-.1-.193l-.049-.05-.046-.048h.094l.3.2Zm.2-.542h-.05l-.049-.243v-.1h.1l.047.048Zm.891,0,.048.2-.048.048-.057-.048-.2.048.049.243v.154c-.1,0-.146.034-.146.1h-.1l.194-.3a1.118,1.118,0,0,1-.144-.494l.1-.1h.047v.1l-.047.05.047.057Z" transform="translate(-548.351 -292.068)" fill="#d60812"/>
          <path id="Path_5612" data-name="Path 5612" d="M813.563,402.9l-.108.1.108.1h.242l.1-.1-.1-.1Z" transform="translate(-606.874 -300.583)" fill="#d60812"/>
          <path id="Path_5613" data-name="Path 5613" d="M790.289,360.119h-.049l-.154.1v-.145l.154-.155c-.1-.455-.2-.688-.3-.688H789.7v-.048c0-.063.1-.127.292-.193l-.292-1.53H789.6v.1h-.35V357.5l.048-.048v-.1c-.073-.138-.151-.2-.243-.2l.194-.242.243.048h.107c-.073-.724-.171-1.086-.3-1.086l-.3.048h-.048l.048-.2h.057l.048.057h.195l.048-.057c-.482-1.014-1.011-1.522-1.578-1.522v-.048c.391-.071.589-.187.589-.348l.095.1a3.216,3.216,0,0,0,1.689-3.11,3.459,3.459,0,0,0-1.385-3h-.242q0-.688-2.966-.841h-2.665l-.094.1v2.421l.094.093h1.535c.818.009,1.228.042,1.228.1.81,0,1.268.477,1.388,1.433v.4q0,1.721-2.915,1.721h-1.235l-.094.1v1.231l.049.048.142-.048h.052v.094c-.163,0-.243.036-.243.108v.929l.094.108h.149l.843-.057v-.146c.129,0,.193-.031.193-.1h.1v.1h-.1v.146a4.93,4.93,0,0,1,1.578.2,1.655,1.655,0,0,1,.8.988,10.1,10.1,0,0,0,.543,2.615l-.05.143q.426,1.184.59,1.182h.788c.063,0,.094-.079.094-.242h.443l.049-.048-.049-.3c0-.091.248-.189.749-.3v.251l-.2.048-.243-.048-.153.2.057.2v.146l-.25-.05h-.1l-.049.05.1.1h.844c.032-.361.094-.542.194-.542v.144l-.1.4h.788l.2-.2a1.567,1.567,0,0,0-.4-.545m-1.775-10.259h.049l-.11.1h-.046Zm-4.447,3.449h.1v.194h-.145Zm-.5.1h.051l.3.1-.143.2v.047l.046.05h-.2v-.146l.049-.048-.1-.107Zm.641,1.385h-.437l-.3-.155v-.046l.2-.048c0,.1.034.154.106.154h.435Zm.447.1h-.292l-.1-.1.29-.047.1.1Zm.4-.493-.1.1h-.1l-.048-.147V354.3l.243.047Zm1.037-.688H786c0-.137-.049-.2-.146-.2h-.2l-.145.107a.391.391,0,0,1-.3.388h-.145l.1-.29v-.049l-.048-.048h.145a1.322,1.322,0,0,1,.65-.252l.048.048H786l.048-.048-.1-.145h.146l.049.048c0,.13.032.2.095.2Zm.447,1.628-.1.144.1.4v.146h-.1l-.155-.739h.253ZM789,356.818v-.3h.057l.048.145c0,.105-.036.156-.106.156Zm-.149-1.241H789v.1l-.149-.048Zm.05.542.1.1.251-.048h.146v.4l-.291-.192h-.048l-.057.046-.194-.144Zm-.095,2.221H789v.106h-.194Zm-.049-.979h-.1c.013-.072.092-.139.241-.2h.05v.1Zm-.243-.5h.243v.05l-.243.048Zm-.4-.106-.1.106h-.057l.109-.106Zm.292.8-.094.1h-.1l-.1-.1v-.05Zm-.59-1.137.2-.2v.106l-.155.147h-.047Zm-.146-4.293h.1l-.048.292h-.049l-.046-.146Zm-.252,5.921V358l.106-.1v.145Zm.057.5v.095h-.1l-.1-.095Zm-.155-5.233h.1v.4h-.1Zm-.493-.592v.094l0,0h.391l-.1.094h-.194l-.1-.094h0v0l-.1-.094Zm.493,2.171v.048l-.193.1v-.1l.046-.048Zm-.59-.8h.1l.2.107c0,.128.03.2.1.2v.1l-.494-.194Zm.3,2.279v.046l-.048.2h-.05v-.051l.05-.191Zm.1,2.072-.1.1c-.065,0-.119-.1-.153-.3h.1l.145.146Zm.146-1.194c0,.135.047.2.144.2v.1h-.1l-.193-.3Zm.1,2.663-.1-.1h.047l.1.1Zm-.2-.688.1-.1h.144l.057.049a.611.611,0,0,0,.543.352v.143l-.446-.143a.555.555,0,0,0-.4-.3Zm.94,1.337-.251.049h-.047V360.5l.2-.1h.1Zm.146-2.121-.191.1h-.05l-.057-.2h.3Zm.252,1.675h-.2v-.048l.094-.155v-.045l-.049-.052c.062,0,.095-.064.095-.191h.061Zm-.156-2.217-.045-.057h-.352v-.051l.109-.094.143.094a.57.57,0,0,0,.35-.144h.049l.048.049c0,.067-.1.132-.3.206Zm.7,1.228h-.105c-.228-.136-.341-.235-.341-.3h.1c.232.119.347.2.347.252Zm.242.293-.1-.1h.194Zm.641.3h-.2v-.094h.2Z" transform="translate(-583.996 -258.836)" fill="#d60812"/>
          <path id="Path_5614" data-name="Path 5614" d="M850.54,377.054v-.033l-.047-.049.047-.046v-.649l-.047-.341h-.05l-.048.047h-.107L850,375.79l-.143.1c-.1,0-.156.067-.156.193h-.049l-.048-.045c0-.1-.054-.148-.157-.148-.088,0-.173-.148-.252-.443V375.4c.137,0,.206.063.206.194h.3v.1h.3a.874.874,0,0,0,.544.252v-.892h-.1l-.048.155-.4-.108v-.048l.048-.048.243.048h.049V375l-.1-.1h-1.972l-.049.049-.052-.049h-.045l-.11.1-.25-.068v.776l.107.038h.049l.049-.057v.105h-.205v1.678h.01l.195-.057.2.057h.3l.045-.057.049.057h.35l.049-.057.048.057h.6l.347-.057v.057h.1l.1-.107.352.048.034-.236-.016-.084Zm-2.376-.332-.155-.049v-.2l.257-.048Zm.642.54-.2.1v-.1c.071,0,.11-.046.11-.145h.094Zm0-.192h-.052l-.152-.348v-.1h.11c0,.1.029.146.094.146Zm0-.688h-.052v-.2h.052Zm.049-.3h-.1l-.043-.193h.144l.1.1Zm.288-.59c-.228-.107-.338-.189-.338-.24a.129.129,0,0,0-.146.111.138.138,0,0,0,0,.035.564.564,0,0,0-.349-.194l.1-.108h.3a.546.546,0,0,0,.432.3Zm.6,1.037-.048-.249h.1l.107.1Z" transform="translate(-632.466 -279.69)" fill="#d60812"/>
          <path id="Path_5615" data-name="Path 5615" d="M735.229,370.012l-.05-.147v-.047l.05-.057-.05-.049.146.049h.049l.047-.049c.095,0,.147.036.147.107v.241l-.052.048h-.046l-.05-.048h-.047l-.049.145.049.05v.048h-.244v.107h.29c.162,0,.243-.051.243-.155v-.05l.153.05.1-.146h.052c.063.2.126.3.192.3h1.29l.387-.107.094.107h.353l.191-.057.2.057h.292l.048-.057.049.057h.348l.048-.057.048.057h.59l.35-.057v.057h.1l.1-.107.347.048.049-.341v-.048l-.049-.048.049-.05v-.648l-.049-.341h-.045l-.052.048h-.106l-.289-.192-.145.094c-.106,0-.155.068-.155.2h-.05l-.048-.047a.129.129,0,0,0-.109-.147.133.133,0,0,0-.036,0q-.135,0-.25-.443v-.048c.135,0,.2.064.2.193h.293v.1h.3a.836.836,0,0,0,.542.252v-.891h-.094l-.052.154-.4-.107v-.048l.049-.049.241.049h.048v-.049l-.1-.093H738.77l-.046.046-.049-.046h-.046l-.109.093-.386-.093h-.843l-.24.046-.144-.046h-.155l-.051.046v-.046l-.242.046h-.394l-.245-.046-.047.046h-.048l-.057-.046h-.048v.093l.25.255-.143.144h-.057l-.048-.048-.049.048h-.1l.045-.048c-.089-.3-.236-.444-.443-.444v.093l.057.049-.057.048v.157l.3.288v.049a.559.559,0,0,0-.095.4h-.052c-.032-.264-.086-.4-.155-.4h-.05v1.036l.05.048-.05.048v.591h.108Zm5.067-.8.107.106-.156.147-.047-.252Zm-.979.987-.2.1v-.1c.071,0,.107-.046.107-.144h.1Zm0-.192h-.045l-.158-.349v-.1h.107c0,.1.033.146.1.146Zm0-.689h-.045v-.2h.045Zm.05-.3h-.095l-.052-.2h.146l.1.1Zm-.446-.988h.3a.559.559,0,0,0,.438.3v.1c-.227-.114-.341-.19-.341-.242a.126.126,0,0,0-.145.1.129.129,0,0,0,0,.039.569.569,0,0,0-.347-.2Zm-.4,1.385.25-.047-.1.29-.155-.048Zm-.289-.8.146.057h.045l.05-.057v.108h-.241Zm-.4,1.434.2.048v.053l-.156.046h-.048Zm-.929-1.58h-.11v-.144l.11.1Zm-.048-.493.143-.049h.048v.1l-.144.057h-.048Zm-.2.048.1-.1h.046v.1l-.143.057Zm0,.7.2.094-.108.1H736.7l-.046-.146Zm-.047.589v.147h.093l.051-.05.046.2-.046-.048c-.163.046-.245.094-.245.146-.129-.048-.192-.094-.192-.146l.241-.1-.1-.147Zm-.639-.889.1.1v.1h.045v-.1c.138,0,.2-.034.2-.1h.05v.046l-.255.348a.412.412,0,0,1-.242-.394Zm-.35.492c.075,0,.208.1.4.291l-.045.252h-.1v-.348q-.143,0-.143-.1h-.107Zm-.048.688.25-.1h.048v.1l-.25.048h-.049Z" transform="translate(-548.362 -274.425)" fill="#d60812"/>
          <path id="Path_5616" data-name="Path 5616" d="M720.885,348.314v-.341l-.3-.057.143-.194h.057l.051.047c.063-.013.126-.092.195-.244l.192.053.2-.1c0-.1.047-.155.144-.155v-.1l-.1-.147c-.133.02-.2.07-.2.147h-.048v-.148h-.688l-.047.052.047.347-.047.437v.54h.192c0-.094.071-.141.2-.141" transform="translate(-537.517 -258.936)" fill="#d60812"/>
          <path id="Path_5617" data-name="Path 5617" d="M735.223,393.745l-.1-.108h-.108v.3h.2Z" transform="translate(-548.356 -293.67)" fill="#d60812"/>
          <path id="Path_5618" data-name="Path 5618" d="M620.687,362.068l-.047-.253h-.1v.5l.1.095Z" transform="translate(-462.954 -269.929)" fill="#d60812"/>
          <path id="Path_5619" data-name="Path 5619" d="M620.936,348.314v-.341l-.3-.057.146-.194h.057l.05.047c.064-.013.127-.092.192-.244l.194.053.2-.1c0-.1.048-.155.146-.155v-.1l-.1-.147c-.135.02-.2.07-.2.147h-.051v-.148h-.687l-.048.052.048.347-.048.437v.54h.192c0-.094.068-.141.2-.141" transform="translate(-462.951 -258.936)" fill="#d60812"/>
          <path id="Path_5620" data-name="Path 5620" d="M635.275,393.745l-.1-.108h-.105v.3h.2Z" transform="translate(-473.791 -293.67)" fill="#d60812"/>
          <path id="Path_5621" data-name="Path 5621" d="M635.28,370.011l-.051-.147v-.046l.051-.057-.051-.048.146.048h.049l.049-.048c.1,0,.146.036.146.107v.241l-.049.048h-.048l-.048-.048h-.049l-.049.144.049.05v.048h-.243v.107h.292c.162,0,.243-.051.243-.155v-.05l.156.05.1-.145h.049c.062.2.129.3.191.3h1.29l.386-.107.1.107h.35l.194-.057.2.057h.292l.048-.057.048.057h.348l.049-.057.05.057h.591l.347-.057v.057h.1l.1-.107.348.048.05-.341v-.048l-.05-.048.05-.05v-.648l-.05-.341h-.05l-.046.049h-.108l-.292-.192-.146.095c-.1,0-.153.068-.153.195H640.2l-.046-.047a.13.13,0,0,0-.109-.148.124.124,0,0,0-.037,0q-.136,0-.253-.443v-.048q.2,0,.2.193h.292v.1h.3a.848.848,0,0,0,.544.252v-.891h-.1l-.046.154-.4-.107v-.048l.048-.05.243.05h.048v-.05l-.1-.093h-1.967l-.049.046-.048-.046h-.047l-.106.093-.388-.093h-.843l-.243.046-.143-.046H636.8l-.045.046v-.046l-.243.046h-.4l-.241-.046-.049.046h-.048l-.057-.046h-.049v.093l.253.255-.146.144h-.057l-.048-.048-.049.048h-.1l.048-.048c-.09-.3-.238-.444-.444-.444v.093l.057.05-.057.048v.157l.3.288v.049a.581.581,0,0,0-.1.4h-.046c-.034-.264-.084-.4-.155-.4h-.049v1.036l.049.048-.049.048v.591h.105Zm5.068-.8.1.106-.156.147-.046-.253Zm-.978.987-.207.1v-.1c.073,0,.109-.046.109-.144h.1Zm0-.192h-.049l-.157-.349v-.1h.109c0,.1.031.146.1.146Zm0-.689h-.049v-.2h.049Zm.05-.3h-.1l-.048-.2h.146l.094.1Zm-.448-.988h.3a.556.556,0,0,0,.434.3v.1c-.223-.113-.337-.19-.337-.242a.127.127,0,0,0-.146.144.568.568,0,0,0-.348-.195Zm-.4,1.385.25-.046-.1.29-.153-.048Zm-.292-.8.146.057h.047l.05-.057v.108h-.243Zm-.4,1.434.2.048v.054l-.156.046h-.048Zm-.928-1.58h-.11v-.144l.11.1Zm-.05-.493.146-.05h.049v.1l-.143.057h-.051Zm-.2.048.091-.1h.049v.1l-.141.057Zm0,.7.2.094-.108.1h-.046l-.046-.146Zm-.052.589v.147h.1l.046-.05.049.2-.049-.048c-.16.046-.24.094-.24.146-.13-.048-.192-.094-.192-.146l.239-.1-.1-.147Zm-.638-.889.095.1v.1h.048v-.1c.136,0,.206-.034.206-.1h.046v.046l-.252.348a.413.413,0,0,1-.241-.394Zm-.35.492c.075,0,.212.1.4.291l-.048.252h-.1v-.348c-.1,0-.146-.032-.146-.1h-.105Zm-.049.688.253-.1h.048v.1l-.252.048h-.049Z" transform="translate(-473.796 -274.424)" fill="#d60812"/>
          <path id="Path_5622" data-name="Path 5622" d="M637,349.638l.148-.1.144.1h2.81q0-.145.095-.146v.146h1.281l.106-.1v-2.364l-.106-.1H639.7v.052l.049.044v.052h-.1l-.048-.052-.046.052v-.148h-1.232v.147l.046.048h-.046l-.048.048c-.078,0-.126-.08-.146-.243h-.639l-.057.052-.048-.052h-.834c0,.236-.048.351-.146.351h-.046v-.155l.095-.1-.095-.1h-1.185l-.105.1v.206h.105v.141h-.105v1.523l.049.05-.049.057v.388l.105.1Zm2.269-1.724.048.057c.192,0,.289-.069.289-.206h.048v.054l-.145.3h-.289Zm-.109.3v.146h-.141Zm-.192,1.183h.1v.194l-.1-.1Zm-.688-.3h.095v.154l-.143.146h-.048Zm-1.086-1.181.147.105-.1.1h-.1Zm-.1,1.086h.195l-.1.1h-.1Zm-1.385.2h-.1v-.1h.2Zm.4-1.085h.1v.1l-.1.1Zm-.143,1.182h.049l.048.049-.048.145h-.049Zm-.35-1.672h.049l.048.046-.048.146-.146-.1Zm-.194.878.049-.049a1.013,1.013,0,0,1,.446.494V349l-.146.046h-.057v-.288l-.146-.194-.048.045h-.048l-.049-.045Z" transform="translate(-473.791 -258.936)" fill="#d60812"/>
          <path id="Path_5623" data-name="Path 5623" d="M620.542,401.137v.048l.048.048.1-.1v-.048l-.047-.048Z" transform="translate(-462.952 -299.194)" fill="#d60812"/>
          <path id="Path_5624" data-name="Path 5624" d="M624.621,397.573l.1.3.1-.1v-.251h-.143Z" transform="translate(-465.995 -296.57)" fill="#d60812"/>
          <path id="Path_5625" data-name="Path 5625" d="M944.219,346.96h-.11l-.143.094h-.05v-.046l.1-.145v-.053h-1.241l-.048.052-.047-.052h-1.29l-.1.1v.844h.3v.047l-.05.05v.1l.1.153v.053l-.152-.1h-.1l-.1.1v3.707l.146-.046.106.1v.1h-.252v2.723l.1.105h.1l.106-.5-.05-.057c.159-.046.241-.108.241-.193h.052v.145l-.1.156v.288l.1.155-.1.147c-.3,0-.449.031-.449.1v4.95h.1l.05-.242v-.155l.25.057v-.156l.1.1v.057c-.129,0-.293.279-.493.832v.107l.146.147h.648l.194-.048.2.048h.242c.4,0,.6-.048.6-.147h.292c0,.1.034.147.1.147h.2c.063,0,.1-.048.1-.147h.047l.2.147h.1l.1-.1v-5.555l-.241.05c-.088.266-.156.4-.205.4h-.1c0-.16-.047-.241-.144-.241v-.251h.241a.754.754,0,0,0,.251-.591h.145v.046l-.048.048h.1v-.444l-.2-.194v-.047l.051-.057h.046l.048.057h.05v-6.634l-.144-.051c0-.167-.035-.25-.1-.25m-1.1,7.032.048-.049.4.049-.146.145-.252-.048-.048.048Zm.449,1.242h.095v.048h-.048l-.047-.048v0l-.146-.152v-.1h.292l-.146.192v.06Zm.143,1.279v.154h-.048l-.1-.1v-.152h.049Zm-.2.2a.326.326,0,0,1-.194.3v-.1l.1-.242h.052Zm-.444-1.985.25-.05v.05c0,.057-.1.107-.3.156l-.1-.156v-.447h.1l-.049.25v.048Zm-.048,2.528v-.046l.048-.049.1.1Zm.143,1.19-.1.1h-.048l-.1-.1v-.156h.049C942.979,358.4,943.041,358.449,943.169,358.449Zm-.4-8.168.05-.057-.05-.047v-.049h.05l.106.1v.107l-.156.048Zm.108,6.289h-.3v-.107h.3Zm-.554.194h.106c0,.052-.065.1-.2.147h-.046Zm-.195-.446v-.144l.1.1v.046Zm.195-.3h-.047l-.049.049a.507.507,0,0,0-.1-.341v-.047h.148l.253.338v.156Zm.048-4.6-.144-.243v-.057h.049l.349.3Zm-.048-2.083.048-.05-.048-.047h.106l.05.047.05-.047h.046l.145.156v.048h-.141l-.252.048Zm-.241-2.373h.046v.094l-.094.107h-.107Zm-.3.589h.348v.153l-.046.05-.447-.05Zm-.044,1.189h.191l.107.253v.049h-.048l-.25-.1v-.057l.044-.048v-.049Zm-.147.35-.106.1-.049-.244h.156Zm.046,1.132v-.1h.2c.164,0,.25.051.25.153h.1l.1-.1v-.243l-.049-.047h-.049l-.05.047v-.3l.147-.045c0,.227.068.346.2.346l.1.29c-.231,0-.348.1-.348.3a.364.364,0,0,0,.348.254v.048h-.252c-.2-.4-.422-.6-.688-.6Zm.4,5.011v.048l-.107.1h-.048v-.048l.107-.1Zm-.3,4.154v-.046l.1-.1h.094v.144Zm.492.992c-.011.068-.093.138-.241.2l-.057-.155.107-.1h.193Zm-.048-2.918-.145-.106.145-.341h.048c0,.114.117.209.348.293v.048Zm.7,2.772h-.057c0-.118-.114-.218-.341-.3l.1-.1.146.1h.444l.1.1a.673.673,0,0,0-.388.207Zm.989.1h-.049v-.3l.1-.1.049.206Zm.047-.941h-.047l-.049-.046h-.046c0,.062-.086.128-.255.191l-.25-.093v-.052c.071,0,.1-.046.1-.144l.292.05c.1,0,.155-.1.155-.3a.27.27,0,0,1,.194.2c-.063,0-.092.07-.1.2Zm.192.689-.1.105v-.045l.1-.108Zm-.049-1.434.158.1v.057l-.057.049-.146-.049v-.156Zm-.047-1.24v.156l-.1.1h-.047c-.331-.063-.5-.131-.5-.193h.4Zm-.194-3.12h-.252v-.048l.049-.051c.1,0,.156-.029.156-.095v-.147l-.06-.047h.107Zm.444-2.77v-.1h.051l.094.1Z" transform="translate(-702.244 -258.735)" fill="#d60812"/>
          <path id="Path_5626" data-name="Path 5626" d="M960.218,357.26v.054h.1v-.148Z" transform="translate(-716.365 -266.461)" fill="#d60812"/>
          <path id="Path_5627" data-name="Path 5627" d="M962.056,348.344V348.3l-.05.048a4.97,4.97,0,0,0-4.058-1.535h-2.133l-.095.1v2.371l.095.109h.444l.206-.156h.094v.047l-.046.051v.057l.251.048.337-.157v.051l.05.057.5-.057c.2,0,.292.035.292.107a1.733,1.733,0,0,1,1.784,1.629v5.067a1.933,1.933,0,0,1-1.484,1.976l.047.156v.046h-.143a.718.718,0,0,0-.447-.153h-1.889l-.095.107v.939l.095.1-.095.147v1.241l.095.1h1.146q3.476,0,4.5-1.086l-.049-.157.049-.146h.1v.1h.051l.347-.289-.049-.155V359h.1a4.2,4.2,0,0,0,.892-2.77v-5.006a5.066,5.066,0,0,0-.892-2.83Zm-5,.746-.048.05-.1-.1h.146Zm-.447,10.066-.048.049c-.3-.1-.443-.246-.443-.447h-.3v-.048c0-.057.1-.125.3-.2v.047l.143-.047.156.144-.1.107c0,.228.1.341.292.341Zm.493.291h-.095V359.3h.095Zm-.4-.845c.051-.13.1-.192.157-.192h.1l.047.048c.051.13.1.193.145.193v.057l-.051.048Zm.555,1.1-.108.1v-.148h.108Zm.24-.157h-.24v-.048h.24Zm.447-.542-.1-.192v-.1h.192l.109.243Zm2.182-8.781h-.1l-.047-.29h.194l-.1.195v.048Zm.989.156-.049.051-.1-.1h.145Zm.652,6.058h-.052v-.109h-.3v-.1h.2l.156.1Z" transform="translate(-713.01 -258.734)" fill="#d60812"/>
          <path id="Path_5628" data-name="Path 5628" d="M1037.341,402.9l-.106.1.106.1h.246l.1-.1-.1-.1Z" transform="translate(-773.824 -300.583)" fill="#d60812"/>
          <path id="Path_5629" data-name="Path 5629" d="M994.7,346.8l-.045-.051-.052.051h-2.324l-.1.1v13.718l.1.1h.793v-.146h.1v.146h1.576c.065,0,.1-.05.1-.146h.1v.146h.3l.095-.1v-6.018l-.048-.048.048-.06v-1.624l-.048-.052h.048l-.048-.143.048-.2v-5.579l-.095-.1Zm-1.926,13.368-.1.1v-.147h.1Zm0-.687h-.147v-.1h.147Zm.1.589.1-.1.106.1Zm1.975-7.4v.095H994.8l-.1-.095Zm-.5,2.171.194-.1h.057l-.057.2h-.194Zm-.147,4.047h.048l.1.1h-.147Zm-.4-4.291c.2-.045.3-.131.3-.25h.048v.048l-.1.25h-.253Zm-.048,5.716h-.049l-.048-.145h.1Zm.1-.69c0,.067-.119.114-.35.147v-.045l.154-.149h.2Zm.25-.735h-.049l-.157-.154v-.05h.205Zm.194,1.328-.145.2v-.154l.1-.1h.05Zm.05-.048v-.05l.048-.048.094.1Zm.493-2.762-.4.146v-.1c.2,0,.3-.047.3-.143h.1Zm.1-.193h-.1l.048-.2h.1Zm.2-2.771h-.2v-.1h.2Zm.048-2.015c-.022.065-.1.13-.252.194H994.9v-.051a.17.17,0,0,0,.195-.142.179.179,0,0,0,0-.05h.106Zm0-1.337h-.155v-.1h.155Z" transform="translate(-740.214 -258.688)" fill="#d60812"/>
          <path id="Path_5630" data-name="Path 5630" d="M979.475,350.049h.047c0,.1.031.147.1.147h.1v-.147c-.1,0-.146-.032-.146-.1h-.1l-.146.192h.146Z" transform="translate(-730.623 -261.08)" fill="#d60812"/>
          <path id="Path_5631" data-name="Path 5631" d="M963.827,345.448l-.1.2v.057l.349-.252Z" transform="translate(-718.986 -257.719)" fill="#d60812"/>
          <path id="Path_5632" data-name="Path 5632" d="M1014.067,360.119h-.047l-.156.1v-.145l.156-.155c-.1-.455-.205-.688-.3-.688h-.239v-.048c0-.063.095-.127.288-.193l-.288-1.53h-.1v.1h-.348V357.5l.05-.048v-.1c-.071-.138-.151-.2-.242-.2l.193-.243.244.048h.1c-.068-.724-.171-1.086-.3-1.086l-.3.048h-.05l.05-.2h.057l.047.057h.2l.047-.057q-.728-1.52-1.578-1.522v-.048c.394-.071.59-.187.59-.348l.1.1a3.211,3.211,0,0,0,1.686-3.11,3.46,3.46,0,0,0-1.383-3h-.243q0-.688-2.964-.841h-2.665l-.1.1v2.421l.1.093h1.531c.818.009,1.229.042,1.229.1q1.212,0,1.386,1.433v.4q0,1.721-2.916,1.721h-1.23l-.1.1v1.231l.048.048.145-.048h.047v.094c-.16,0-.241.036-.241.108v.929l.1.108h.145l.843-.057v-.146c.128,0,.193-.031.193-.1h.1v.1h-.1v.146a4.947,4.947,0,0,1,1.58.2,1.656,1.656,0,0,1,.8.988,10.337,10.337,0,0,0,.543,2.615l-.048.143q.427,1.184.592,1.182h.784c.063,0,.1-.079.1-.242h.443l.052-.048-.052-.3c0-.091.25-.189.746-.3v.251l-.2.048-.243-.048-.156.2.057.2v.146l-.252-.05h-.095l-.05.05.1.1h.841c.034-.361.1-.542.2-.542v.144l-.1.4h.782l.2-.2a1.548,1.548,0,0,0-.4-.545m-1.772-10.259h.049l-.106.1h-.049Zm-4.448,3.449h.1v.194h-.145Zm-.492.1h.048l.3.1-.148.2v.047l.048.05h-.2v-.146l.048-.048-.1-.107Zm.636,1.385h-.437l-.3-.155v-.046l.195-.048c0,.1.034.154.105.154h.437Zm.447.1h-.291l-.1-.1.288-.047.1.1Zm.4-.493-.094.1h-.1l-.048-.147V354.3l.242.047Zm1.038-.688h-.1c0-.137-.049-.2-.146-.2h-.2l-.144.107a.4.4,0,0,1-.3.388h-.147l.1-.29v-.049l-.046-.048h.141a1.326,1.326,0,0,1,.651-.252l.049.048h.049l.047-.048-.1-.145h.146l.048.048c0,.13.032.2.1.2Zm.443,1.628-.1.144.1.4v.146h-.1l-.153-.739h.25Zm2.462,1.482v-.3h.057l.046.145c0,.105-.031.156-.1.156Zm-.146-1.241h.146v.1l-.146-.048Zm.052.542.1.1.252-.048h.146v.4l-.293-.192h-.046l-.057.046-.194-.144Zm-.1,2.221h.194v.106h-.194Zm-.047-.979h-.1c.012-.072.093-.139.243-.2h.045v.1Zm-.243-.5h.243v.05l-.243.048Zm-.4-.106-.1.106h-.057l.105-.106Zm.289.8-.1.1h-.1l-.094-.1v-.05Zm-.592-1.137.2-.2v.106l-.155.147h-.048Zm-.145-4.293h.1l-.047.292h-.049l-.048-.146Zm-.25,5.921V358l.106-.1v.145Zm.057.5v.095h-.107l-.094-.095Zm-.152-5.233h.1v.4h-.1Zm-.5-.592v.094l0,0h.39l-.1.094h-.192l-.1-.094h0v0l-.1-.094Zm.5,2.171v.048l-.2.1v-.1l.049-.048Zm-.594-.8h.1l.2.107c0,.128.032.2.095.2v.1l-.492-.194Zm.3,2.279v.046l-.048.2h-.049v-.051l.049-.192Zm.095,2.072-.095.1c-.065,0-.117-.1-.155-.3h.106l.144.146Zm.149-1.194c0,.135.05.2.147.2v.1h-.1l-.2-.3Zm.094,2.663-.094-.1h.05l.1.1Zm-.194-.688.1-.1h.147l.057.049a.615.615,0,0,0,.544.351v.143l-.447-.143a.561.561,0,0,0-.4-.3Zm.943,1.337-.253.049h-.049V360.5l.2-.1h.1Zm.145-2.121-.2.1h-.052l-.057-.2h.3Zm.25,1.675h-.2v-.048l.1-.155v-.045l-.05-.052c.063,0,.1-.064.1-.192h.057Zm-.156-2.217-.047-.057h-.351v-.051l.105-.094.145.094a.569.569,0,0,0,.35-.144h.048l.048.049c0,.067-.1.132-.3.206Zm.7,1.228h-.108c-.228-.136-.337-.235-.337-.3h.1c.232.119.347.2.347.252Zm.243.293-.1-.1h.194Zm.637.3h-.192v-.094h.192Z" transform="translate(-750.945 -258.836)" fill="#d60812"/>
          <path id="Path_5633" data-name="Path 5633" d="M1065.4,354.678h.057l.094-.1c.362-.089.544-.176.544-.252v-.049l.435.049q0-.338.3-.338c0-.1.032-.146.1-.146l-1.675-2.856h-.1v3.446h.047Z" transform="translate(-794.658 -261.852)" fill="#d60812"/>
          <path id="Path_5634" data-name="Path 5634" d="M1120.6,347.08h-3.207v13.9h3.177Z" transform="translate(-833.624 -258.936)" fill="#d60812"/>
          <path id="Path_5635" data-name="Path 5635" d="M1076.094,369.737h.048a.328.328,0,0,0-.2-.341h-.1a.341.341,0,0,0,.243.341" transform="translate(-802.632 -275.585)" fill="#d60812"/>
          <path id="Path_5636" data-name="Path 5636" d="M1044.7,346.973l-.1.1v7.953l.146.243-.048.145v.05l.048.057h-.146v.389l.1.106h.144l.06-.057c0,.359.062.542.192.542l-.049.2.1.1h.348v.1c.128,0,.195.03.195.1h-.4l-.243.057v-.057l-.3-.1h-.048l-.1.1v1.881h.1v-.243h.1l.108.29.242.1.049.049h-.148l-.143-.094h-.2l-.1.094v.35l.049.049c.1,0,.146.051.146.153l-.194.292v.447h.1v.241l-.1.155v.049l.1.1h.2v-.1h-.108v-.049h.3v.147h.594v-.243h.045l.3.243h.241c.063,0,.1-.048.1-.147h.3c0,.1.033.147.1.147h.349l.095-.1.147.1h.3l.1-.1v-.4h-.145c0,.132-.1.195-.3.195h-.047l.047-.144-.241-.291V360.1l.29.254h.108l.144-.147v-.048l-.048-.252c-.2-.044-.3-.094-.3-.146v-.05l.3.147c.064,0,.1.079.1.241h.1v-1.376l-.144.048-.1-.1c.1,0,.18-.067.243-.2v-2.17h-.1v.195h-.251l.348-.389v-.59a.415.415,0,0,0-.348-.251c0-.065.05-.1.155-.1v-.252l-.1-.1h-.3v.3c0,.064.047.1.144.1l-.1.146a.471.471,0,0,0-.4-.243v-.1h-.291l-.047-.048.094-.155.148.1h.249c.065,0,.1-.1.1-.292.129,0,.193-.066.193-.2l.25.154h.243v-6.173l-.05-.049-.444.241h-.05l.255-.192-.3-.447h.047l.05-.048h.047v.1c.17.117.253.219.253.3h.1l.1-.107v-1.133l-.1-.1Zm2.773,10.91h.144l-.049.2h-.155Zm-.108-2.266.3-.05v.147h-.3Zm.252-1.736.048.251-.192.049v-.049l.1-.251Zm-.252-1.181h.049l.1.3-.045.145h-.108Zm-1.232-5.135h.05l.1.1v.047h-.1l-.05-.047Zm-.25,7.159h.1l.052.145v.048h-.155Zm-.293-7.606.1.1-.146.057h-.048Zm.1,7.306v.2l-.1-.1v-.1Zm-.845-5.622h.06l.094.1v.052l-.046.047-.109-.1Zm.251,5.379v.243h-.1v-.244Zm-.4.445c.266.046.4.114.4.195h-.143Zm.446,1.087a.4.4,0,0,0-.3-.2v-.057a.493.493,0,0,0,.3-.145h.049l.143.251-.143.147Zm.3.59h-.048l-.108-.1v-.048l.108-.252h.145l.243-.05v-.1l-.146-.144.049-.3h.1c0,.065.05.1.155.1v.049h-.108v.057l.049.242c.2.065.3.128.3.2v.057l-.2-.057h-.045l-.057.057c0,.13-.034.194-.1.194v.292h-.052l-.045-.242Zm.739.446h-.05l-.046.049h-.146l.191-.2Zm-1.184.988h-.046c0-.1-.052-.147-.156-.147v-.153l.047-.049.154.049c.066,0,.1-.065.1-.2a.528.528,0,0,1,.3.241h-.156c-.158,0-.24.083-.24.255Zm.544.832-.1.107h-.155l.107-.107Zm-.145,2.025-.107-.145.2-.1.048.191Zm.1-.832h-.048v-.1h.146Zm0-1.976.1-.1h.1l-.1.1Zm.146.784c0-.064.049-.1.146-.1v-.1h.048v.048l-.048.145Zm.347,1.688h-.152l-.1-.1h.252Zm.1-.7c-.1,0-.146.032-.146.1h-.107v-.048l.252-.153Zm0-2.078h-.1c0-.126-.064-.192-.2-.192v-.048c0-.063.182-.114.542-.144a.465.465,0,0,0-.242.384Zm.445,2.473h-.253v-.048c.133,0,.205-.048.205-.146v-.1l-.106-.156v-.046c.071.012.136.1.2.25Zm.2-2.665v-.048l.145-.048v.048l.057.048Zm.249,3.255h-.152v-.1h.152Zm.293-2.956v.195c-.252,0-.384.061-.4.192h-.048v-.046c0-.13.148-.242.447-.341Zm-.243-.892v-.1l.193-.045c0,.043-.064.091-.193.142Zm-.349-.493.147.049.3-.243h.048v.1c-.234.065-.348.162-.348.293h-.147Zm.1.786v.106c-.227-.114-.338-.2-.338-.252V356.8h.142l.05.047a.13.13,0,0,0,.11.147.132.132,0,0,0,.038,0Zm-.2-1.376v.193l-.492-.349v-.049h.1c.045-.157.094-.242.145-.242a.527.527,0,0,0,.251.448Zm-.446-7.209v-.048l.352-.155h.387l-.1.155v.1l.048.241h-.048l-.048-.047Zm.446,6.121-.094-.1a.748.748,0,0,0,.54-.243l.049.048c-.04.1-.2.2-.5.3Zm.5-5.726h-.1l-.1-.106h.2Z" transform="translate(-779.318 -258.856)" fill="#d60812"/>
          <path id="Path_5637" data-name="Path 5637" d="M1082.783,363.1l.1-.094v-.194l-.243.194.1.094Z" transform="translate(-807.695 -270.672)" fill="#d60812"/>
          <path id="Path_5638" data-name="Path 5638" d="M1068.012,370.163v-.1h.193v-.347l-.094-.292-.051.05c-.16,0-.257-.149-.29-.445h-.057l-.051.048h-.192v-.243l-.3.144v.052l.057.048v.1h-.2v-.1h-.645l-.143.144v.1l.241.048h.255c0,.079.063.178.191.3v.1l-.1.1h-.052c0-.2-.065-.308-.2-.341l-.146.048c0-.063-.151-.163-.446-.3h-.1a.5.5,0,0,1-.341.1.4.4,0,0,0-.4.3v7.491l.047.048.193-.048.2.048h2.655l.05-.048-.1-7Zm-2.221,1.525-.047.057v.048l.047.048h-.047l-.1-.1v-.107h.144Zm.05-1.232a.608.608,0,0,0-.194-.389h.4c0,.066.048.1.145.1v.1c-.076,0-.177.064-.3.2Zm.5.3h-.2v-.048l.048-.048.146.048Zm.193-.1v-.252c.33-.011.494-.092.494-.243h.094v.1c-.094,0-.143.064-.143.2a.549.549,0,0,0-.4.2Zm.494.289-.1.1h-.191c0-.064.095-.114.288-.145Zm.4-.289h-.3v-.1h.3Zm-.051-.939h-.046v-.148l.046-.251.146.107c0,.164-.047.258-.145.289Zm.591.888-.1-.1v-.048h.1l.05.152Z" transform="translate(-794.649 -275.169)" fill="#d60812"/>
          <path id="Path_5639" data-name="Path 5639" d="M1081.323,367.379v.147l.046.049h-.046l-.149-.1c.018-.129.063-.2.149-.2a.921.921,0,0,0-.349-.592h-.052v.1l-.146-.046c-.294.062-.442.177-.442.336h-.048l-.145-.093-.3.19h-.293l-.25-.048-.047.205-.243-.051h-.25v-.107h-.389a1.921,1.921,0,0,0,.341.7l.049-.05h.106v.05h-.106a18.972,18.972,0,0,0,1.286,2.16q3.169,5.385,3.4,5.571h1.474l.095-.1.3.1h.979v-.1l-4.827-8.129Zm-1.232.292h-.146v-.1h.146Zm.545.446-.1.1v-.147h.1Zm0-.1h-.051l-.2-.049v-.048l.154-.046.1.094Zm4.475,6.9.057-.048.1.1h-.155Zm-3.84-6.5h-.2v-.06h.2Zm2.017,6.744.25.051v.045h-.25l-.1-.1Zm-1.329-6.056.051-.144h.095v.1l-.095.1h-.051Zm.051.542h.046v.1h-.143Zm-.446,1.282h-.05v-.1h.146Zm.048-2.811-.146.241h-.143c.074-.16.155-.241.241-.241Z" transform="translate(-804.51 -273.566)" fill="#d60812"/>
          <path id="Path_5640" data-name="Path 5640" d="M1098.8,347.08l-.35.052-.192-.052h-.444l-.05.052-.052-.052h-.3l-.046.052.046,1.325v1.933a.706.706,0,0,0,.543.291l-.1.143v.253l-.4.1v.445l.1.1-.1.146v1.386l.048,1.47a10.392,10.392,0,0,0,1.385,2.521l.049-.057.1.106h-.1l1.471,2.607h.11V351.47c0-.071-.072-.107-.2-.107v-.045c.133,0,.2-.034.2-.1v-3.5c0-.065-.085-.094-.255-.094v-.1h.255v-.348l-.11-.1Zm-.8,5.417-.241-.049V352.4l.05-.046.191.046Zm.3-3.691-.049-.144v-.052l.192.052Zm.243,3.45h-.05v-.1h.146Zm.1-4.491.045-.047.108.1h-.153Zm.045.642h.255v.1h-.255Zm.352,1.677-.1-.1.1-.1Zm.4-2.562-.1.1v-.194h.1Zm.048.836v-.047l.193-.1h.1l-.194.146Zm.388,7.441h-.052l-.092-.1h.145Zm.056-6.258h-.109v-.048h.052l.3.145v.057h-.145c-.063,0-.1-.048-.1-.152Zm.338,1.337h-.047l-.243-.057v-.046h.049l.24.048Z" transform="translate(-818.69 -258.936)" fill="#d60812"/>
          <path id="Path_5641" data-name="Path 5641" d="M1068.762,352.157l.4-.1v.052l.59-.157h.29v-.1h.35v-.1h.544l.095-.1a.444.444,0,0,0-.393-.491.459.459,0,0,0-.052,0l.048-.049q0-.127-.194-.145l.1-.157v-.1a4.85,4.85,0,0,0-.891-1.23h.105a20.53,20.53,0,0,0-1.432-2.414h-2.956a29.016,29.016,0,0,0,1.628,2.762q.526,1.037.735,1.037c0,.194.048.291.146.291h.2v-.1h.144v.1l.243.046a.533.533,0,0,0,.446.252v.1l-.243.048-.1-.1-.2.1c-.192,0-.289-.048-.289-.146h-.1v.048l.386.69h.049c.07,0,.107-.05.107-.148h.146Zm-1.329-4.293-.1-.1v-.047l.1.1Zm1.822,2.268.05-.047.146.146v.057l-.1.1-.1-.1Zm-.2,1.085c0-.081.065-.131.2-.143v-.4h.1c0,.109.149.208.448.3h.54v.048c-.135.012-.2.061-.2.146v.047l.047.051-.288.2h-.1l-.252-.057v.158c-.128,0-.2-.1-.2-.3h-.3Z" transform="translate(-794.808 -258.935)" fill="#d60812"/>
          <path id="Path_5642" data-name="Path 5642" d="M1097.808,361.116l.1-.1v-.106a.534.534,0,0,0-.3-.243v.048l-.048.05v.25l.1.1Z" transform="translate(-818.826 -269.074)" fill="#d60812"/>
          <path id="Path_5643" data-name="Path 5643" d="M1140.454,360.976v-.048l-6.6-7.539,6.309-6.256v-.054h-4.04l-4.392,4.681v3.45l4.935,5.764Z" transform="translate(-844.325 -258.936)" fill="#d60812"/>
          <path id="Path_5644" data-name="Path 5644" d="M1072.589,364.66l.146-.1-.146-.2h-.107l-.143.147.143.145Z" transform="translate(-800.012 -271.835)" fill="#d60812"/>
          <path id="Path_5645" data-name="Path 5645" d="M1065.41,366.131l.349-.2h.146l.252.051.143-.148c.165,0,.244-.035.244-.107h.544a1.363,1.363,0,0,1,.639-.144v-.046a.594.594,0,0,0-.289-.5h-.149c0,.062-.082.129-.25.2h-.1V365.2l.1-.155-.1-.1h-.048l-.143.1h-.3c0,.1-.034.155-.1.155l.1-.252c-.014-.064-.1-.129-.243-.193l-.049.048h-.048l.1.243v.048h-.3l.048.251c-.227.031-.341.083-.341.147l-.347-.048v-.049l.048-.05-.1-.1h-.047v.246l.047.05-.047.046v.446l.1.1Z" transform="translate(-794.664 -272.122)" fill="#d60812"/>
          <path id="Path_5646" data-name="Path 5646" d="M269.77,75.85a9.511,9.511,0,0,1,1.437-.1,3.032,3.032,0,0,1,1.924.5,2.079,2.079,0,0,1,.8,1.772,2.387,2.387,0,0,1-.782,1.9,3.374,3.374,0,0,1-2.167.6,9.43,9.43,0,0,1-1.206-.068Zm1.067,3.835a1.914,1.914,0,0,0,.37.022,1.457,1.457,0,0,0,1.591-1.648,1.347,1.347,0,0,0-1.478-1.492,2.333,2.333,0,0,0-.481.041Z" transform="translate(-201.26 -56.507)" fill="#061d5c"/>
          <path id="Path_5647" data-name="Path 5647" d="M288.533,79.41l-.334,1.2h-1.1l1.437-4.7h1.393l1.457,4.7H290.24l-.364-1.2Zm1.194-.8-.292-1c-.084-.28-.166-.628-.236-.9h-.016c-.069.277-.138.633-.215.9l-.281,1Z" transform="translate(-214.186 -56.636)" fill="#061d5c"/>
          <path id="Path_5648" data-name="Path 5648" d="M306.445,75.848a9.565,9.565,0,0,1,1.416-.1,2.4,2.4,0,0,1,1.52.37,1.193,1.193,0,0,1,.432.985,1.25,1.25,0,0,1-.829,1.155v.02a1.194,1.194,0,0,1,.625.882,13.153,13.153,0,0,0,.382,1.321H308.9a6.09,6.09,0,0,1-.328-1.09c-.126-.588-.327-.75-.758-.756H307.5v1.845h-1.053ZM307.5,77.87h.417c.529,0,.843-.263.843-.675,0-.43-.293-.646-.781-.655a2.507,2.507,0,0,0-.48.036Z" transform="translate(-228.619 -56.504)" fill="#061d5c"/>
          <rect id="Rectangle_68" data-name="Rectangle 68" width="1.066" height="4.697" transform="translate(81.961 19.281)" fill="#061d5c"/>
          <path id="Path_5649" data-name="Path 5649" d="M331.607,75.917v2.706c0,.81.308,1.22.853,1.22s.863-.391.863-1.22V75.917h1.059v2.635c0,1.452-.731,2.142-1.956,2.142-1.186,0-1.884-.654-1.884-2.157v-2.62Z" transform="translate(-246.599 -56.636)" fill="#061d5c"/>
          <path id="Path_5650" data-name="Path 5650" d="M348.8,79.3a2.74,2.74,0,0,0,1.178.291c.488,0,.745-.2.745-.512,0-.289-.223-.46-.785-.66-.783-.271-1.291-.7-1.291-1.385,0-.8.67-1.418,1.778-1.418a2.865,2.865,0,0,1,1.2.239l-.237.856a2.26,2.26,0,0,0-.983-.222c-.46,0-.682.206-.682.451,0,.3.264.436.87.663.83.308,1.22.739,1.22,1.4,0,.789-.607,1.466-1.9,1.466a3.046,3.046,0,0,1-1.332-.294Z" transform="translate(-260.06 -56.413)" fill="#061d5c"/>
          <path id="Path_5651" data-name="Path 5651" d="M362.945,80.044l2.238-3.219V76.8h-2.03v-.879h3.411v.615l-2.187,3.177v.029H366.6v.877h-3.653Z" transform="translate(-270.773 -56.636)" fill="#061d5c"/>
          <path id="Path_5652" data-name="Path 5652" d="M389.182,78.82c-.019-.563-.041-1.245-.041-1.929h-.021c-.146.6-.341,1.27-.525,1.819l-.568,1.834H387.2l-.5-1.811c-.153-.558-.314-1.226-.425-1.84h-.013c-.028.634-.05,1.359-.082,1.942l-.085,1.785H385.1l.3-4.7h1.415l.459,1.569c.148.538.293,1.131.4,1.681h.023c.132-.544.292-1.165.446-1.686l.5-1.564h1.39l.257,4.7h-1.04Z" transform="translate(-287.305 -56.641)" fill="#061d5c"/>
          <rect id="Rectangle_69" data-name="Rectangle 69" width="1.066" height="4.697" transform="translate(103.804 19.281)" fill="#061d5c"/>
          <path id="Path_5653" data-name="Path 5653" d="M419.379,80.243a2.981,2.981,0,0,1-1.207.21,2.241,2.241,0,0,1-2.461-2.357,2.4,2.4,0,0,1,2.566-2.5,2.771,2.771,0,0,1,1.156.208l-.216.846a2.259,2.259,0,0,0-.891-.174,1.557,1.557,0,0,0-.237,3.084,1.4,1.4,0,0,0,.244,0,2.619,2.619,0,0,0,.885-.156Z" transform="translate(-310.137 -56.396)" fill="#061d5c"/>
          <path id="Path_5654" data-name="Path 5654" d="M433.98,75.917v1.807h1.75V75.917h1.061v4.7h-1.06V78.649h-1.75v1.966h-1.066v-4.7Z" transform="translate(-322.974 -56.636)" fill="#061d5c"/>
          <path id="Path_5655" data-name="Path 5655" d="M451.922,79.41l-.336,1.2h-1.1l1.436-4.7h1.393l1.457,4.7h-1.144l-.364-1.2Zm1.193-.8-.3-1c-.082-.28-.164-.628-.235-.9h-.015c-.069.277-.138.633-.214.9l-.28,1Z" transform="translate(-336.082 -56.636)" fill="#061d5c"/>
          <path id="Path_5656" data-name="Path 5656" d="M469.842,75.917h1.068v3.809h1.87v.892h-2.936Z" transform="translate(-350.523 -56.636)" fill="#061d5c"/>
          <path id="Path_5657" data-name="Path 5657" d="M485.64,80.242a2.966,2.966,0,0,1-1.206.21,2.241,2.241,0,0,1-2.461-2.357,2.4,2.4,0,0,1,2.568-2.5,2.777,2.777,0,0,1,1.154.209l-.214.846a2.272,2.272,0,0,0-.892-.174,1.547,1.547,0,1,0,.007,3.087,2.641,2.641,0,0,0,.885-.156Z" transform="translate(-359.572 -56.396)" fill="#061d5c"/>
          <path id="Path_5658" data-name="Path 5658" d="M497.982,80.044l2.239-3.219V76.8h-2.031v-.879H501.6v.615l-2.188,3.177v.029h2.223v.877h-3.654Z" transform="translate(-371.517 -56.636)" fill="#061d5c"/>
          <path id="Path_5659" data-name="Path 5659" d="M517.823,78.63h-1.729v1.115h1.932v.869h-3v-4.7h2.9v.874H516.1v.975h1.729Z" transform="translate(-384.236 -56.636)" fill="#061d5c"/>
          <path id="Path_5660" data-name="Path 5660" d="M529.6,80.612l-1.114-4.7h1.137l.355,1.933c.1.561.2,1.167.281,1.643h.012c.077-.507.189-1.073.308-1.653l.4-1.923H532.1l.375,1.981c.1.551.182,1.052.252,1.576h.014c.069-.523.171-1.073.271-1.633l.384-1.923h1.08l-1.215,4.7h-1.149l-.4-2.021c-.091-.473-.167-.909-.223-1.447h-.012c-.086.528-.161.974-.274,1.447l-.45,2.022Z" transform="translate(-394.27 -56.634)" fill="#061d5c"/>
          <path id="Path_5661" data-name="Path 5661" d="M553.536,79.3a2.747,2.747,0,0,0,1.178.291c.488,0,.745-.2.745-.512,0-.289-.222-.46-.786-.66-.782-.271-1.29-.7-1.29-1.385,0-.8.671-1.418,1.779-1.418a2.868,2.868,0,0,1,1.2.239l-.237.856a2.249,2.249,0,0,0-.985-.222c-.459,0-.682.206-.682.451,0,.3.265.436.871.663.829.308,1.219.739,1.219,1.4,0,.789-.606,1.466-1.9,1.466a3.061,3.061,0,0,1-1.333-.294Z" transform="translate(-412.8 -56.413)" fill="#061d5c"/>
          <path id="Path_5662" data-name="Path 5662" d="M568.871,75.917h1.052V78h.02c.1-.181.217-.349.321-.514l1.067-1.564h1.3l-1.554,2,1.636,2.7h-1.24l-1.147-2.026-.4.493v1.535h-1.052Z" transform="translate(-424.403 -56.636)" fill="#061d5c"/>
          <rect id="Rectangle_70" data-name="Rectangle 70" width="1.068" height="4.697" transform="translate(148.748 19.281)" fill="#061d5c"/>
          <path id="Path_5663" data-name="Path 5663" d="M806.855,154.117H792.218V141.705H804.87v-9.342H792.217V121.589h14.637v7.289h10.454V112.052l-44.3.074v9.457h5.519v29.242c0,6.918,5.753,10.811,9.18,12.515l.146.073h29.483v-17.07H806.855Z" transform="translate(-576.699 -83.595)" fill="#061d5c"/>
          <path id="Path_5664" data-name="Path 5664" d="M618.57,132.338H595.246l0,9.089h9.573c-.092,3.991-.779,7.44-3.162,9.769a11.288,11.288,0,0,1-8.079,3.1c-7.433,0-13.456-4.691-13.456-17.21,0-10.6,8.312-15.77,16.359-15.77,3.06,0,14.257-.073,14.257-.073h.667V111.67h-.667s-12.108-.068-17.852-.043c-16.089.087-27.171,10.816-27.171,26.091,0,14.552,8.583,26.59,27.119,26.59,8.326,0,14.829-2.16,19.705-7.169,4.279-4.387,6.492-11.828,6.078-24.215Z" transform="translate(-422.052 -83.274)" fill="#061d5c"/>
          <path id="Path_5665" data-name="Path 5665" d="M482.8,121.5H488.4v-9.128H463.383v9.131h5.534V154.36h-5.509v9.38h25v-9.383H482.8Z" transform="translate(-345.704 -83.835)" fill="#061d5c"/>
          <path id="Path_5666" data-name="Path 5666" d="M271.119,127.857l.129.171c2.053,2.706,5.9,4.823,8.83,4.823l.659-.006-.007-11.673h6.036v32.943H279.6v9.369h28.1v-9.37h-7.166v-32.87h6.111v10.982l.061.64h.666c2.923,0,7.072-2.206,9.058-4.827l.129-.171V112.037H271.108Z" transform="translate(-202.259 -83.584)" fill="#061d5c"/>
          <path id="Path_5667" data-name="Path 5667" d="M999.976,163.569l15.94.033-.031-9.475-6.233.08-9.42-13.9a14.446,14.446,0,0,0,10.163-13.87c.014-9.305-6.1-14.23-17.692-14.252l-27.761-.042-.011,9.128,5.52.007-.047,32.875-5.554-.008-.017,9.371,24.95.032.021-9.368-5.527,0,.018-13.31-.013-2.315v-.484Zm-15.632-42.262,4.467,0c2.608.005,4.535.6,5.722,1.759a4.972,4.972,0,0,1,1.392,3.762c-.034,5.142-2.516,7.783-7.379,7.855l-4.251.069Z" transform="translate(-719.808 -83.665)" fill="#061d5c"/>
        </g>
      </g>
    </g>
  </g>
</svg>
