<svg xmlns="http://www.w3.org/2000/svg" xmlns:xlink="http://www.w3.org/1999/xlink" width="236.711" height="205.768" viewBox="0 0 236.711 205.768">
  <defs>
    <clipPath id="clip-path">
      <rect id="Rectangle_71" data-name="Rectangle 71" width="236.711" height="205.768" fill="none"/>
    </clipPath>
  </defs>
  <g id="Group_263" data-name="Group 263" transform="translate(-507 144)">
    <g id="Group_268" data-name="Group 268" transform="translate(507 -144)">
      <g id="Group_267" data-name="Group 267" transform="translate(0 0)" clip-path="url(#clip-path)">
        <path id="Path_5565" data-name="Path 5565" d="M0,15.766v190L24.245,195.29l7.967-3.424,10.434-4.5c5.815-2.512,11.391-4.55,17.362-6.466q3.711-1.184,7.453-2.216A192.235,192.235,0,0,1,194.7,187.636l21.191,9.151,20.821,8.978v-190A15.769,15.769,0,0,0,220.942,0H15.769A15.769,15.769,0,0,0,0,15.766M225.723,188.643l-6.083-2.619-20.583-8.9q-1.41-.6-2.832-1.2a202.315,202.315,0,0,0-77.87-15.488q-1.571,0-3.138.024-10.118.151-20.087,1.289a201.854,201.854,0,0,0-44.115,10.138q-6.744,2.371-13.364,5.237L10.988,188.643V76.545H178.224l0-.008h47.5Z" transform="translate(0 0.003)" fill="#fff"/>
        <path id="Path_5566" data-name="Path 5566" d="M142.36,523.744a5.32,5.32,0,0,0-1.333-1.545,3.038,3.038,0,0,0-1.787-.659H126.662a2.349,2.349,0,0,0-1.523.755,6.222,6.222,0,0,0-1.144,1.515,10.779,10.779,0,0,0-.834,1.859,6.068,6.068,0,0,0-.363,1.9v76.889a5.5,5.5,0,0,0,.338,1.861,6.661,6.661,0,0,0,.832,1.611,4.111,4.111,0,0,0,1.221,1.209,2.262,2.262,0,0,0,1.116.339,1.661,1.661,0,0,0,.618-.119l9.449-3.465.159-.221c.449-.622.85-1.251,1.209-1.839l.1-.155c.151-.244.3-.482.451-.7,1.084.248,2.24.5,3.515.778l1.07.23.34-48.718-1.031.155-5.185.786-3,.455-.1.638c-.669,4.041-1.344,8.176-2.014,12.308l.085-32.3a1.3,1.3,0,0,1,.469-1.007l.036-.03a2.14,2.14,0,0,1,.719-.465c.187,0,.574.324.7.431a1.445,1.445,0,0,1,.435,1.14l-.05,12.133,1.6-2.026c2.435-3.086,4.911-6.126,7.357-9.037l.2-.246.071-10.153a8.881,8.881,0,0,0-.308-2.27,8.075,8.075,0,0,0-.848-2.029m-8.529,47.688-.032,19.928a.528.528,0,0,1-.089.244,3.278,3.278,0,0,1-.4.546,3.586,3.586,0,0,1-.469.445,1.923,1.923,0,0,1-.183.127.586.586,0,0,1-.127.012,2.609,2.609,0,0,1-.6-.109.4.4,0,0,1-.1-.338v-.02l.054-20.43Z" transform="translate(-102.554 -435.559)" fill="#fff"/>
        <path id="Path_5567" data-name="Path 5567" d="M282.9,521.527H270.5a2.619,2.619,0,0,0-1.579.629,7.009,7.009,0,0,0-1.188,1.255,7.694,7.694,0,0,0-.912,1.646,5.034,5.034,0,0,0-.4,1.835l-.633,69.681v.024a4.713,4.713,0,0,0,.367,1.706,5.7,5.7,0,0,0,.9,1.422,3.7,3.7,0,0,0,1.333,1.007,2.667,2.667,0,0,0,1.007.226,1.877,1.877,0,0,0,.618-.1c4-1.285,8.1-2.48,12.159-3.545a5.1,5.1,0,0,0,3.042-2.619,8.646,8.646,0,0,0,1.221-4.24l.826-62.923a7.128,7.128,0,0,0-1.164-4.029,3.912,3.912,0,0,0-3.191-1.964m-5.487,62.285a1.973,1.973,0,0,1-.544,1.311,2.531,2.531,0,0,1-.915.745.3.3,0,0,1-.059,0,1.141,1.141,0,0,1-.187-.018.687.687,0,0,1-.294-.129,1.992,1.992,0,0,1-.373-.352.335.335,0,0,1-.026-.171l.57-49.278v-.034a.636.636,0,0,1,.087-.282,3.976,3.976,0,0,1,.453-.548,1.529,1.529,0,0,1,.433-.31,1.093,1.093,0,0,1,.284-.1,1.669,1.669,0,0,1,.745.421,1.225,1.225,0,0,1,.415.991Z" transform="translate(-221.965 -435.548)" fill="#fff"/>
        <path id="Path_5568" data-name="Path 5568" d="M541.181,591.718l1.007-.123c2.456-.3,4.947-.566,7.4-.788l.806-.073s.1-21.292.151-31.535c2.679-.123,5.388-.224,8.057-.3l.86-.024.056-11.333-.912.018c-2.643.054-5.322.127-7.977.215l.123-14.868c3.517-.044,7.081-.076,10.606-.1h.882l.044-11.248H541.9Z" transform="translate(-451.962 -435.579)" fill="#fff"/>
        <path id="Path_5569" data-name="Path 5569" d="M709.556,523.327a4.028,4.028,0,0,0-3.193-1.787h-12.4a2.819,2.819,0,0,0-1.48.5,5.285,5.285,0,0,0-1.245,1.118,6.616,6.616,0,0,0-.919,1.426,3.879,3.879,0,0,0-.4,1.642l-.093,58.989a3.779,3.779,0,0,0,.4,1.644,6.475,6.475,0,0,0,.943,1.41,5.872,5.872,0,0,0,1.247,1.088,2.888,2.888,0,0,0,1.541.5h.061c4.2,0,8.46.115,12.648.338h.173a3.954,3.954,0,0,0,3.1-1.632,6.086,6.086,0,0,0,1.251-3.712l-.383-57.744a6.29,6.29,0,0,0-1.261-3.8m-8.108,54.459a1.812,1.812,0,0,1-.866.4,1.169,1.169,0,0,1-.342-.091,1.5,1.5,0,0,1-.443-.262,3.226,3.226,0,0,1-.445-.451.2.2,0,0,1-.048-.147l-.079-43.015a.2.2,0,0,1,.044-.143,3.067,3.067,0,0,1,.429-.435,1.352,1.352,0,0,1,.415-.242,1.1,1.1,0,0,1,.316-.078,1.833,1.833,0,0,1,.846.435,1.027,1.027,0,0,1,.4.824l.157,42.441a.927.927,0,0,1-.391.768" transform="translate(-576.098 -435.559)" fill="#fff"/>
        <path id="Path_5570" data-name="Path 5570" d="M857.247,563.453a2.82,2.82,0,0,0,1.247-2.5l-.457-35.93a3.444,3.444,0,0,0-1.088-2.417,3.24,3.24,0,0,0-2.067-1.049h-16.75l.588,69.256.806.076c2.389.228,4.806.493,7.187.792l1.007.127-.27-25.49q1.525,12.6,3.046,25.21l.083.675.673.1c2.417.357,4.879.758,7.292,1.188l1.18.2-.139-1.19c-1.047-8.936-2.147-18.272-3.358-28.521a5.936,5.936,0,0,0,1.025-.524m-8.563-13.13a.561.561,0,0,1-.085.123l-1.372-.076-.169-15.95,1.394.03a2.054,2.054,0,0,1,.173.173.585.585,0,0,1,.149.35l.167,14.582a1.715,1.715,0,0,1-.256.769" transform="translate(-699.959 -435.569)" fill="#fff"/>
        <path id="Path_5571" data-name="Path 5571" d="M1113.349,599.79c2.317.707,4.653,1.461,6.946,2.238l1.187.4-.723-80.891h-8.9l.866,78.061Z" transform="translate(-928.558 -435.558)" fill="#fff"/>
        <path id="Path_5572" data-name="Path 5572" d="M1192.85,535.087l.326,70.574,8.686,3.185-.145-73.305,5.666.29V521.54h-20.345l.091,13.257Z" transform="translate(-991.344 -435.559)" fill="#fff"/>
        <path id="Path_5573" data-name="Path 5573" d="M847.731,393.132l.031-.151H847.7l-.057.056v.033l.057.062Z" transform="translate(-707.901 -328.193)" fill="#d60812"/>
        <path id="Path_5574" data-name="Path 5574" d="M670.726,350.375l.258-.064v.034l.383-.1h.189v-.062h.227v-.063h.352l.063-.063a.288.288,0,0,0-.254-.319l-.034,0,.03-.032c0-.055-.041-.086-.125-.094l.064-.1v-.063a3.12,3.12,0,0,0-.58-.8h.069a12.745,12.745,0,0,0-.931-1.567h-1.919a19.329,19.329,0,0,0,1.059,1.793q.34.673.48.673c0,.126.031.189.093.189h.132v-.063h.094v.063l.158.03a.35.35,0,0,0,.29.164v.066l-.159.031-.061-.064-.133.064c-.125,0-.189-.031-.189-.095h-.062v.031l.251.448h.032c.045,0,.069-.032.069-.1h.093Zm-.861-2.787-.068-.063v-.031l.068.063Zm1.181,1.472.032-.03.095.095v.037l-.064.064-.063-.064Zm-.133.7c0-.052.044-.085.133-.093v-.258h.063c0,.071.1.135.289.195h.353v.031c-.088.008-.132.04-.132.095v.03l.032.033-.187.131H671.4l-.162-.037v.1c-.084,0-.127-.064-.127-.195h-.2Z" transform="translate(-558.306 -289.858)" fill="#d60812"/>
        <path id="Path_5575" data-name="Path 5575" d="M700.88,360.959l.064-.063v-.069a.351.351,0,0,0-.195-.157v.031l-.034.033v.162l.065.063Z" transform="translate(-585.196 -301.209)" fill="#d60812"/>
        <path id="Path_5576" data-name="Path 5576" d="M683.451,367.137v.1l.031.032h-.031l-.095-.064c.009-.084.041-.127.095-.127a.592.592,0,0,0-.226-.384h-.032v.064l-.093-.03c-.194.041-.29.115-.29.218h-.03l-.094-.061-.2.124H682.3l-.163-.031-.031.133-.158-.033h-.164v-.069h-.252a1.246,1.246,0,0,0,.221.454l.031-.033h.07v.033h-.07a12.632,12.632,0,0,0,.837,1.4q2.056,3.5,2.207,3.616h.957l.063-.063.194.063h.635v-.063l-3.132-5.277Zm-.8.189h-.094v-.062h.094Zm.352.29-.061.063v-.1H683Zm0-.064h-.032l-.133-.032v-.031l.1-.03.062.061Zm2.9,4.478.037-.031.063.064h-.1Zm-2.49-4.22h-.133v-.039h.133Zm1.309,4.378.164.033v.029h-.164l-.062-.062Zm-.861-3.931.032-.093h.061v.062l-.061.063h-.032Zm.032.352h.03v.064h-.094Zm-.291.832h-.031v-.063h.1Zm.032-1.825-.1.155h-.095c.052-.1.1-.156.157-.156Z" transform="translate(-569.175 -306.237)" fill="#d60812"/>
        <path id="Path_5577" data-name="Path 5577" d="M847.7,395.2h-.057v.3l.057-.057Z" transform="translate(-707.9 -330.044)" fill="#d60812"/>
        <path id="Path_5578" data-name="Path 5578" d="M821.406,348.563a4.84,4.84,0,0,0-.792,2.077v.03l.031.033q-.094,0-.094.734c0,.451.031.674.094.674l.025-.094q-.037,0-.057-.184l.121.065-.032.026.063.123.12-.094h.031l-.088.094.03.151v.064h-.093l-.152-.095c0,.306.042.457.121.457h.151v-.055h.277l.182-.063v.032l.061-.063v-.031l.1.031h.031l.025-.031h.064l-.032.031.032.032-.064.117.032.035v.03l-.032.032-.118-.061v.03l-.034-.03a.28.28,0,0,0-.15.243c.037.093.078.143.12.151h.127l.056-.056c.05,0,.121.049.214.151h.032c.063,0,.095-.042.095-.126h.031l.031.031-.031.033v.03l.031.032v.031l-.062.064v-.064h-.064l-.031.032-.089-.062v.031l-.093-.031h-.032l.063.181h-.063l-.032-.03.032-.032a.346.346,0,0,0-.3-.181v.03l-.157-.03.032-.214h.031l.031.03v-.062l-.031-.03.094-.089-.063-.061h-.1v.094l-.03-.032h-.027l-.031.032c0-.064-.019-.094-.061-.094l.031.151c-.144,0-.216.093-.216.277q.285.823.4.823h.032l-.032.1.46.641.062-.062h.031l.025.029-.025.126a3.464,3.464,0,0,0,1.316.943.1.1,0,0,0,.118-.09.1.1,0,0,0,0-.029h.031c.06,0,.089.04.089.119l.063-.057.184.057-.027.157.548.119v-.03h.063c-.021-.143-.063-.215-.125-.215v-.032h.031l.03.032-.03-.151.03-.094c-.079,0-.119-.029-.119-.089l.057-.063h.031l.093.063h.033l-.033-.031c.1-.165.168-.246.215-.246a.68.68,0,0,1-.182.34l.087.025v.063h-.063v.093l.125-.029.064-.064v-.12h-.064v-.063l.12-.093.126.06h.032l.057-.15V355.1c-.08,0-.119-.02-.119-.062l-.127.032h-.025l.024-.152c.063,0,.094-.021.094-.063l.063.063h.032l.029-.031v-.031l-.029-.031v-.089l.029-.031h-.029v-.032l.029-.031c0-.029-.04-.06-.124-.089v.027l-.212-.057h-.066l-.118.03h-.032l.032.089v.062c0,.043-.05.063-.151.063v.024l.025.033-.12.031v-.031c0-.079-.031-.12-.093-.12v-.062a.347.347,0,0,0,.339-.276l.185.029v.033l-.034.031v.032h.063v-.1h.064l.024.033V354.4l.031-.029v-.089l-.517-.126c-.427-.277-.641-.44-.641-.485a3.535,3.535,0,0,0-.491-.768l.031-.03c0-.185-.051-.277-.156-.277v.029H822.6V352.6h.03l.088-.089a2.432,2.432,0,0,0-.213-.95l-.088.033h-.032l-.031-.033v-.031l.031-.032.089.032.063-.057v-.063l-.032-.032h.032c.063,0,.093-.12.093-.364v-.063l-.03-.031c-.063,0-.095-.021-.095-.063h.095l.03.031a3.159,3.159,0,0,1,.667-1.59v-.057c-.037,0-.057.028-.057.089-.041-.009-.083-.06-.125-.153l.245.064.522-.4.7-.243-.093-.034v-.031l.185-.125V347l-.032-.031a4.089,4.089,0,0,0-3.241,1.591m-.181,4.8-.309-.182v-.031l.032-.032.125.032h.027l.03-.032a.231.231,0,0,1,.094.185Zm.246.951h-.031v-.1h.063l.055.064Zm.213.086h-.031l-.031-.029v-.089h.031l.031.089Zm2.233-.118h.056v-.031l-.025-.033h.025l.063.064v.031l-.031-.031-.089.063Zm-.064,1.005c0,.064.022.094.064.094v.064h-.126l-.057-.158Zm-.307.184.031-.025.124.025v.094h-.124v-.031l.031-.032h-.063Zm-.152-.184.125.031v.032h-.093l-.032-.032Zm-1.347-6.753.127-.063h.026a.275.275,0,0,1-.154.152Zm-.061,2.02h.093v.056h-.093Zm-.516.428.087.031v.032h-.087Zm-.278-1.1h.094v.062h-.094Zm0,.976h.094v.094l-.031.032-.063-.063Zm-.063.672.032-.032v.063l-.089.033v-.1l.027.032Zm-.146-.431.093.063v.032l-.093-.032Zm.061.855V351.9h.059l.062.056Zm.278.188v-.031l.056-.064h.03Zm.151-.218c0,.063-.022.093-.065.093l.034-.12h.031Zm0-.216c0,.084-.093.148-.278.189h-.031c0-.035.082-.086.244-.156,0-.059.022-.089.065-.089h.031c0-.2-.081-.308-.246-.308v-.031l.031-.03c.079.011.118.043.118.092a.576.576,0,0,0,.278-.092l-.031-.089v-.032h.031a.361.361,0,0,0,.151.213h.031l.032-.031v.031c0,.074.07.123.212.152v-.057h.033v.057h.182l-.032.157v.025l.032.033-.1.031-.12-.088h-.031v.058l.031.031h-.1v-.064h-.057l.026.095v.03h-.151l.031-.03-.063-.062h-.033l-.025.031-.031-.031v-.033l.031-.025h-.063l-.031.025v-.025Zm.855.617-.125.119-.027-.088.088-.032Zm-.427.271h-.032l-.213-.12v-.031h.031l.088.031.127-.094h.031l-.063.062Zm-.095.34-.089-.032-.031.1h-.03l-.031-.1.031-.093.151.031Zm.063.672h.12l-.057.089-.125-.026Zm.063.976v-.027l-.031.027-.064-.057.064-.063h.088l.03.094Zm.15-.486-.062.057h-.057l-.031-.119h.088l.03.029.032-.029Zm-.032-1.289a.2.2,0,0,0-.147.188h-.034l-.031-.125.125-.184h.026l.03.032v-.032l.127.032c.037,0,.057-.032.057-.1h.061v.159c.059,0,.148.1.278.3h-.032l-.12-.121h-.031l-.031.032h-.151l-.1-.158h.065v-.031Zm.461,1.93h-.064v-.094h.064Zm-.278-.062-.056.062h-.03l.086-.094Zm.158-.151h.032l-.032.119h-.063l-.063-.062Zm.3.731h-.148a.221.221,0,0,1-.215-.153v-.03l.152.063v.063l-.034.024.1-.024.148.024Zm.185.123-.12.064h-.031l.031-.094.032-.032.031.032h.057Zm.032-.18h-.057l.057-.1h.032Zm.34-.554h-.063a.221.221,0,0,1-.151-.214v-.119l.215.214Zm0-.609-.276.087.151-.15.125.031Zm-.215-.554h.034l.088.063-.063.062-.059-.062Zm-.156.339c.063.018.095.077.095.184h-.063l-.032-.031.032-.09v-.03Zm-.12-.553.1-.024v.057h-.1Zm.063,1.56.089-.057v.057l-.057.063c-.084,0-.126.021-.126.063h-.032v-.063l-.086.031-.063-.063v-.031l.031-.033-.031-.024h.093Zm-.244-.611h.062l-.03.127h-.032Zm-.063-1.956h.032v.063l-.152.031v-.031l-.031-.033Zm.032-1.655h-.032v-.055c.063,0,.1-.021.1-.063h.055Z" transform="translate(-685.276 -289.77)" fill="#d60812"/>
        <path id="Path_5579" data-name="Path 5579" d="M843.2,400l-.214.094v.062h.033l.029-.031.089.119v.033l.246-.033h.032l-.032-.088c0-.105-.06-.156-.183-.156" transform="translate(-704.011 -334.057)" fill="#d60812"/>
        <path id="Path_5580" data-name="Path 5580" d="M844.856,398.44l.089.032v-.032l.032-.024v-.246h-.032c-.035,0-.065.09-.089.27" transform="translate(-705.573 -332.527)" fill="#d60812"/>
        <path id="Path_5581" data-name="Path 5581" d="M821.629,382.069l-.124-.031h-.032l.032.15h.031l.093-.093Z" transform="translate(-686.045 -319.055)" fill="#d60812"/>
        <path id="Path_5582" data-name="Path 5582" d="M701.483,347.08l-.227.033-.126-.033h-.289l-.032.033-.031-.033h-.2l-.028.033.028.86v1.255a.462.462,0,0,0,.354.189l-.063.093v.165l-.258.063v.289l.063.063-.063.095v.9l.031.954a6.751,6.751,0,0,0,.9,1.637l.032-.037.061.069h-.061l.955,1.692h.07V349.93c0-.046-.045-.069-.133-.069v-.029c.088,0,.133-.022.133-.065V347.5c0-.042-.054-.061-.164-.061v-.067h.164v-.226l-.07-.062Zm-.517,3.517-.156-.032v-.031l.032-.03.125.03Zm.2-2.4-.031-.094v-.034l.126.034Zm.156,2.24h-.03v-.064h.093Zm.063-2.915.033-.031.069.064h-.1Zm.033.417h.163V348h-.163Zm.224,1.089-.061-.063.061-.064Zm.258-1.663-.063.067v-.126h.063Zm.031.543v-.03l.127-.064h.063l-.127.095Zm.252,4.83h-.033l-.064-.063h.095Zm.037-4.063h-.07v-.031h.031l.2.094v.037h-.1c-.041,0-.062-.031-.062-.1Zm.219.868h-.031l-.157-.037v-.03h.032l.156.031Z" transform="translate(-585.06 -289.86)" fill="#d60812"/>
        <path id="Path_5583" data-name="Path 5583" d="M646.384,399.843l-.063.066a.348.348,0,0,1,.133.258h.063l.156-.063v-.064h-.03a.276.276,0,0,0-.258-.2" transform="translate(-539.769 -333.924)" fill="#d60812"/>
        <path id="Path_5584" data-name="Path 5584" d="M640.652,400.842l-.126.1.063.063h.288v-.031l-.133-.127Z" transform="translate(-534.929 -334.759)" fill="#d60812"/>
        <path id="Path_5585" data-name="Path 5585" d="M668.492,353.383h.037l.063-.063c.235-.058.352-.114.352-.164v-.032l.283.032q0-.22.2-.22c0-.063.019-.095.062-.095l-1.088-1.854h-.061v2.237h.03Z" transform="translate(-558.154 -293.124)" fill="#d60812"/>
        <path id="Path_5586" data-name="Path 5586" d="M685.9,363l.062-.061v-.126l-.158.126.063.061Z" transform="translate(-572.745 -302.997)" fill="#d60812"/>
        <path id="Path_5587" data-name="Path 5587" d="M621.427,347.08v.033l.069.195-.037.031-.158-.063-.062.092c.029.128.071.191.124.191l-.094.288.127.033v.062a.3.3,0,0,0-.189.1h-.031l-.031-.2-.164.033h-.095l-.032-.033-.031.033.031.03c0,.089-.054.133-.163.133v.029l.1.1h.032l.031-.031c0,.042.032.061.1.061v.032l-.063.062.063.29c-.037,0-.059.042-.063.126h-.035v-.063l.032-.158h-.194l-.125.095c0,.13.085.206.258.226v-.07h.03v.037c-.012.083-.1.124-.258.124v-.093h-.062v.126h.062l-.062.226v.253h.125v-.031c.173-.106.258-.192.258-.258l-.062-.221h.157l.033.033c.087-.08.131-.145.131-.2h.064V349a.652.652,0,0,0,.414.227v.061l-.194.064H621.4v-.031l.032-.032-.064-.061h-.031v.125h-.063l-.062-.189.062-.069-.094-.094h-.1a.194.194,0,0,1-.125.194v.033l.032.031v.127h-.095v.162l.126-.037v-.063h-.063v-.03h.063l.164.03v-.061h.064v.094c0,.046-.032.069-.095.069v.063l.031-.032.283.063h.037l.031-.031a.167.167,0,0,0,.142.189.17.17,0,0,0,.048,0v.061c-.065,0-.1.024-.1.069v.189h-.163l-.031-.031-.064.062a.268.268,0,0,0,.165.227v.032a.256.256,0,0,1-.258-.226l-.094.031v.133c0,.041.031.062.094.062l-.03.156v.131h.321v-.069l.124.069.063-.193h.062l.032.03v-.094l.131-.032.094-.1v-.068l-.03-.031h.03l.033-.031.03.194c.09,0,.132.032.132.1h-.031l-.037.032h-.188v.124h-.258c0,.111-.043.165-.127.165l.063.187-.094.031v.037a.266.266,0,0,0,.158.284h.094l.068-.064v-.092l-.031-.032h.031l.033-.031.03.158c0,.042-.03.064-.093.064v.131l.063.063h.158c.061,0,.093-.052.093-.162h.037c0,.111.02.162.063.162h.1l.094-.063-.032-.031c0-.15.041-.227.124-.227v-1.534c0-.042-.031-.063-.093-.063v-.063h.093v-.384l-.251-.1v-.031h.032l.219.031v-.988c-.124-.045-.187-.089-.187-.131v-.062l.063-.064c.041,0,.063.064.063.189h.061v-.864l-.061-.062Zm-.158,1.152-.157.031h-.038V348.2l.2-.061Zm.094.095H621.3v-.095h.063Zm.83,2.56h-.127l-.029-.094v-.033h.029l.127.064Zm-.127-2.686h.064v.062h.1l.158.031v.033h-.032l-.291.13h-.03v-.1h.063Zm.127-.447c-.056,0-.107.043-.156.127-.194.008-.29.049-.29.125h-.063v-.063h.063v-.189h.094l-.032.031.069.063h.031v-.157h.284Zm-.314-.445.063.06-.063.067h-.069Zm-.132.219h.031l-.095.1h-.032Zm-.158.613.063-.066h.032l-.032.1h-.063Zm.031.445h-.062v-.095h.062Zm.063-.2h-.063v-.032l.063-.063h.033l.03.033Zm.51,1.667-.063.063-.447.094v-.094l.226-.031.127.031c.063-.016.093-.08.093-.189l.063.064Zm-.127-.32h-.061c0-.085-.022-.125-.063-.125v-.063h.03v.031Zm.034.03.03.094h-.064v-.093Zm.162-.219h-.1c0-.089-.053-.131-.156-.131h-.063l-.033.03-.1-.094v-.031l.032-.032a.953.953,0,0,1,.421.221Zm.189,1.213h-.063l-.063-.063.063-.069h.03l.033.1Zm-.094-1.282.061.069h-.125Zm.061-.83h.065l.031.031-.031.1h-.189l-.133.124v.033c.068,0,.1.02.1.063v.031l-.32-.094-.033.031-.162-.031v-.126l.094-.031.068.061h.191Zm0-1.025c-.041,0-.082-.084-.125-.254l.1-.029h.03l.033.029c0,.107.02.159.063.159Z" transform="translate(-518.232 -289.86)" fill="#d60812"/>
        <path id="Path_5588" data-name="Path 5588" d="M638.917,391.491v.1l.032.033-.062.063a1.1,1.1,0,0,0-.452-.194h-.54c.025.151.079.227.156.227v.062l-.251-.124.031-.032a.191.191,0,0,0-.132-.132l-.126.069-.095-.069h-1.089l-.126.132h-.037l-.032-.033v-.03l.032-.032v-.037h-.282c-.043,0-.061.034-.061.1l-.134-.1h-.188l-.069.069v.094h.037l.031.031-.031.032c0,.083-.044.126-.133.126,0-.064-.021-.1-.063-.1l-.063.321h.126v.064c-.083,0-.126.031-.126.094l-.194.162v.258h.1v.127l-.068.092v.2l.037.031c.085,0,.125.032.125.1h.417l.061-.063v-.032h-.125v-.32c-.088,0-.132-.033-.132-.1h.1v-.069c-.111-.013-.164-.045-.164-.094v-.063a.354.354,0,0,0,.1-.226l-.037-.158.133-.063c.093.049.145.1.156.158l-.061.1v.03l.03.033-.03.031v.031a.312.312,0,0,1,.2.095v.031l-.031.031v.194l.031.033h-.1v.219l.071.069c.125,0,.184-.055.184-.163h.2v.062h.159l.094.132c-.064,0-.094.022-.094.064v.031h.446l.062-.063v-.032l-.031-.031h.031c0-.066-.031-.1-.094-.1v-.1l.227-.092a.739.739,0,0,0,.353.092l-.1.2.162.127h.511v-.1h.093l.032.032v-.032h.07v.032l-.133.031v.031h1.284l.063-.063v-.415l-.063-.1.063-.094v-.031l-.031-.031.031-.033V392h-.031l-.132.094H639.2l.2-.29v-.25l-.063-.069Zm-1.924.132h.069l.032.032v.031l-.1-.031Zm-.383.063.068-.063v.125h-.068Zm.226.862-.03.031-.29-.251h-.126l-.063.062-.192-.162V392.2l.091.07.132-.037.221.1h.069l.094-.132-.033.163c0,.106.042.158.126.158Zm.321-.158-.031.031v.032l.031.031v.031c-.131-.051-.2-.093-.2-.127h.1v-.031l-.032-.031v-.195h.063l.063.062c-.055,0-.087.054-.095.163Zm.062-.51-.062-.069h.125Zm.448-.162h.031l.03.093-.062.069Zm-.125.256.03-.029h.063v.029c-.043,0-.063.033-.063.1h-.03Zm.184,1.02a.459.459,0,0,1-.251-.189v-.476h.065v.157l.125.126-.063.132.125.221Zm0-.664h-.03l-.031-.1V392.2h.031l.03.1Zm0-.163h.04l.1-.095v.125l-.134.032Zm.2.483-.061.064h-.032l.032-.164v-.094h.061Zm.188-.195h-.063l-.032-.032v-.063h.032l.063.063Zm.453.125-.032.031-.1-.031c0-.084-.022-.125-.063-.125l-.031-.032-.032-.031h.063l.194.127Zm.127-.352h-.032l-.031-.158v-.063h.063l.031.031Zm.578,0,.031.131-.031.031-.037-.031-.127.031.031.158v.1c-.062,0-.095.022-.095.063h-.061l.125-.2a.717.717,0,0,1-.094-.321l.064-.062h.03v.062l-.03.032.03.037Z" transform="translate(-530.378 -326.949)" fill="#d60812"/>
        <path id="Path_5589" data-name="Path 5589" d="M622.494,364.562v.037l-.189-.069v.031c-.109,0-.164.024-.164.068.09,0,.133.023.133.064v.063l-.031-.031-.165.063h-.03l.03-.158v-.162l-.03-.031c-.105,0-.158-.021-.158-.063s-.14-.155-.421-.353v-.092h.07c0-.109.02-.162.062-.162,0-.148-.086-.219-.258-.219l-.063.094v.093l.031.032c.063,0,.1.021.1.062v.037l-.1.032v-.032c-.041,0-.062.062-.062.189a.223.223,0,0,1-.227-.127v-.03q0-.07.164-.071v-.218l-.063-.063h-.039l-.029.03v-.03a.258.258,0,0,1-.221-.29l.062-.064h.031l.1.1.1-.063-.068-.2V363l.03-.032h-.03a.26.26,0,0,0,.1-.221h.156l.063-.069v-.094h-.03l-.157-.093-.164.031c0,.042.034.062.1.062l-.039.164h-.029q-.121-.32-.19-.32a.309.309,0,0,1-.163.189l.037.032v.029l-.037.032v.069l.225.064v.031c-.125,0-.188.021-.188.063v.164h-.069l-.032-.1h.032l-.063-.063h-.062v1.245l.156.162v.032h-.032l-.032-.032h-.031l-.062.064v.705c0,.04.031.063.092.063v.031c-.061,0-.092.02-.092.064v1.886l.062.1v.094l-.062.095v.031h.226l-.226.2v.572c0,.042.041.063.125.063v.031h-.063v.227c0,.041.074.062.227.062.024.13.057.194.093.194h.2v-.194c0-.042-.065-.062-.2-.062v-.227l-.031-.031.258-.031-.032-.158q0-.125-.227-.125l.064-.07h.031l.031.032.062-.189v-.031l.1.031h.064c.042,0,.061-.074.061-.227h.031v.033l.064.13h.1v-.06l-.037-.034h.164l-.062.189v.031l.03.032-.162-.032h-.032l-.064.063v.1a.242.242,0,0,1,.2.156c.167-.031.251-.1.251-.194v-.032l.1.032.352-.254-.069-.06.1-.2h.063l.064.256v.1h-.064v-.063h-.031a.21.21,0,0,1-.194.157v.031c0,.13.053.195.162.195v.031h-.069l-.188-.156h-.126v.189h.126v.031l-.126.195c-.111,0-.162.032-.162.1h-.157c-.042,0-.076.072-.1.219l.194.037c.126-.074.19-.139.19-.194h.037l.063.062v.033h-.033l-.131.061v.133h.194v-.064l.189-.069v.1l-.031.032.1.063h.158l.187-.2V368.3l-.031-.158.031-.031v-.031H622.5l-.032.031v-.062a.423.423,0,0,0,.124-.258v-2.112l-.031-.283.031-.226v-.738h-.061Zm-.221.483h.095c-.033.085-.065.127-.095.127Zm-.069.605.1-.1a.268.268,0,0,1,.189.195.139.139,0,0,0-.158.117.142.142,0,0,0,0,.04h-.094l-.037-.224Zm-.093-.416h.062v.1l-.062-.063Zm.093.738v.131h-.063l.031-.131Zm-1.34-2.108-.093.094v-.094l.031-.037h.032Zm-.195-.383.032-.1h.07l.031.032-.063.1H620.7Zm.195,4.824H620.7v-.063l.037-.031-.069-.064c.068,0,.1-.031.1-.093h.031a.319.319,0,0,0,.062.221Zm-.031-.83v-.031h.062l.031.031v.062H620.9Zm.031-.289v-.126l.126-.095.031.031Zm.126.547-.064-.062v-.031l.128.031Zm.093-.352-.093.031-.064-.063h.158Zm.07-.8a.424.424,0,0,0-.416.221h-.1v-.035l.1-.031h.032l-.032-.095v-.032l.032-.031h-.07v-.063h.1l.062.063.29-.063Zm-.2-.674-.1-.092v-.064l.032.032.159-.032.068.064v.029Zm.063.384v.033l-.1-.094V366.2Zm-.126-.124v.031h-.062l-.032-.031v.031h-.031v-.031l.031-.032Zm-.032-.735-.031.031-.095-.031v-.066l.095-.1h.031Zm.478.955h-.125v-.031l.094-.031h.031Zm.126-1.213h-.031v-.066l-.127.063.031.031c-.025.111-.055.165-.093.165h-.064a.348.348,0,0,0-.063-.227l.094.032q.062,0,.062-.158l.189.031Zm.132-.29v.1l-.062-.069v-.066l.032-.03-.1-.095h-.219l-.032.095.032.125h-.164v.227h-.062v-.064l-.32.063v-.032l-.032-.031v-.032l.164-.032v.032l.188-.063-.031-.165v-.125h-.064v-.063l.158-.032V364.6h-.093l.164-.258h.125q-.048.221-.125.221h-.033l.032.1v.031h-.068v.063h.133v-.128h.221l.031-.1h.037l.031.031.032-.189h.062v.031l-.031.158h.031l.031.037h.1v-.069h.094l-.125.258c0,.05.052.082.162.094,0,.111.021.163.063.163v.032h-.063l-.037-.032-.032.253h-.062l.031-.158v-.031l-.031-.032.031-.032v-.031l-.126-.132Zm.416.673v.064l-.1.031h-.031v-.1Zm-.353.322v-.063l.19-.064h.037v.032l-.1.1Zm.353.7h-.063v-.035a.371.371,0,0,0,.094-.226v-.032l-.2-.03V366.2l.421.064v.156l-.2.033c0,.089-.019.132-.06.132Zm.125.735v-.032a.145.145,0,0,0,.164-.124.143.143,0,0,0,0-.041l.1.033v.194Zm.385,1.121v.031c0,.042-.063.074-.189.1H622.3v-.033l.1-.093Zm-.063-1.667c0-.082-.033-.125-.094-.125v-.1l.032-.031h.094v.031h-.065a.414.414,0,0,0,.126.221Z" transform="translate(-518.242 -302.674)" fill="#d60812"/>
        <path id="Path_5590" data-name="Path 5590" d="M670.179,369.7v-.063h.125v-.225l-.061-.189-.034.032c-.1,0-.167-.1-.188-.289h-.037l-.032.031h-.125v-.158l-.194.094v.034l.037.031v.064h-.134V369h-.413l-.1.093v.063l.158.031h.164c0,.051.041.115.124.2v.063l-.062.064h-.031c0-.127-.045-.2-.133-.221l-.094.031c0-.041-.1-.106-.289-.194H668.8a.318.318,0,0,1-.221.062.261.261,0,0,0-.258.2v4.863l.03.031.127-.031.133.031h1.724l.031-.031L670.3,369.7Zm-1.441.99-.031.037v.031l.031.031h-.031l-.063-.063v-.069h.094Zm.031-.8a.4.4,0,0,0-.126-.253h.258c0,.043.031.063.093.063v.064c-.05,0-.115.042-.194.127Zm.32.195h-.125v-.031l.03-.031.1.031Zm.125-.063v-.163c.215-.007.321-.06.321-.158h.065v.064c-.065,0-.1.042-.1.127a.364.364,0,0,0-.258.131Zm.321.188-.063.064h-.124c0-.042.063-.074.187-.094Zm.258-.188H669.6v-.062h.194Zm-.031-.609h-.03v-.1l.03-.163.095.069c0,.106-.032.168-.094.188Zm.384.577-.063-.068v-.031h.063l.031.1Z" transform="translate(-558.14 -308.031)" fill="#d60812"/>
        <path id="Path_5591" data-name="Path 5591" d="M679.18,369.617h.029a.212.212,0,0,0-.125-.221h-.063a.221.221,0,0,0,.158.221" transform="translate(-567.079 -308.497)" fill="#d60812"/>
        <path id="Path_5592" data-name="Path 5592" d="M675.67,364.558l.1-.063-.1-.127H675.6l-.1.1.1.094Z" transform="translate(-564.142 -304.299)" fill="#d60812"/>
        <path id="Path_5593" data-name="Path 5593" d="M668.48,365.648l.228-.127h.094l.164.033.093-.1c.106,0,.157-.022.157-.069h.354a.876.876,0,0,1,.413-.094v-.03a.382.382,0,0,0-.188-.322H669.7c0,.041-.053.084-.164.13h-.063v-.03l.063-.1-.063-.063h-.03l-.094.063h-.2c0,.066-.021.1-.063.1l.063-.164c-.008-.042-.062-.083-.158-.125l-.03.031h-.033l.063.158v.031h-.2l.031.163c-.147.02-.221.054-.221.1l-.228-.031v-.032l.033-.032-.065-.064h-.029v.159l.029.033-.029.03v.29l.061.063Z" transform="translate(-558.142 -304.62)" fill="#d60812"/>
        <path id="Path_5594" data-name="Path 5594" d="M851.61,375.291v-.031h-.031l-.032.031h-.094v-.065l-.119.065-.033-.094.094-.031.12.031.031-.151v-.062h-1.855l.057.094v.025h-.064c-.028,0-.031.113,0,.339v.032h.093l.063-.062v-.064h.057l-.025.157c-.063,0-.094.019-.094.057h-.063l-.03-.026v.026l-.027.031v.184c0,.043.039.062.12.062v.063c-.051,0-.082.051-.093.152l.03.03h-.03l-.09-.064h-.03l-.031.216c0,.063.021.095.061.095h.151v.118h-.031a.078.078,0,0,0-.067-.088.075.075,0,0,0-.022,0h-.031l-.03.032-.031-.032h-.063l-.007.009v.01l-.009.067.016.1v.095q-.271.162-.271.214v.025h.057l.031-.025v.025l.033.03v.033H849.1c0,.062-.122.195-.365.4-.328.162-.49.288-.49.369h-.065v-.031l.031-.031v-.033l-.277.064v.089l.158-.025v.119l-.032.032.032.031c-.164.025-.244.148-.244.364v.119l.182.247-.124.061h-.025l-.095-.061h-.1v.187h-.057v.427h.12c0,.037-.029.058-.088.058v.062a4.151,4.151,0,0,0,3.026-1.379,4.528,4.528,0,0,0,1.039-2.626h-.151Zm-3.459,3.761-.089-.034v-.062l.032-.031.057.064Zm.031-.768-.089-.031v-.031h.087Zm.673.332h-.063v-.024l.063-.063h.032Zm.674-1.434-.063.063h-.026l-.032-.094c0-.061.021-.089.058-.089l.063.058Zm.181-.245-.056.062h-.034l-.031-.1c0-.058.022-.087.063-.087l.056.057Zm.184.151h-.088l-.031-.026v-.031l.12.031Zm-.025-.517-.064-.063h.032l.057.063Zm-.031-.61-.032-.094v-.031h.063l.057.125Zm.118.24.031-.121h.032l.033.032h.055l.032-.032v.032l.034.032-.12.057Zm.217.735.029-.033-.029-.03.061-.057.031.12Zm.092-1.621-.031.029c-.041,0-.061-.029-.061-.086-.225-.034-.335-.077-.335-.126V375.1h.031l.025.033c.041,0,.061-.032.061-.089h.063c0,.1.037.151.089.151h.032l.034-.031c0,.083.029.126.092.126Zm.152.306h-.1l.032-.031-.032-.088v-.031h.032l.063.119Zm.093-.151-.093-.062h-.1l-.025.03v-.06l.025-.034h.032l.031.034.095-.063h.03Zm.246.184h-.094l-.03-.095.124.031Zm.184-.309v-.029l.088-.026.062.056Zm.61.309h-.094l.03-.095h.064Z" transform="translate(-707.893 -313.163)" fill="#d60812"/>
        <path id="Path_5595" data-name="Path 5595" d="M872.2,375.045l.013-.062h-.069c.007.041.026.062.056.062" transform="translate(-728.362 -313.163)" fill="#d60812"/>
        <path id="Path_5596" data-name="Path 5596" d="M746.345,399.843l-.063.066a.354.354,0,0,1,.131.258h.063l.157-.063v-.064H746.6a.274.274,0,0,0-.259-.2" transform="translate(-623.25 -333.924)" fill="#d60812"/>
        <path id="Path_5597" data-name="Path 5597" d="M884.046,346.973l-3.975,9.045h2.277l1.824-4.154a.079.079,0,0,0-.05.077l-.037.032h-.114v-.032c0-.031.079-.081.233-.145l.04-.091-.051-.014v-.031h.071l2.061-4.686Zm.119,3.673.106.031.228-.151h.037v.064c-.176.037-.265.1-.265.183h-.106Zm-.044-.993v-.025h.07c.032-.105.071-.157.111-.157a.332.332,0,0,0,.188.283v.119Zm.326-.881-.076-.069a.623.623,0,0,0,.415-.153l.037.033c-.027.063-.153.124-.376.188Zm-.227-1.234a.4.4,0,0,0,.227-.087h.037l.114.159-.114.086h-.037a.305.305,0,0,0-.227-.117Zm-.069,1.561h.113l-.037.145h-.12Zm-.59.618h.082l.037.094v.023h-.12Zm-.221-.19h.067v.126l-.067-.057Zm-.227,1.087.074-.157h.114l.181-.031v-.056l-.105-.094.029-.188h.076c0,.043.041.063.12.063v.031h-.081v.037l.037.151c.15.039.227.077.227.12v.037l-.145-.037h-.04l-.042.037c0,.08-.027.12-.078.12v.067l.065-.05.03.034v.033l-.069.062h-.024v.037h-.037l-.04-.15-.18.031h-.038l-.074-.063Zm.675.379h-.037l-.039.025H883.6l.148-.121Zm-.623.635h.113v.063h-.113Zm-.007-.326h.115v.061h-.115Zm-.679-.425h.037l.074.063h-.113Zm-.646,4.756H881.8l-.032-.031-.453-.151v-.031l.266-.095h.3l-.074.095v.063Zm.112-1.369h-.074l-.037-.032v-.063h.037l.074.063Zm.076-.65h-.037l.07-.094.074.057Zm.364-.453h-.077l-.081-.067h.157Zm.064-.529-.078-.089.152-.061.037.118Zm.074-.521h-.037v-.064h.115Zm.253-1.54h.118v.055H882.7Zm.188.433v.063l-.188-.094v-.032h.081c0,.044.037.064.107.064Zm-.063,1.416h-.118l-.076-.056h.2Zm.068-.433c-.069,0-.105.019-.105.061h-.081v-.03l.187-.093Zm-.148,0v-.034l.081-.1v-.063c0-.058-.054-.088-.158-.088v-.031h.2l.037.151c-.053.1-.1.156-.158.166Zm.126-.668h-.2v-.034c.105,0,.158-.027.158-.087v-.062l-.082-.1V351c.055.009.106.063.158.165Zm.459,2.142h-.069v-.068l.069-.056Zm.379-.962c0,.043-.077.083-.227.12l-.04.151v.037h.083v.031c-.079,0-.12.021-.12.062h-.074l-.034-.187.108-.1v-.057l-.182-.031h-.114l-.074-.157v-.033l.074-.062h.037l.183.032.037-.152h.037v.037h.037l.071.064v.03l-.031.032-.077-.059v.074c.052,0,.077.042.077.122l.043.037h.04l.145-.037Zm-.037-.408-.148-.119h.107l.039.025h.037Zm-.266-.4v-.031c.105,0,.159-.04.159-.12h.068c0,.091.064.175.189.245-.28-.018-.419-.05-.419-.094Zm.233-.24h-.068c0-.08-.054-.12-.159-.12V351.3c0-.043.14-.074.417-.1-.129.074-.192.156-.192.246Zm-.013-2.277h-.037v-.037c0-.092.111-.175.339-.252v.149c-.2,0-.3.045-.3.142Zm.278,1.874v-.03h.111l.04.03c0,.064.037.1.105.1v.062c-.173-.069-.258-.122-.258-.156Zm.219.283V351.3l.114-.034v.034l.044.029Zm.233-.369V350.9l.148-.032c0,.03-.054.062-.15.095Zm.328-1.98h-.113l.074-.069h.115Zm.037-.56.076-.062h.069l-.069.062Zm.258.4-.037.089h-.107c0-.043.037-.063.107-.063v-.057h.037Zm.12-.8h-.037c0-.063-.041-.095-.119-.095v-.1l.037-.031.12.031c.046,0,.07-.04.07-.126a.394.394,0,0,1,.231.158h-.12c-.125,0-.185.052-.185.158Z" transform="translate(-734.983 -289.771)" fill="#d60812"/>
        <path id="Path_5598" data-name="Path 5598" d="M720.491,401.1v.031l.031.031.062-.063v-.031l-.03-.031Z" transform="translate(-601.712 -334.925)" fill="#d60812"/>
        <path id="Path_5599" data-name="Path 5599" d="M724.576,397.556l.062.2.064-.063v-.163h-.1Z" transform="translate(-605.123 -331.989)" fill="#d60812"/>
        <path id="Path_5600" data-name="Path 5600" d="M740.607,400.842l-.127.1.061.063h.291v-.031l-.131-.127Z" transform="translate(-618.405 -334.759)" fill="#d60812"/>
        <path id="Path_5601" data-name="Path 5601" d="M845.14,356.248h-.032c-.037,0-.057.031-.057.094l.089-.032Z" transform="translate(-705.736 -297.517)" fill="#d60812"/>
        <path id="Path_5602" data-name="Path 5602" d="M722.441,364.562v.037l-.188-.069v.031c-.111,0-.166.024-.166.068.091,0,.134.023.134.064v.063l-.031-.031-.164.063h-.031l.031-.158v-.162l-.031-.031c-.1,0-.158-.021-.158-.063s-.14-.155-.421-.353v-.092h.069c0-.109.02-.162.063-.162,0-.148-.087-.219-.258-.219l-.064.094v.093l.031.032c.063,0,.1.021.1.062v.037l-.1.032v-.032c-.041,0-.063.062-.063.189a.221.221,0,0,1-.226-.127v-.03c0-.047.055-.071.162-.071v-.218l-.061-.063h-.037l-.032.03v-.03a.261.261,0,0,1-.221-.29l.065-.064h.03l.094.1.1-.063-.07-.2V363l.032-.032H721a.259.259,0,0,0,.1-.221h.156l.063-.069v-.094h-.029l-.16-.093-.162.031c0,.042.032.062.1.062l-.037.164H721c-.079-.213-.144-.32-.189-.32a.307.307,0,0,1-.164.189l.037.032v.029l-.037.032v.069l.227.064v.031c-.127,0-.189.021-.189.063v.164h-.069l-.032-.1h.032l-.062-.063h-.063v1.245l.156.162v.032h-.031l-.032-.032h-.03l-.063.064v.705c0,.04.03.063.092.063v.031c-.062,0-.092.02-.092.064v1.886l.063.1v.094l-.063.095v.031h.226l-.226.2v.572c0,.042.041.063.124.063v.031h-.062v.227c0,.041.076.062.225.062.025.13.057.194.1.194h.2v-.194c0-.042-.067-.062-.2-.062v-.227l-.03-.031.258-.031-.031-.158c0-.083-.076-.125-.226-.125l.06-.07h.033l.032.032.063-.189v-.031l.1.031h.063c.044,0,.063-.074.063-.227h.034v.033l.062.13h.1v-.06l-.037-.034h.164l-.061.189v.031l.03.032-.165-.032h-.031l-.062.063v.1a.242.242,0,0,1,.194.156c.169-.031.252-.1.252-.194v-.032l.1.032.353-.254-.069-.06.1-.2h.063l.062.256v.1h-.062v-.063h-.031a.212.212,0,0,1-.195.157v.031c0,.13.054.195.164.195v.031h-.07l-.189-.156h-.125v.189h.125v.031l-.125.195c-.111,0-.162.032-.162.1h-.156c-.042,0-.076.072-.1.219l.2.037c.126-.074.189-.139.189-.194h.037l.063.062v.033h-.031l-.131.061v.133h.194v-.064l.189-.069v.1l-.033.032.1.063h.156l.19-.2V368.3l-.033-.158.033-.031v-.031h-.1l-.03.031v-.062a.425.425,0,0,0,.125-.258v-2.112l-.033-.283.033-.226v-.738h-.063Zm-.219.483h.093c-.033.085-.062.127-.093.127Zm-.07.605.1-.1a.266.266,0,0,1,.188.195.139.139,0,0,0-.157.118.142.142,0,0,0,0,.038h-.093l-.037-.224Zm-.093-.416h.063v.1l-.063-.063Zm.093.738v.131h-.064l.034-.131Zm-1.339-2.108-.094.094v-.094l.03-.037h.031Zm-.2-.383.031-.1h.07l.03.032-.063.1h-.037Zm.2,4.824h-.164v-.063l.037-.031-.069-.064c.068,0,.1-.031.1-.093h.03a.319.319,0,0,0,.063.221Zm-.032-.83v-.031h.065l.03.031v.062h-.03Zm.032-.289v-.126l.126-.095.032.031Zm.126.547-.063-.062v-.031l.126.031Zm.095-.352-.095.031-.063-.063h.157Zm.069-.8a.424.424,0,0,0-.416.221h-.1v-.035l.1-.031h.033l-.033-.095v-.032l.033-.031h-.07v-.063h.1l.064.063.29-.063Zm-.2-.674-.093-.092v-.064l.033.032.156-.032.07.064v.029Zm.065.384v.033l-.094-.094V366.2Zm-.124-.124v.031h-.065l-.031-.031v.031h-.03v-.031l.03-.032Zm-.033-.735-.032.031-.094-.031v-.066l.094-.1h.032Zm.48.955h-.126v-.031l.093-.031h.034Zm.124-1.213h-.032v-.066l-.126.063.034.031c-.028.111-.058.165-.1.165h-.064a.356.356,0,0,0-.061-.227l.094.032c.04,0,.062-.053.062-.158l.189.031Zm.132-.29v.1l-.063-.069v-.066l.033-.03-.1-.095h-.221l-.03.095.03.125h-.162v.227h-.063v-.064l-.321.063v-.032l-.031-.031v-.032l.163-.032v.032l.189-.063-.032-.165v-.125h-.063v-.063l.158-.032V364.6h-.1l.164-.258h.125c-.033.148-.074.221-.125.221h-.031l.031.1v.031h-.069v.063h.132v-.128h.219l.032-.1h.037l.031.031.033-.189h.061v.031l-.031.158h.031l.032.037h.093v-.069h.1l-.126.258c0,.05.054.082.162.094,0,.111.021.163.063.163v.032h-.063l-.037-.032-.033.253H721.7l.034-.158v-.031l-.034-.032.034-.032v-.031l-.126-.132Zm.415.673v.064l-.094.031h-.031v-.1Zm-.351.322v-.063l.189-.064h.037v.032l-.1.1Zm.351.7H721.9v-.035a.373.373,0,0,0,.095-.226v-.032l-.195-.03V366.2l.421.064v.156l-.2.033c0,.089-.023.132-.064.132Zm.124.735v-.032a.148.148,0,0,0,.166-.127.143.143,0,0,0,0-.038l.093.033v.194Zm.386,1.121v.031c0,.042-.062.074-.189.1h-.031v-.033l.093-.093Zm-.062-1.667c0-.082-.033-.125-.1-.125v-.1l.031-.031h.095v.031h-.063a.415.415,0,0,0,.125.221Z" transform="translate(-601.712 -302.674)" fill="#d60812"/>
        <path id="Path_5603" data-name="Path 5603" d="M905,376.221v-.063c-.01,0-.018.009-.026.011l-.031.068a.12.12,0,0,1,.057-.017" transform="translate(-755.755 -314.144)" fill="#d60812"/>
        <path id="Path_5604" data-name="Path 5604" d="M721.387,347.08v.033l.07.195-.037.031-.158-.063-.063.092c.029.128.071.191.125.191l-.093.288.126.033v.062a.292.292,0,0,0-.188.1h-.034l-.03-.2-.164.033h-.093l-.033-.033-.032.033.032.03c0,.089-.054.133-.164.133v.029l.1.1h.031l.032-.031c0,.042.033.061.093.061v.032l-.06.062.06.29c-.037,0-.056.042-.06.126h-.033v-.063l.033-.158h-.2l-.125.095c0,.13.086.206.258.226v-.07h.032v.037c-.013.083-.1.124-.258.124v-.093H720.5v.126h.063l-.063.226v.253h.124v-.031c.172-.106.258-.192.258-.258l-.063-.221h.158l.031.033c.089-.08.131-.145.131-.2h.063V349a.656.656,0,0,0,.416.227v.061l-.2.064h-.063v-.031l.031-.032-.063-.061H721.3v.125h-.064l-.062-.189.062-.069-.1-.094h-.1a.193.193,0,0,1-.128.194v.033l.033.031v.127h-.093v.162l.124-.037v-.063h-.065v-.03h.065l.162.03v-.061h.063v.094c0,.046-.03.069-.094.069v.063l.03-.032.284.063h.037l.031-.031a.167.167,0,0,0,.142.189.162.162,0,0,0,.047,0v.061c-.063,0-.1.024-.1.069v.189h-.162l-.032-.031-.063.062a.271.271,0,0,0,.165.227v.032a.254.254,0,0,1-.258-.226l-.1.031v.133c0,.041.034.062.1.062l-.032.156v.131h.323v-.069l.124.069.061-.193h.063l.033.03v-.094l.131-.032.095-.1v-.068l-.031-.031h.031l.032-.031.029.194c.09,0,.134.032.134.1h-.03l-.037.032h-.189v.124h-.258c0,.111-.041.165-.125.165l.063.187-.094.031v.037a.266.266,0,0,0,.156.284h.1l.068-.064v-.092l-.031-.032h.031l.031-.031.031.158c0,.042-.031.064-.094.064v.131l.063.063h.158c.063,0,.093-.052.093-.162h.037c0,.111.02.162.063.162h.093l.095-.063-.03-.031c0-.15.041-.227.125-.227v-1.534c0-.042-.032-.063-.1-.063v-.063h.1v-.384l-.252-.1v-.031h.03l.221.031v-.988c-.125-.045-.19-.089-.19-.131v-.062l.065-.064c.041,0,.062.064.062.189h.063v-.864l-.063-.062Zm-.156,1.152-.156.031h-.037V348.2l.195-.061Zm.093.095h-.063v-.095h.063Zm.831,2.56h-.126l-.031-.094v-.033h.031l.126.064Zm-.126-2.686h.061v.062h.1l.156.031v.033h-.031l-.288.13H722v-.1h.063Zm.126-.447c-.053,0-.107.043-.157.127-.193.008-.291.049-.291.125h-.061v-.063h.061v-.189h.1l-.033.031.07.063h.031v-.157h.283Zm-.314-.445.063.06-.063.067h-.07Zm-.133.219h.034l-.095.1h-.031Zm-.156.613.063-.066h.031l-.031.1h-.063Zm.031.445h-.061v-.095h.061Zm.063-.2h-.063v-.032l.063-.063h.032l.029.033Zm.508,1.667-.064.063-.443.094v-.094l.226-.031.127.031c.063-.016.092-.08.092-.189l.064.064Zm-.125-.32h-.064c0-.085-.022-.125-.063-.125v-.063h.031v.031Zm.032.03.029.094h-.061v-.093Zm.164-.219h-.1c0-.089-.054-.131-.158-.131H721.9l-.031.03-.1-.094v-.031l.033-.032a.953.953,0,0,1,.421.221Zm.189,1.213h-.065l-.062-.063.062-.069h.032l.033.1Zm-.1-1.282.063.069h-.125Zm.063-.83h.063l.032.031-.032.1h-.188l-.132.124v.033c.066,0,.1.02.1.063v.031l-.321-.094-.032.031-.164-.031v-.126l.1-.031.068.061h.19Zm0-1.025c-.041,0-.083-.084-.125-.254l.093-.029h.032l.033.029c0,.107.021.159.062.159Z" transform="translate(-601.715 -289.86)" fill="#d60812"/>
        <path id="Path_5605" data-name="Path 5605" d="M882.307,349.9h-.12l.082-.067h.068l.625-1.365-.655-1.491H880.03l1.774,4.031Zm-.328-.521.107.037-.074.057-.07-.095Zm-.654-1.013-.151-.063.074-.088.114.031Zm-.056-.792v-.034l.452-.15.032-.031h.037l-.037.151v.063l.074.093h-.3Zm.521,1.188.037-.031h.076v.031l-.076.063h-.037Z" transform="translate(-734.949 -289.771)" fill="#d60812"/>
        <path id="Path_5606" data-name="Path 5606" d="M905.431,375.465v-.032l.045-.031h-.086l-.02.046Z" transform="translate(-756.111 -313.512)" fill="#d60812"/>
        <path id="Path_5607" data-name="Path 5607" d="M770.049,346.78l-.031-.033-.03.033h-1.51l-.061.063v8.905l.061.062h.517v-.094h.062v.094h1.026c.041,0,.064-.032.064-.094h.062v.094h.194l.064-.062v-3.907l-.031-.031.031-.039v-1.054l-.031-.033h.031l-.031-.093.031-.127v-3.621l-.064-.063Zm-1.251,8.678-.062.063v-.1h.062Zm0-.446H768.7v-.063h.094Zm.063.382.064-.063.069.063Zm1.285-4.8v.061h-.034l-.063-.061ZM769.824,352l.124-.064h.039l-.039.127h-.124Zm-.1,2.627h.032l.063.063h-.1Zm-.258-2.786c.128-.029.194-.085.194-.162h.032v.031l-.062.162h-.163Zm-.033,3.711h-.032l-.029-.094h.061Zm.064-.448c0,.043-.074.074-.228.1v-.029l.1-.1h.124Zm.163-.477h-.03l-.1-.1v-.032h.131Zm.125.862-.093.132v-.1l.064-.063h.029Zm.033-.031v-.033l.031-.031.063.064Zm.322-1.793-.258.094v-.064c.13,0,.195-.03.195-.093h.064Zm.061-.125h-.061l.031-.132h.062Zm.132-1.8h-.132v-.062h.132Zm.032-1.308c-.014.042-.067.084-.164.126h-.031v-.033a.111.111,0,0,0,.126-.093.109.109,0,0,0,0-.031h.069Zm0-.868h-.1V349.5h.1Z" transform="translate(-641.735 -289.582)" fill="#d60812"/>
        <path id="Path_5608" data-name="Path 5608" d="M848.012,348.68a2.348,2.348,0,0,1,1.164.767l.365.61v.032l-.028.031.335.3,1.624-.767c-.037-.1-.067-.151-.1-.151v.188l-.063-.063v-.063l.063-.089a3.44,3.44,0,0,0-.949-1.439,4.268,4.268,0,0,0-2.718-1.07l-.063.064v1.527c0,.052.122.093.365.121m2.9,1.1c.1,0,.152-.029.152-.086l.03.024h.033l.029-.024h.066v.057l-.185.063h-.127Zm-1.07-1.8h.118v.125h-.055c0-.062-.022-.094-.063-.094Z" transform="translate(-707.904 -289.766)" fill="#d60812"/>
        <path id="Path_5609" data-name="Path 5609" d="M736.265,348.741l.094-.063.094.063h1.824c0-.063.022-.094.063-.094v.094h.832l.069-.063v-1.535l-.069-.062H738.02v.034l.031.029v.033h-.063l-.032-.033-.031.033v-.1h-.8v.1l.031.031h-.031l-.032.031c-.051,0-.082-.052-.1-.158h-.412l-.037.034-.032-.034h-.543c0,.154-.031.228-.092.228h-.032v-.1l.063-.065-.063-.062h-.768l-.07.062v.134h.07v.092h-.07v.989l.032.033-.032.037v.252l.07.063Zm1.471-1.119.034.037c.124,0,.187-.045.187-.134h.032v.035l-.095.194H737.7Zm-.069.194v.095h-.093Zm-.125.768h.063v.126l-.063-.063Zm-.446-.2h.063v.1l-.1.095h-.03Zm-.7-.767.093.068-.063.063h-.062Zm-.063.7h.124l-.061.062h-.063Zm-.9.13h-.063v-.066h.132Zm.258-.7h.062v.066l-.062.064Zm-.1.768h.033l.029.032-.029.094h-.033Zm-.225-1.086h.031l.031.03-.031.094-.094-.063Zm-.126.57.031-.032a.657.657,0,0,1,.289.321v.033l-.093.03h-.037v-.187l-.1-.126-.029.029h-.033l-.031-.029Z" transform="translate(-613.837 -289.86)" fill="#d60812"/>
        <path id="Path_5610" data-name="Path 5610" d="M720.582,361.98l-.03-.165h-.063v.322l.063.061Z" transform="translate(-601.71 -302.166)" fill="#d60812"/>
        <path id="Path_5611" data-name="Path 5611" d="M738.857,391.491v.1l.029.033-.063.063a1.088,1.088,0,0,0-.452-.194h-.542c.025.151.078.227.158.227v.062l-.253-.124.033-.032a.2.2,0,0,0-.133-.132l-.127.069-.094-.069h-1.088l-.124.132h-.04l-.03-.033v-.03l.03-.032v-.037h-.281c-.044,0-.065.034-.065.1l-.13-.1h-.19l-.069.069v.094h.037l.031.031-.031.032c0,.083-.045.126-.134.126,0-.064-.019-.1-.062-.1l-.063.321h.124v.064c-.083,0-.124.031-.124.094l-.2.162v.258h.1v.127l-.068.092v.2l.037.031c.083,0,.126.032.126.1h.417l.063-.063v-.032h-.125v-.32c-.087,0-.131-.033-.131-.1h.1v-.069c-.108-.013-.162-.045-.162-.094v-.063a.37.37,0,0,0,.1-.226l-.037-.158.131-.063c.093.049.148.1.157.158l-.063.1v.03l.034.033-.034.031v.031a.313.313,0,0,1,.2.095v.031l-.032.031v.194l.032.033h-.1v.219l.069.069c.126,0,.189-.055.189-.163h.2v.062h.155l.093.132c-.061,0-.093.022-.093.064v.031h.447l.063-.063v-.032l-.031-.031h.031c0-.066-.031-.1-.095-.1v-.1l.226-.092a.759.759,0,0,0,.355.092l-.1.2.164.127h.51v-.1h.095l.031.032v-.032h.069v.032l-.132.031v.031h1.282l.064-.063v-.415l-.064-.1.064-.094v-.031l-.032-.031.032-.033V392h-.032l-.132.094h-.034l.2-.29v-.25l-.064-.069Zm-1.925.132H737l.033.032v.031l-.1-.031Zm-.383.063.067-.063v.125h-.067Zm.225.862-.032.031-.29-.251h-.124l-.063.062-.194-.162V392.2l.093.07.133-.037.221.1h.07l.094-.132-.032.163c0,.106.042.158.126.158Zm.321-.158-.033.031v.032l.033.031v.031c-.131-.051-.2-.093-.2-.127h.1v-.031l-.029-.031v-.195h.063l.063.062c-.056,0-.086.054-.1.163Zm.063-.51-.063-.069h.124Zm.446-.162h.031l.03.093-.062.069Zm-.125.256.03-.029h.064v.029c-.043,0-.064.033-.064.1h-.029Zm.187,1.02a.449.449,0,0,1-.251-.189v-.476h.064v.157l.125.126-.063.132.125.221Zm0-.664h-.03l-.031-.1V392.2h.031l.03.1Zm0-.163h.037l.094-.095v.125l-.132.032Zm.2.483-.063.064h-.03l.03-.164v-.094h.063Zm.189-.195h-.063l-.032-.032v-.063h.032l.063.063Zm.452.125-.032.031-.1-.031c0-.084-.021-.125-.064-.125l-.032-.032-.03-.031h.061l.2.127Zm.127-.352H738.6l-.032-.158v-.063h.064l.031.031Zm.578,0,.031.131-.031.031-.037-.031-.127.031.032.158v.1c-.063,0-.095.022-.095.063h-.063l.126-.2a.727.727,0,0,1-.094-.321l.063-.062h.031v.062l-.031.032.031.037Z" transform="translate(-613.837 -326.949)" fill="#d60812"/>
        <path id="Path_5612" data-name="Path 5612" d="M813.525,402.9l-.07.064.07.063h.157l.063-.063-.063-.064Z" transform="translate(-679.349 -336.48)" fill="#d60812"/>
        <path id="Path_5613" data-name="Path 5613" d="M787.658,355.5h-.032l-.1.063v-.094l.1-.1c-.067-.3-.131-.446-.194-.446h-.16v-.031c0-.041.065-.083.189-.125l-.189-.993h-.061v.063h-.227V353.8l.031-.031v-.063c-.047-.089-.1-.132-.157-.132l.126-.157.157.031h.069c-.048-.47-.111-.7-.2-.7l-.194.031h-.031l.031-.132h.037l.031.037h.126l.031-.037c-.313-.658-.656-.988-1.025-.988v-.031c.254-.046.383-.121.383-.226l.062.063a2.088,2.088,0,0,0,1.1-2.019,2.245,2.245,0,0,0-.9-1.95h-.157q0-.446-1.926-.546h-1.73l-.061.063v1.572l.061.06h1c.531.006.8.027.8.065.526,0,.823.31.9.93v.262q0,1.117-1.893,1.117h-.8l-.061.063v.8l.032.031.092-.031h.033v.061c-.106,0-.158.024-.158.07v.6l.061.07h.1l.547-.037v-.094c.084,0,.125-.02.125-.063h.063v.063h-.063v.094a3.2,3.2,0,0,1,1.025.132,1.074,1.074,0,0,1,.517.642,6.55,6.55,0,0,0,.353,1.7l-.032.093q.277.768.383.768h.512c.041,0,.061-.051.061-.157h.288l.032-.031-.032-.2c0-.059.161-.123.486-.194v.163l-.132.031-.158-.031-.1.127.037.132v.1l-.162-.032h-.063l-.032.032.063.062h.548c.021-.235.061-.352.126-.352v.094l-.065.258h.511l.131-.127a1.016,1.016,0,0,0-.258-.354m-1.152-6.66h.032l-.071.063h-.03Zm-2.887,2.239h.063v.126h-.094Zm-.322.062h.033l.194.063-.093.132v.03l.03.032h-.131V351.3l.032-.031-.065-.069Zm.416.9h-.283l-.2-.1v-.03l.127-.031c0,.066.022.1.069.1h.282Zm.29.064h-.189l-.063-.064.189-.031.063.063Zm.258-.32-.062.064h-.065l-.031-.1v-.031l.158.031Zm.673-.447h-.063c0-.089-.032-.132-.095-.132h-.133l-.094.069a.254.254,0,0,1-.194.252h-.094l.063-.188V351.3l-.031-.031h.094a.858.858,0,0,1,.422-.164l.031.031h.032l.031-.031-.063-.094h.095l.031.031c0,.084.021.127.062.127Zm.29,1.057-.063.094.063.258v.095h-.063l-.1-.48h.164Zm1.6.962v-.2h.037l.031.094c0,.068-.024.1-.069.1Zm-.1-.806h.1v.062l-.1-.031Zm.032.352.065.064.163-.031h.094v.258l-.189-.124h-.031l-.037.03L786.7,353Zm-.061,1.442h.126v.069H786.7Zm-.032-.635H786.6c.008-.047.06-.09.156-.132h.033v.062Zm-.157-.322h.157v.032l-.157.031Zm-.258-.069-.062.069h-.037l.071-.069Zm.19.517-.061.063h-.065l-.063-.063V353.8Zm-.383-.738.131-.132v.069l-.1.1h-.031Zm-.095-2.787h.063l-.031.189h-.032l-.03-.095Zm-.164,3.844v-.031l.069-.063v.094Zm.037.321v.062h-.068l-.063-.062Zm-.1-3.4h.063v.258h-.063Zm-.32-.384v.061l0,0h.254l-.062.061h-.126l-.066-.061h0v0l-.063-.061Zm.32,1.409v.031l-.125.062v-.062l.03-.031Zm-.383-.517h.063l.132.069c0,.083.02.127.063.127v.064l-.321-.126Zm.2,1.479v.03l-.031.127h-.032v-.033l.032-.124Zm.063,1.345-.063.063c-.042,0-.078-.066-.1-.2h.068l.094.094Zm.094-.775c0,.088.031.132.093.132v.063h-.063l-.125-.2Zm.063,1.729-.063-.063h.031l.063.063Zm-.128-.446.064-.063h.093l.037.032a.4.4,0,0,0,.352.228v.093l-.29-.093a.361.361,0,0,0-.257-.194Zm.61.868-.163.031h-.031v-.069l.131-.062h.062Zm.094-1.377-.124.063h-.032l-.037-.132h.195Zm.164,1.087h-.13v-.031l.061-.1v-.029l-.032-.034c.041,0,.062-.042.062-.124h.039Zm-.1-1.439-.029-.037h-.229v-.033l.071-.061.093.061a.37.37,0,0,0,.227-.093h.032l.031.032c0,.043-.064.086-.2.134Zm.453.8h-.068c-.148-.088-.221-.153-.221-.2h.063c.151.078.225.129.225.164Zm.157.19-.063-.064h.126Zm.416.194H787.3v-.061h.128Z" transform="translate(-653.74 -289.748)" fill="#d60812"/>
        <path id="Path_5614" data-name="Path 5614" d="M849.565,376.3v-.021l-.031-.032.031-.03v-.421l-.031-.221H849.5l-.031.03h-.07l-.189-.125-.093.062c-.068,0-.1.043-.1.125h-.032l-.031-.029c0-.063-.035-.1-.1-.1s-.113-.1-.163-.288v-.03c.089,0,.134.041.134.126h.194v.063h.194a.568.568,0,0,0,.353.163v-.579H849.5l-.031.1-.258-.07v-.031l.031-.031.158.031h.032v-.031l-.065-.064h-1.28l-.032.032-.034-.032h-.029l-.072.064-.162-.044v.5l.069.025h.031l.032-.037v.068h-.133v1.089h.007l.127-.037.13.037h.192l.029-.037.032.037h.227l.032-.037.031.037h.39l.225-.037v.037h.063l.063-.069.228.031.022-.153-.01-.054Zm-1.542-.215-.1-.032v-.128l.167-.031Zm.417.351-.132.064v-.064c.046,0,.071-.03.071-.094h.061Zm0-.125h-.034l-.1-.226v-.063h.071c0,.063.019.094.061.094Zm0-.447h-.034v-.131h.034Zm.032-.2h-.066l-.028-.125h.094l.063.063Zm.187-.383c-.148-.069-.219-.123-.219-.156a.084.084,0,0,0-.095.072.087.087,0,0,0,0,.023.366.366,0,0,0-.227-.126l.063-.07h.2a.355.355,0,0,0,.281.2Zm.391.673-.031-.162h.063l.069.068Z" transform="translate(-707.998 -313.093)" fill="#d60812"/>
        <path id="Path_5615" data-name="Path 5615" d="M735.158,369.25l-.032-.1v-.03l.032-.037-.032-.031.1.031h.032l.031-.031c.061,0,.1.023.1.069v.156l-.034.031h-.03l-.033-.031h-.031l-.032.094.032.032v.031h-.158v.069h.189c.105,0,.158-.033.158-.1v-.032l.1.032.063-.094h.033c.041.13.082.2.124.2h.838l.251-.069.061.069h.229l.124-.037.133.037h.189l.031-.037.031.037h.226l.031-.037.031.037h.383l.227-.037v.037h.063l.063-.069.225.031.032-.221v-.031l-.032-.031.032-.032v-.42l-.032-.221h-.029l-.034.031h-.069l-.188-.125-.094.061c-.069,0-.1.044-.1.127h-.032l-.031-.031a.084.084,0,0,0-.071-.1.086.086,0,0,0-.023,0q-.088,0-.162-.288v-.031c.088,0,.13.042.13.125h.19v.062h.195a.543.543,0,0,0,.352.164v-.578h-.061l-.034.1-.258-.069v-.031l.032-.032.156.032h.031V367.9l-.063-.06h-1.277l-.03.03-.031-.03h-.03l-.071.06-.251-.06H736.5l-.156.03-.094-.03h-.1l-.033.03v-.03l-.157.03H735.7l-.159-.03-.031.03h-.031l-.037-.03h-.031v.06l.162.165-.093.094h-.037l-.031-.031-.031.031h-.063l.029-.031c-.058-.193-.153-.289-.288-.289v.06l.037.032-.037.031v.1l.2.187v.032a.363.363,0,0,0-.062.258h-.034c-.021-.172-.056-.258-.1-.258h-.033v.673l.033.031-.033.031v.384h.07Zm3.289-.517.069.069-.1.1-.031-.164Zm-.636.641-.132.064v-.064c.046,0,.069-.03.069-.094h.063Zm0-.125h-.029l-.1-.227v-.063h.069c0,.063.022.095.063.095Zm0-.447h-.029v-.131h.029Zm.032-.195h-.061l-.033-.127h.095l.063.063Zm-.289-.642h.194a.363.363,0,0,0,.284.2v.063c-.148-.074-.221-.124-.221-.157a.082.082,0,0,0-.094.068.086.086,0,0,0,0,.026.37.37,0,0,0-.225-.127Zm-.258.9.162-.03-.062.188-.1-.031Zm-.188-.517.095.037h.029l.032-.037v.07h-.156Zm-.258.931.133.031v.035l-.1.03h-.031Zm-.6-1.025h-.071v-.094l.071.063Zm-.031-.32.093-.032h.031v.063l-.094.037h-.031Zm-.133.031.063-.063h.03v.063l-.093.037Zm0,.454.133.061-.07.064h-.033l-.03-.095Zm-.031.382v.1h.061l.033-.033.03.127-.03-.031c-.106.03-.159.061-.159.095-.083-.031-.124-.061-.124-.095l.156-.063-.063-.1Zm-.415-.577.063.062v.062h.029v-.062c.089,0,.133-.022.133-.062h.032v.03l-.165.226a.267.267,0,0,1-.157-.256Zm-.227.319c.049,0,.135.063.256.189l-.029.164h-.064v-.226q-.093,0-.093-.064h-.069Zm-.031.447.162-.063h.031v.063l-.162.031h-.031Z" transform="translate(-613.85 -307.198)" fill="#d60812"/>
        <path id="Path_5616" data-name="Path 5616" d="M720.746,347.881v-.221l-.194-.037.093-.126h.037l.033.031c.041-.009.082-.06.127-.159l.124.034.132-.064c0-.067.03-.1.094-.1v-.062l-.063-.1c-.086.013-.131.045-.131.1h-.031v-.1h-.447l-.031.033.031.225-.031.283v.351h.124c0-.061.046-.092.133-.092" transform="translate(-601.71 -289.86)" fill="#d60812"/>
        <path id="Path_5617" data-name="Path 5617" d="M735.151,393.707l-.063-.07h-.07v.194h.133Z" transform="translate(-613.843 -328.742)" fill="#d60812"/>
        <path id="Path_5618" data-name="Path 5618" d="M620.637,361.98l-.031-.165h-.062v.322l.062.061Z" transform="translate(-518.242 -302.166)" fill="#d60812"/>
        <path id="Path_5619" data-name="Path 5619" d="M620.8,347.881v-.221l-.195-.037.094-.126h.037l.032.031c.041-.009.082-.06.125-.159l.126.034.133-.064c0-.067.031-.1.095-.1v-.062l-.064-.1c-.088.013-.131.045-.131.1h-.033v-.1h-.446l-.031.033.031.225-.031.283v.351h.125c0-.061.044-.092.132-.092" transform="translate(-518.238 -289.86)" fill="#d60812"/>
        <path id="Path_5620" data-name="Path 5620" d="M635.2,393.707l-.064-.07h-.068v.194h.133Z" transform="translate(-530.373 -328.742)" fill="#d60812"/>
        <path id="Path_5621" data-name="Path 5621" d="M635.208,369.249l-.033-.1v-.03l.033-.037-.033-.031.095.031h.032l.032-.031c.063,0,.094.023.094.069v.156l-.032.031h-.031l-.031-.031H635.3l-.032.094.032.032v.031h-.158v.069h.189c.106,0,.158-.033.158-.1v-.032l.1.032.063-.094h.032c.04.13.083.2.124.2h.838l.25-.069.063.069h.227l.126-.037.131.037h.189l.031-.037.031.037h.226l.031-.037.033.037h.383l.226-.037v.037h.063l.063-.069.226.031.033-.221v-.031l-.033-.031.033-.032v-.42l-.033-.221h-.032l-.03.031h-.07l-.189-.125-.1.061c-.066,0-.1.044-.1.126H638.4l-.03-.031a.084.084,0,0,0-.071-.1.079.079,0,0,0-.024,0q-.088,0-.164-.288v-.031q.132,0,.132.125h.189v.062h.194a.55.55,0,0,0,.353.164v-.578h-.065l-.03.1-.258-.069v-.031l.031-.032.158.032h.031V367.9l-.063-.061h-1.277l-.031.03-.031-.03h-.03l-.069.061-.252-.061h-.547l-.158.03-.093-.03h-.1l-.029.03v-.03l-.158.03h-.258l-.156-.03-.032.03h-.031l-.037-.03h-.032v.061l.164.165-.095.094h-.037l-.031-.031-.032.031h-.063l.031-.031c-.058-.193-.155-.289-.289-.289v.061l.037.032-.037.031v.1l.194.187v.032a.377.377,0,0,0-.063.258h-.03c-.022-.172-.055-.258-.1-.258h-.032v.673l.032.031-.032.031v.384h.068Zm3.29-.517.068.069-.1.1-.03-.164Zm-.635.641-.134.064v-.064c.048,0,.071-.03.071-.094h.063Zm0-.125h-.032l-.1-.227v-.063h.071c0,.063.02.095.063.095Zm0-.447h-.032v-.131h.032Zm.032-.195h-.063l-.032-.127h.095l.061.063Zm-.29-.642h.2a.361.361,0,0,0,.282.2v.063c-.145-.074-.218-.124-.218-.157a.083.083,0,0,0-.095.068.082.082,0,0,0,0,.026.369.369,0,0,0-.226-.126Zm-.258.9.162-.03-.063.188-.1-.031Zm-.189-.516.095.037h.03l.032-.037v.07h-.158Zm-.258.931.133.031v.035l-.1.03H636.9Zm-.6-1.025h-.071v-.094l.071.063Zm-.033-.32.094-.032h.032v.063L636.3,368h-.033Zm-.129.031.059-.063h.032v.063l-.091.037Zm0,.454.129.061-.07.064h-.03l-.03-.095Zm-.034.382v.1h.063l.03-.033.032.127-.032-.031c-.1.03-.156.061-.156.095-.085-.031-.125-.061-.125-.095l.155-.063-.062-.1Zm-.414-.577.061.062v.062h.031v-.062c.089,0,.134-.022.134-.062h.03v.03l-.164.226a.268.268,0,0,1-.156-.256Zm-.227.319c.049,0,.137.063.258.189l-.031.164h-.063v-.226c-.063,0-.095-.021-.095-.064h-.068Zm-.032.447.164-.063h.031v.063l-.164.031h-.032Z" transform="translate(-530.379 -307.197)" fill="#d60812"/>
        <path id="Path_5622" data-name="Path 5622" d="M636.322,348.741l.1-.063.094.063h1.824q0-.094.062-.094v.094h.831l.069-.063v-1.535l-.069-.062h-1.153v.034l.032.029v.033h-.063l-.031-.033-.03.033v-.1h-.8v.1l.03.031h-.03l-.031.031c-.051,0-.082-.052-.094-.158h-.415l-.037.034-.031-.034h-.541c0,.154-.031.228-.095.228h-.03v-.1l.062-.065-.062-.062h-.769l-.068.062v.134h.068v.092h-.068v.989l.032.033-.032.037v.252l.068.063Zm1.473-1.119.031.037c.125,0,.187-.045.187-.134h.031v.035l-.094.194h-.188Zm-.071.194v.095h-.092Zm-.125.768h.063v.126l-.063-.063Zm-.446-.2h.062v.1l-.093.095h-.031Zm-.705-.767.1.068-.063.063h-.062Zm-.063.7h.126l-.064.062h-.063Zm-.9.13h-.063v-.066h.132Zm.258-.7h.063v.066l-.063.064Zm-.093.768h.032l.031.032-.031.094h-.032Zm-.227-1.086h.032l.031.03-.031.094-.095-.063Zm-.126.57.032-.032a.658.658,0,0,1,.29.321v.033l-.095.03h-.037v-.187l-.095-.126-.031.029h-.031l-.032-.029Z" transform="translate(-530.374 -289.86)" fill="#d60812"/>
        <path id="Path_5623" data-name="Path 5623" d="M620.542,401.1v.031l.031.031.062-.063v-.031l-.031-.031Z" transform="translate(-518.24 -334.925)" fill="#d60812"/>
        <path id="Path_5624" data-name="Path 5624" d="M624.621,397.556l.062.2.063-.063v-.163h-.093Z" transform="translate(-521.646 -331.989)" fill="#d60812"/>
        <path id="Path_5625" data-name="Path 5625" d="M943.191,346.907h-.071l-.093.061h-.032v-.03l.063-.094v-.035h-.806l-.031.033-.03-.033h-.837l-.063.064v.548h.2v.031l-.032.033v.062l.062.1v.034l-.1-.063h-.064l-.063.063v2.406l.095-.03.069.063v.062h-.163v1.768l.063.068h.064l.069-.322-.032-.037c.1-.03.156-.07.156-.125h.034v.094l-.063.1v.187l.063.1-.063.1c-.194,0-.291.02-.291.063v3.213h.063l.032-.157v-.1l.162.037v-.1l.063.064v.037c-.083,0-.19.181-.32.54v.069l.095.1h.421l.126-.031.131.031h.157c.258,0,.389-.031.389-.1h.19c0,.064.022.1.063.1h.132c.041,0,.063-.031.063-.1h.031l.133.1h.063l.064-.063v-3.606l-.156.032c-.057.173-.1.258-.133.258H943c0-.1-.031-.156-.093-.156v-.163h.156a.49.49,0,0,0,.163-.384h.094v.03l-.031.031h.064v-.289l-.127-.126v-.031l.033-.037h.03l.031.037h.032V347.1l-.093-.033c0-.108-.023-.162-.063-.162m-.713,4.565.031-.032.258.032-.095.094-.164-.031-.031.031Zm.292.806h.061v.031H942.8l-.031-.031v0l-.095-.1v-.063h.189l-.094.125v.039Zm.093.83v.1h-.031l-.063-.063v-.1h.032Zm-.127.132a.212.212,0,0,1-.126.193v-.068l.063-.157h.034Zm-.288-1.289.162-.032v.032c0,.037-.064.07-.194.1l-.063-.1v-.29h.063l-.032.162v.031Zm-.031,1.641v-.03l.031-.032.062.063Zm.093.773-.062.063h-.031l-.063-.063v-.1h.032C942.386,354.332,942.426,354.365,942.51,354.365Zm-.258-5.3.032-.037-.032-.031v-.031h.032l.069.062v.069l-.1.031Zm.07,4.082h-.193v-.069h.193Zm-.359.126h.069c0,.034-.042.065-.131.1h-.03Zm-.127-.289v-.094l.064.064v.03Zm.127-.2h-.031l-.032.032a.329.329,0,0,0-.064-.221v-.031h.1l.164.219v.1Zm.031-2.987-.094-.158V349.6h.032l.227.194Zm-.031-1.352.031-.033-.031-.03h.069l.032.03.033-.03h.03l.094.1v.031h-.092l-.164.031Zm-.156-1.54h.03v.061l-.061.07h-.07Zm-.194.383h.226v.1l-.03.032-.29-.032Zm-.029.772h.124l.07.165v.032h-.031l-.162-.063v-.037l.029-.031v-.032Zm-.1.227-.069.064-.032-.159h.1Zm.03.735v-.062h.128c.107,0,.162.033.162.1h.063l.063-.068v-.158l-.032-.031h-.032l-.033.031v-.2l.1-.029c0,.148.044.224.131.224l.063.188c-.15,0-.226.065-.226.2a.236.236,0,0,0,.226.165v.031h-.164c-.127-.259-.274-.391-.447-.391Zm.258,3.253v.031l-.07.063h-.031v-.031l.07-.062Zm-.194,2.7v-.03l.063-.064h.061v.094Zm.319.644c-.007.044-.06.089-.157.13l-.037-.1.07-.062h.125Zm-.031-1.894-.094-.069.094-.221h.031c0,.074.076.136.226.19v.031Zm.453,1.8h-.037c0-.077-.074-.142-.221-.2l.063-.062.094.062h.288l.064.063a.437.437,0,0,0-.252.135Zm.642.062h-.032v-.2l.063-.063.032.134Zm.031-.611h-.031l-.032-.03h-.03c0,.041-.056.083-.165.124l-.162-.061v-.034c.046,0,.068-.03.068-.094l.19.032c.067,0,.1-.065.1-.2a.175.175,0,0,1,.126.127c-.041,0-.06.046-.064.133Zm.125.447-.062.068v-.029l.062-.07Zm-.032-.931.1.064v.037l-.037.032-.095-.032v-.1Zm-.031-.8v.1l-.063.063h-.031c-.215-.041-.323-.085-.323-.125h.258Zm-.126-2.025h-.164v-.031l.032-.033c.066,0,.1-.019.1-.062v-.1l-.039-.031h.069Zm.289-1.8V349.8h.033l.061.063Z" transform="translate(-786.109 -289.634)" fill="#d60812"/>
        <path id="Path_5626" data-name="Path 5626" d="M960.218,357.227v.035h.064v-.1Z" transform="translate(-801.917 -298.283)" fill="#d60812"/>
        <path id="Path_5627" data-name="Path 5627" d="M959.833,347.805v-.031l-.032.031a3.226,3.226,0,0,0-2.634-1h-1.384l-.061.065v1.539l.061.071h.288l.134-.1h.061v.03l-.03.033v.037l.163.031.219-.1v.033l.033.037.327-.037c.127,0,.189.023.189.069a1.125,1.125,0,0,1,1.158,1.057v3.29a1.255,1.255,0,0,1-.964,1.283l.031.1v.03H957.3a.466.466,0,0,0-.29-.1h-1.226l-.061.069v.61l.061.062-.061.1v.806l.061.063h.744q2.257,0,2.922-.7l-.032-.1.032-.095h.063v.063h.033l.225-.188-.032-.1v-.031h.063a2.723,2.723,0,0,0,.579-1.8v-3.25a3.289,3.289,0,0,0-.579-1.837Zm-3.247.484-.031.032-.064-.063h.095Zm-.29,6.535-.031.031c-.192-.063-.288-.159-.288-.29h-.2v-.031c0-.037.064-.081.2-.131v.031l.093-.031.1.093-.064.069c0,.148.064.221.189.221Zm.32.189h-.061v-.1h.061Zm-.258-.548c.033-.084.067-.124.1-.124h.064l.03.031c.033.085.065.125.094.125v.037l-.033.031Zm.361.712-.07.064v-.1h.07Zm.156-.1h-.156v-.031h.156Zm.29-.352-.063-.124v-.065h.124l.071.158Zm1.417-5.7h-.063l-.031-.189h.126l-.063.127v.031Zm.642.1-.032.033-.063-.064h.094Zm.423,3.933h-.034v-.071h-.2v-.062h.128l.1.062Z" transform="translate(-798.161 -289.634)" fill="#d60812"/>
        <path id="Path_5628" data-name="Path 5628" d="M1037.3,402.9l-.068.064.068.063h.16l.062-.063-.062-.064Z" transform="translate(-866.238 -336.48)" fill="#d60812"/>
        <path id="Path_5629" data-name="Path 5629" d="M993.82,346.78l-.029-.033-.034.033h-1.509l-.063.063v8.905l.063.062h.515v-.094h.065v.094h1.023c.043,0,.063-.032.063-.094h.063v.094h.2l.062-.062v-3.907l-.031-.031.031-.039v-1.054l-.031-.033h.031l-.031-.093.031-.127v-3.621l-.062-.063Zm-1.25,8.678-.063.063v-.1h.063Zm0-.446h-.1v-.063h.1Zm.063.382.062-.063.069.063Zm1.282-4.8v.061h-.031l-.064-.061ZM993.593,352l.126-.064h.037l-.037.127h-.126Zm-.1,2.627h.031l.064.063h-.1Zm-.258-2.786c.131-.029.2-.085.2-.162h.031v.031l-.063.162h-.164Zm-.031,3.711h-.032l-.031-.094h.063Zm.065-.448c0,.043-.078.074-.227.1v-.029l.1-.1h.127Zm.162-.477H993.4l-.1-.1v-.033h.133Zm.126.862-.094.132v-.1l.062-.063h.032Zm.032-.031v-.033l.031-.031.061.064Zm.32-1.793-.258.094V353.7c.131,0,.2-.03.2-.093h.063Zm.063-.125h-.063l.031-.132h.063Zm.133-1.8h-.133v-.062h.133Zm.031-1.308c-.014.042-.067.084-.164.126h-.031v-.033a.111.111,0,0,0,.126-.125h.069Zm0-.868h-.1V349.5h.1Z" transform="translate(-828.614 -289.582)" fill="#d60812"/>
        <path id="Path_5630" data-name="Path 5630" d="M979.424,350.016h.031c0,.063.02.1.063.1h.064v-.1c-.064,0-.094-.021-.094-.062h-.063l-.095.125h.095Z" transform="translate(-817.877 -292.26)" fill="#d60812"/>
        <path id="Path_5631" data-name="Path 5631" d="M963.793,345.448l-.063.127v.037l.227-.164Z" transform="translate(-804.85 -288.497)" fill="#d60812"/>
        <path id="Path_5632" data-name="Path 5632" d="M1011.436,355.5h-.031l-.1.063v-.094l.1-.1c-.066-.3-.133-.446-.2-.446h-.155v-.031c0-.041.062-.083.187-.125l-.187-.993h-.065v.063h-.226V353.8l.032-.031v-.063c-.046-.089-.1-.132-.157-.132l.126-.158.158.031h.068c-.044-.47-.111-.7-.194-.7l-.2.031h-.032l.032-.132h.037l.03.037h.127l.031-.037q-.473-.987-1.025-.988v-.031c.256-.046.383-.121.383-.226l.064.063a2.085,2.085,0,0,0,1.094-2.019,2.246,2.246,0,0,0-.9-1.95h-.158q0-.446-1.924-.546h-1.73l-.063.063v1.572l.063.06h.994c.531.006.8.027.8.065q.787,0,.9.93v.262q0,1.117-1.893,1.117h-.8l-.063.063v.8l.031.031.094-.031h.031v.061c-.1,0-.156.024-.156.07v.6l.063.07h.094l.547-.037v-.094c.083,0,.125-.02.125-.063h.063v.063h-.063v.094a3.212,3.212,0,0,1,1.026.132,1.075,1.075,0,0,1,.517.642,6.708,6.708,0,0,0,.353,1.7l-.031.093q.277.768.384.768h.509c.041,0,.063-.051.063-.157h.288l.034-.031-.034-.2c0-.059.162-.123.485-.194v.163l-.131.031-.158-.031-.1.127.037.132v.1l-.164-.032h-.061l-.032.032.063.062h.546c.022-.235.065-.352.127-.352v.094l-.062.258h.507l.132-.127a1.007,1.007,0,0,0-.257-.354m-1.151-6.66h.032l-.069.063h-.031Zm-2.887,2.239h.063v.126h-.094Zm-.32.062h.031l.2.063-.1.132v.03l.031.032h-.13V351.3l.031-.031-.063-.069Zm.413.9h-.284l-.194-.1v-.03l.126-.031c0,.066.022.1.068.1h.283Zm.29.064h-.189l-.063-.064.187-.031.065.063Zm.258-.32-.061.064h-.064l-.032-.1v-.031l.157.031Zm.674-.447h-.063c0-.089-.032-.132-.1-.132h-.132l-.093.069a.258.258,0,0,1-.2.252h-.1l.063-.188V351.3l-.03-.031h.091a.861.861,0,0,1,.422-.164l.032.031h.032l.031-.031-.063-.094h.095l.031.031c0,.084.021.127.062.127Zm.288,1.057-.063.094.063.258v.095h-.063l-.1-.48H1009Zm1.6.962v-.2h.037l.03.094c0,.068-.02.1-.067.1Zm-.1-.806h.1v.062l-.1-.031Zm.034.352.062.064.164-.031h.1v.258l-.19-.124h-.03l-.037.03-.126-.094Zm-.064,1.442h.126v.069h-.126Zm-.031-.635h-.063c.008-.047.06-.09.158-.132h.029v.062Zm-.158-.322h.158v.032l-.158.031Zm-.257-.069-.064.069h-.037l.068-.069Zm.188.517-.063.063h-.064l-.061-.063V353.8Zm-.384-.738.133-.132v.069l-.1.1h-.031Zm-.094-2.787h.063l-.031.189h-.032l-.031-.095Zm-.162,3.844v-.031l.069-.063v.094Zm.037.321v.062h-.069l-.061-.062Zm-.1-3.4h.063v.258h-.063Zm-.322-.384v.061l0,0h.253l-.063.061h-.124l-.066-.061h0v0l-.063-.061Zm.322,1.409v.031l-.129.062v-.062l.032-.031Zm-.385-.517h.064l.131.069c0,.083.021.127.062.127v.064l-.319-.126Zm.195,1.479v.03l-.031.127h-.032v-.033l.032-.124Zm.062,1.345-.062.063c-.042,0-.076-.066-.1-.2h.069l.093.094Zm.1-.775c0,.088.032.132.1.132v.063h-.063l-.129-.2Zm.061,1.729-.061-.063h.032l.063.063Zm-.126-.446.064-.063h.1l.037.032a.4.4,0,0,0,.353.228v.093l-.29-.093a.365.365,0,0,0-.261-.194Zm.612.868-.164.031h-.031v-.069l.133-.062h.064Zm.094-1.377-.127.063h-.034l-.037-.132h.2Zm.162,1.087h-.131v-.031l.063-.1v-.029l-.032-.033c.041,0,.064-.042.064-.124h.037Zm-.1-1.439-.031-.037h-.228v-.033l.068-.061.094.061a.37.37,0,0,0,.227-.093h.031l.031.032c0,.043-.064.086-.194.134Zm.454.8h-.07c-.148-.088-.219-.153-.219-.2h.063c.151.078.225.13.225.164Zm.158.19-.063-.064h.126Zm.414.194h-.124v-.061h.124Z" transform="translate(-840.627 -289.748)" fill="#d60812"/>
        <path id="Path_5633" data-name="Path 5633" d="M1065.319,353.383h.037l.061-.063c.235-.058.353-.114.353-.164v-.032l.283.032q0-.22.195-.22c0-.063.021-.095.063-.095l-1.087-1.854h-.063v2.237h.031Z" transform="translate(-889.559 -293.124)" fill="#d60812"/>
        <path id="Path_5634" data-name="Path 5634" d="M1119.473,347.08h-2.082v9.02h2.063Z" transform="translate(-933.179 -289.86)" fill="#d60812"/>
        <path id="Path_5635" data-name="Path 5635" d="M1076.008,369.617h.031a.213.213,0,0,0-.127-.221h-.062a.221.221,0,0,0,.158.221" transform="translate(-898.486 -308.497)" fill="#d60812"/>
        <path id="Path_5636" data-name="Path 5636" d="M1044.662,346.973l-.063.064V352.2l.095.158-.031.094v.032l.031.037h-.095v.252l.063.069h.093l.039-.037c0,.233.04.352.125.352l-.031.131.064.064h.226v.063c.083,0,.126.019.126.063h-.258l-.158.037v-.037l-.194-.063h-.031l-.063.063V354.7h.063v-.158h.063l.07.188.157.062.032.032h-.1l-.093-.061h-.133l-.063.061v.227l.032.032c.064,0,.095.033.095.1l-.126.189v.29h.063v.156l-.063.1v.032l.063.063h.132v-.063h-.07v-.032h.194v.1h.385v-.158h.029l.2.158h.156c.041,0,.064-.031.064-.1h.193c0,.064.022.1.064.1h.226l.062-.063.1.063h.194l.063-.063v-.258h-.094c0,.086-.064.126-.2.126h-.031l.031-.094-.156-.189V355.5l.189.165h.07l.094-.1v-.031l-.031-.164c-.131-.028-.2-.061-.2-.094v-.032l.2.1c.042,0,.063.052.063.156h.063V354.6l-.094.031-.064-.062c.064,0,.117-.043.158-.132v-1.409h-.063v.126h-.163l.226-.253v-.383a.27.27,0,0,0-.226-.163c0-.043.033-.064.1-.064v-.164l-.062-.063h-.2v.2c0,.042.031.063.094.063l-.063.095a.306.306,0,0,0-.258-.158V352.2h-.189l-.031-.031.061-.1.1.063h.161c.042,0,.064-.063.064-.189.083,0,.126-.043.126-.131l.162.1h.158V347.9l-.032-.031-.288.156h-.032l.165-.125-.2-.29h.031l.032-.031h.031v.062c.111.076.165.142.165.2h.062l.063-.069v-.735l-.063-.064Zm1.8,7.082h.094l-.032.132h-.1Zm-.07-1.471.195-.032v.1h-.195Zm.164-1.127.031.163-.125.032v-.032l.062-.163Zm-.164-.767h.032l.068.2-.029.094h-.07Zm-.8-3.333h.032l.063.063v.03h-.063l-.032-.03Zm-.162,4.648h.068l.034.094v.031h-.1Zm-.19-4.937.063.064-.095.037h-.031Zm.063,4.743v.131l-.063-.063v-.067Zm-.548-3.65h.039l.061.063v.033l-.03.031-.07-.064Zm.163,3.492v.158h-.063v-.159Zm-.258.289c.173.03.258.074.258.126h-.093Zm.289.705a.259.259,0,0,0-.2-.127v-.037a.32.32,0,0,0,.2-.094h.032l.093.163-.093.1Zm.194.383h-.031l-.07-.063v-.031l.07-.163h.094l.158-.033v-.063l-.095-.093.032-.2h.063c0,.042.033.062.1.062v.032h-.07v.037l.032.157c.129.042.195.083.195.127v.037l-.128-.037h-.029l-.037.037c0,.084-.022.126-.063.126v.189h-.034L1045.3,353Zm.48.29h-.033l-.03.032h-.094l.124-.127Zm-.768.642h-.03c0-.063-.034-.1-.1-.1v-.1l.031-.032.1.032c.042,0,.063-.042.063-.127a.342.342,0,0,1,.2.156h-.1c-.1,0-.156.054-.156.165Zm.353.54-.063.069h-.1l.07-.069Zm-.094,1.314-.07-.094.132-.062.031.124Zm.063-.54h-.031v-.064h.094Zm0-1.283.063-.062h.063l-.063.063Zm.094.509c0-.042.032-.063.095-.063v-.062h.031v.031l-.031.094Zm.225,1.1h-.1l-.065-.064h.164Zm.065-.452c-.065,0-.094.021-.094.067h-.07v-.031l.164-.1Zm0-1.349h-.063c0-.082-.042-.125-.13-.125v-.031c0-.041.118-.074.352-.094a.3.3,0,0,0-.157.249Zm.289,1.605h-.164v-.031c.086,0,.133-.031.133-.094v-.064l-.069-.1v-.03c.046.008.089.063.13.162Zm.127-1.73v-.031l.094-.031v.031l.037.031Zm.162,2.113h-.1v-.062h.1Zm.19-1.919v.126c-.164,0-.249.04-.258.125h-.031v-.03c0-.084.1-.157.29-.221Zm-.158-.579v-.063l.126-.029c0,.028-.042.059-.125.092Zm-.226-.32.1.032.2-.158h.031v.062c-.152.042-.226.105-.226.19h-.1Zm.064.51v.069c-.147-.074-.219-.131-.219-.164v-.031h.092l.032.031a.084.084,0,0,0,.071.1.087.087,0,0,0,.025,0Zm-.127-.893v.125l-.319-.227v-.032h.062c.029-.1.061-.157.094-.157a.342.342,0,0,0,.163.291Zm-.29-4.68v-.031l.228-.1h.251l-.063.1v.063l.031.156h-.031l-.031-.031Zm.29,3.973-.061-.067a.485.485,0,0,0,.351-.158l.032.031c-.026.067-.131.133-.321.194Zm.322-3.717h-.064l-.067-.069h.132Z" transform="translate(-872.387 -289.771)" fill="#d60812"/>
        <path id="Path_5637" data-name="Path 5637" d="M1082.732,363l.063-.061v-.126l-.158.126.062.061Z" transform="translate(-904.154 -302.997)" fill="#d60812"/>
        <path id="Path_5638" data-name="Path 5638" d="M1067.008,369.7v-.063h.125v-.225l-.061-.189-.033.032c-.1,0-.167-.1-.188-.289h-.037l-.033.031h-.124v-.158l-.194.094v.034l.037.031v.064h-.131V369h-.419l-.093.093v.063l.156.031h.166c0,.051.041.115.124.2v.063l-.063.064h-.034c0-.127-.042-.2-.129-.221l-.095.031c0-.041-.1-.106-.29-.194h-.063a.324.324,0,0,1-.221.062.263.263,0,0,0-.258.2v4.863l.031.031.125-.031.131.031h1.724l.032-.031-.064-4.542Zm-1.442.99-.031.037v.031l.031.031h-.031l-.063-.063v-.069h.093Zm.032-.8a.4.4,0,0,0-.126-.253h.258c0,.043.031.063.094.063v.064c-.05,0-.115.042-.2.127Zm.321.195h-.127v-.031l.031-.031.095.031Zm.125-.063v-.163c.214-.007.321-.06.321-.158h.061v.064c-.061,0-.093.042-.093.127a.357.357,0,0,0-.257.131Zm.321.188-.063.064h-.124c0-.042.061-.074.187-.094Zm.258-.188h-.2v-.062h.2Zm-.033-.609h-.03v-.1l.03-.163.094.069c0,.106-.03.168-.094.188Zm.384.577-.062-.068v-.031h.062l.032.1Z" transform="translate(-889.549 -308.031)" fill="#d60812"/>
        <path id="Path_5639" data-name="Path 5639" d="M1080.286,367.137v.1l.03.032h-.03l-.1-.064c.012-.084.041-.127.1-.127a.6.6,0,0,0-.227-.384h-.034v.064l-.095-.03c-.191.041-.287.115-.287.218h-.031l-.094-.061-.2.124h-.19l-.162-.031-.031.133-.158-.033h-.162v-.069h-.253a1.245,1.245,0,0,0,.221.454l.032-.033h.069v.033h-.069a12.3,12.3,0,0,0,.835,1.4q2.057,3.5,2.208,3.616h.957l.062-.063.2.063h.636v-.063l-3.133-5.277Zm-.8.189h-.095v-.062h.095Zm.354.29-.065.063v-.1h.065Zm0-.064h-.033l-.132-.032v-.031l.1-.03.065.061Zm2.9,4.478.037-.031.064.064h-.1Zm-2.493-4.22h-.13v-.039h.13Zm1.309,4.378.162.033v.029h-.162l-.062-.062Zm-.863-3.931.033-.093h.062v.062l-.062.063h-.033Zm.033.352h.03v.064h-.093Zm-.29.832h-.032v-.063h.1Zm.031-1.825-.094.156h-.093c.048-.1.1-.156.156-.156Z" transform="translate(-900.588 -306.237)" fill="#d60812"/>
        <path id="Path_5640" data-name="Path 5640" d="M1098.3,347.08l-.227.033-.125-.033h-.288l-.032.033-.033-.033h-.193l-.03.033.03.86v1.255a.458.458,0,0,0,.353.189l-.064.093v.165l-.256.063v.289l.063.063-.063.095v.9l.031.954a6.742,6.742,0,0,0,.9,1.637l.032-.037.063.069h-.063l.955,1.692h.072V349.93c0-.046-.047-.069-.133-.069v-.029c.086,0,.133-.022.133-.065V347.5c0-.042-.056-.061-.166-.061v-.067h.166v-.226l-.072-.062Zm-.517,3.517-.156-.032v-.031l.032-.03.124.03Zm.2-2.4-.032-.094v-.034l.125.034Zm.158,2.24h-.032v-.064h.095Zm.063-2.915.029-.031.07.064h-.1Zm.029.417h.165V348h-.165Zm.229,1.089-.063-.063.063-.064Zm.258-1.663-.064.067v-.126h.064Zm.031.543v-.03l.125-.064h.064l-.126.095Zm.251,4.83h-.034l-.06-.063H1099Zm.037-4.063h-.071v-.031H1099l.195.094v.037h-.094c-.041,0-.062-.031-.062-.1Zm.22.868h-.03l-.158-.037v-.03h.032l.156.031Z" transform="translate(-916.462 -289.86)" fill="#d60812"/>
        <path id="Path_5641" data-name="Path 5641" d="M1067.569,350.375l.258-.064v.034l.383-.1h.188v-.062h.227v-.063h.354l.062-.063a.288.288,0,0,0-.255-.319l-.034,0,.031-.032q0-.083-.126-.094l.063-.1v-.063a3.15,3.15,0,0,0-.578-.8h.068a13.342,13.342,0,0,0-.93-1.567h-1.919a18.856,18.856,0,0,0,1.057,1.793q.341.673.477.673c0,.126.031.189.1.189h.132v-.063h.094v.063l.158.03a.346.346,0,0,0,.289.164v.066l-.157.031-.063-.064-.133.064c-.125,0-.188-.031-.188-.095h-.063v.031l.25.448h.032c.045,0,.069-.032.069-.1h.094Zm-.863-2.787-.067-.063v-.031l.067.063Zm1.183,1.472.032-.03.095.095v.037l-.064.064-.063-.064Zm-.13.7c0-.052.042-.085.13-.093v-.258h.063c0,.071.1.135.291.195h.351v.031c-.088.008-.132.04-.132.095v.03l.031.033-.187.131h-.063l-.164-.037v.1c-.083,0-.128-.064-.128-.195h-.193Z" transform="translate(-889.727 -289.858)" fill="#d60812"/>
        <path id="Path_5642" data-name="Path 5642" d="M1097.719,360.959l.063-.063v-.069a.347.347,0,0,0-.2-.157v.031l-.031.033v.162l.063.063Z" transform="translate(-916.614 -301.209)" fill="#d60812"/>
        <path id="Path_5643" data-name="Path 5643" d="M1137.395,356.1v-.031l-4.283-4.894,4.1-4.061v-.035h-2.622l-2.851,3.039v2.24l3.2,3.742Z" transform="translate(-945.158 -289.86)" fill="#d60812"/>
        <path id="Path_5644" data-name="Path 5644" d="M1072.5,364.558l.095-.063-.095-.127h-.07l-.093.1.093.094Z" transform="translate(-895.553 -304.299)" fill="#d60812"/>
        <path id="Path_5645" data-name="Path 5645" d="M1065.326,365.648l.226-.127h.094l.164.033.093-.1c.107,0,.158-.022.158-.069h.353a.884.884,0,0,1,.415-.094v-.03a.386.386,0,0,0-.188-.322h-.1c0,.041-.053.084-.162.13h-.063v-.03l.063-.1-.063-.063h-.031l-.093.063h-.2c0,.066-.022.1-.063.1l.063-.164c-.009-.042-.062-.083-.158-.125l-.032.031h-.031l.063.158v.031h-.2l.031.163c-.148.02-.221.054-.221.1l-.225-.031v-.032l.031-.032-.063-.064h-.031v.159l.031.033-.031.03v.29l.063.063Z" transform="translate(-889.566 -304.62)" fill="#d60812"/>
        <path id="Path_5646" data-name="Path 5646" d="M269.77,75.813a6.174,6.174,0,0,1,.933-.063,1.968,1.968,0,0,1,1.249.327,1.349,1.349,0,0,1,.517,1.151,1.55,1.55,0,0,1-.508,1.235,2.19,2.19,0,0,1-1.407.393,6.122,6.122,0,0,1-.783-.044Zm.693,2.49a1.242,1.242,0,0,0,.24.014.946.946,0,0,0,1.033-1.07.875.875,0,0,0-.959-.969,1.514,1.514,0,0,0-.312.027Z" transform="translate(-225.296 -63.256)" fill="#061d5c"/>
        <path id="Path_5647" data-name="Path 5647" d="M288.029,78.185l-.217.782H287.1l.933-3.05h.9l.946,3.05h-.742l-.236-.782Zm.775-.517-.19-.647c-.055-.182-.108-.408-.153-.587h-.01c-.045.18-.089.411-.139.587l-.182.647Z" transform="translate(-239.766 -63.401)" fill="#061d5c"/>
        <path id="Path_5648" data-name="Path 5648" d="M306.444,75.81a6.21,6.21,0,0,1,.919-.063,1.561,1.561,0,0,1,.987.24.774.774,0,0,1,.28.639.812.812,0,0,1-.538.75v.013a.775.775,0,0,1,.406.573,8.548,8.548,0,0,0,.248.857h-.707a3.953,3.953,0,0,1-.213-.707c-.081-.382-.212-.487-.492-.49h-.209v1.2h-.684Zm.684,1.312h.271c.344,0,.547-.171.547-.438s-.19-.42-.507-.425a1.628,1.628,0,0,0-.311.024Z" transform="translate(-255.922 -63.253)" fill="#061d5c"/>
        <rect id="Rectangle_68" data-name="Rectangle 68" width="0.692" height="3.049" transform="translate(53.207 12.516)" fill="#061d5c"/>
        <path id="Path_5649" data-name="Path 5649" d="M331.233,75.917v1.756c0,.526.2.792.553.792s.56-.254.56-.792V75.917h.688v1.71c0,.942-.475,1.39-1.27,1.39-.77,0-1.223-.424-1.223-1.4v-1.7Z" transform="translate(-276.049 -63.401)" fill="#061d5c"/>
        <path id="Path_5650" data-name="Path 5650" d="M348.725,78.008a1.779,1.779,0,0,0,.765.189c.317,0,.484-.132.484-.332s-.145-.3-.51-.428c-.508-.176-.838-.457-.838-.9,0-.522.435-.92,1.154-.92a1.86,1.86,0,0,1,.779.155l-.154.556a1.467,1.467,0,0,0-.638-.144c-.3,0-.443.134-.443.293,0,.2.171.283.565.431.539.2.792.48.792.908,0,.512-.394.952-1.231.952a1.977,1.977,0,0,1-.865-.191Z" transform="translate(-291.117 -63.15)" fill="#061d5c"/>
        <path id="Path_5651" data-name="Path 5651" d="M362.945,78.6l1.453-2.09v-.018h-1.318v-.571h2.214v.4l-1.42,2.062V78.4h1.443v.569h-2.372Z" transform="translate(-303.11 -63.401)" fill="#061d5c"/>
        <path id="Path_5652" data-name="Path 5652" d="M387.751,77.8c-.013-.365-.027-.808-.027-1.252h-.013c-.095.388-.221.825-.341,1.181L387,78.923h-.538l-.327-1.176c-.1-.362-.2-.8-.276-1.195h-.009c-.018.411-.032.882-.053,1.261l-.055,1.159h-.639l.195-3.05h.919l.3,1.019c.1.35.19.734.258,1.091h.015c.086-.353.19-.757.29-1.094l.324-1.016h.9l.167,3.05H387.8Z" transform="translate(-321.617 -63.406)" fill="#061d5c"/>
        <rect id="Rectangle_69" data-name="Rectangle 69" width="0.692" height="3.049" transform="translate(67.386 12.516)" fill="#061d5c"/>
        <path id="Path_5653" data-name="Path 5653" d="M418.091,78.612a1.935,1.935,0,0,1-.783.136,1.455,1.455,0,0,1-1.6-1.53,1.556,1.556,0,0,1,1.666-1.62,1.8,1.8,0,0,1,.751.135l-.14.549a1.467,1.467,0,0,0-.579-.113,1.011,1.011,0,0,0-.154,2,.906.906,0,0,0,.158,0,1.7,1.7,0,0,0,.574-.1Z" transform="translate(-347.175 -63.132)" fill="#061d5c"/>
        <path id="Path_5654" data-name="Path 5654" d="M433.607,75.917V77.09h1.136V75.917h.688v3.049h-.688V77.69h-1.136v1.276h-.692V75.917Z" transform="translate(-361.545 -63.401)" fill="#061d5c"/>
        <path id="Path_5655" data-name="Path 5655" d="M451.418,78.185l-.218.782h-.715l.932-3.05h.9l.946,3.05h-.742l-.236-.782Zm.775-.517L452,77.021c-.053-.182-.106-.408-.153-.587h-.01c-.045.18-.09.411-.139.587l-.182.647Z" transform="translate(-376.218 -63.401)" fill="#061d5c"/>
        <path id="Path_5656" data-name="Path 5656" d="M469.842,75.917h.693v2.472h1.214v.579h-1.906Z" transform="translate(-392.384 -63.401)" fill="#061d5c"/>
        <path id="Path_5657" data-name="Path 5657" d="M484.352,78.612a1.926,1.926,0,0,1-.783.137,1.455,1.455,0,0,1-1.6-1.53,1.556,1.556,0,0,1,1.667-1.62,1.8,1.8,0,0,1,.749.135l-.139.549a1.475,1.475,0,0,0-.579-.113,1,1,0,1,0,0,2,1.715,1.715,0,0,0,.574-.1Z" transform="translate(-402.513 -63.131)" fill="#061d5c"/>
        <path id="Path_5658" data-name="Path 5658" d="M497.982,78.6l1.454-2.09v-.018h-1.318v-.571h2.214v.4l-1.42,2.062V78.4h1.443v.569h-2.372Z" transform="translate(-415.885 -63.401)" fill="#061d5c"/>
        <path id="Path_5659" data-name="Path 5659" d="M516.843,77.678h-1.122V78.4h1.255v.564h-1.945v-3.05h1.882v.567h-1.19v.633h1.123Z" transform="translate(-430.123 -63.4)" fill="#061d5c"/>
        <path id="Path_5660" data-name="Path 5660" d="M529.2,78.964l-.723-3.049h.738l.23,1.255c.068.365.132.758.182,1.066h.008c.05-.329.123-.7.2-1.073l.258-1.248h.734l.243,1.286c.068.358.118.683.163,1.023h.009c.045-.34.111-.7.176-1.06l.249-1.248h.7l-.789,3.05h-.746l-.258-1.312c-.059-.307-.108-.59-.145-.939h-.008c-.056.343-.1.632-.178.939l-.292,1.313Z" transform="translate(-441.356 -63.398)" fill="#061d5c"/>
        <path id="Path_5661" data-name="Path 5661" d="M553.459,78.009a1.783,1.783,0,0,0,.765.189c.317,0,.484-.132.484-.332s-.144-.3-.511-.428c-.507-.176-.837-.457-.837-.9,0-.522.435-.92,1.155-.92a1.861,1.861,0,0,1,.779.155l-.154.556a1.46,1.46,0,0,0-.639-.144c-.3,0-.443.134-.443.293,0,.2.172.283.565.431.538.2.792.48.792.908,0,.512-.393.952-1.231.952a1.987,1.987,0,0,1-.865-.191Z" transform="translate(-462.098 -63.15)" fill="#061d5c"/>
        <path id="Path_5662" data-name="Path 5662" d="M568.871,75.917h.683v1.349h.013c.068-.118.141-.227.208-.334l.693-1.016h.846l-1.008,1.3,1.062,1.75h-.805l-.745-1.315-.263.32v1h-.683Z" transform="translate(-475.087 -63.401)" fill="#061d5c"/>
        <rect id="Rectangle_70" data-name="Rectangle 70" width="0.693" height="3.049" transform="translate(96.562 12.516)" fill="#061d5c"/>
        <path id="Path_5663" data-name="Path 5663" d="M794.981,139.359h-9.5V131.3h8.213v-6.064h-8.214v-6.994h9.5v4.731h6.786V112.052l-28.758.048v6.139h3.583v18.983c0,4.491,3.734,7.018,5.959,8.124l.095.048h19.139V134.312h-6.8Z" transform="translate(-645.571 -93.579)" fill="#061d5c"/>
        <path id="Path_5664" data-name="Path 5664" d="M600.028,125.07H584.887l0,5.9H591.1c-.06,2.591-.506,4.83-2.052,6.342a7.328,7.328,0,0,1-5.245,2.012c-4.825,0-8.735-3.045-8.735-11.172,0-6.879,5.4-10.237,10.62-10.237,1.986,0,9.255-.048,9.255-.048h.433v-6.213h-.433s-7.86-.044-11.589-.028c-10.445.056-17.638,7.022-17.638,16.937,0,9.447,5.572,17.261,17.6,17.261,5.4,0,9.627-1.4,12.792-4.654,2.778-2.848,4.214-7.678,3.946-15.719Z" transform="translate(-472.456 -93.219)" fill="#061d5c"/>
        <path id="Path_5665" data-name="Path 5665" d="M475.987,118.3h3.639v-5.926H463.383V118.3h3.592V139.63H463.4v6.089h16.228v-6.091h-3.639Z" transform="translate(-386.99 -93.847)" fill="#061d5c"/>
        <path id="Path_5666" data-name="Path 5666" d="M271.115,122.307l.084.111a8.164,8.164,0,0,0,5.732,3.131l.428,0,0-7.577h3.918v21.386h-4.65v6.082h18.24v-6.083h-4.652V118.014h3.967v7.129l.04.416h.433a8.607,8.607,0,0,0,5.88-3.133l.084-.111V112.037H271.108Z" transform="translate(-226.413 -93.566)" fill="#061d5c"/>
        <path id="Path_5667" data-name="Path 5667" d="M987.647,145.528l10.348.022-.02-6.151-4.046.052-6.115-9.022a9.378,9.378,0,0,0,6.6-9c.009-6.041-3.963-9.238-11.485-9.252l-18.021-.027-.007,5.926,3.583,0-.031,21.341-3.605-.005-.011,6.083,16.2.021.013-6.081-3.588,0,.012-8.64-.008-1.5v-.314ZM977.5,118.093l2.9,0a5.2,5.2,0,0,1,3.715,1.142,3.228,3.228,0,0,1,.9,2.442c-.022,3.338-1.633,5.052-4.79,5.1l-2.76.045Z" transform="translate(-805.771 -93.657)" fill="#061d5c"/>
      </g>
    </g>
  </g>
</svg>
