<svg xmlns="http://www.w3.org/2000/svg" xmlns:xlink="http://www.w3.org/1999/xlink" width="117.511" height="69.403" viewBox="0 0 117.511 69.403">
  <defs>
    <clipPath id="clip-path">
      <rect id="Rectangle_3" data-name="Rectangle 3" width="117.511" height="69.403" fill="#fff"/>
    </clipPath>
  </defs>
  <g id="Group_4" data-name="Group 4" clip-path="url(#clip-path)">
    <path id="Path_22" data-name="Path 22" d="M79.193,0c1.45,1.346,3.676,3.406,5.579,5.147l.113.1h27.171V60.9l-3.02-1.3L98.818,55.184q-.7-.3-1.406-.595h0A100.436,100.436,0,0,0,58.755,46.9q-.78,0-1.558.012-5.023.075-9.972.64a100.208,100.208,0,0,0-21.9,5.033q-3.348,1.177-6.634,2.6L5.455,60.9V5.251H88.476L89.884,0H0V69.4l12.036-5.2L15.991,62.5l5.18-2.236c2.887-1.247,5.655-2.259,8.619-3.21q1.842-.588,3.7-1.1A95.432,95.432,0,0,1,96.655,60.4l10.52,4.543L117.511,69.4V0Z" fill="#fff"/>
    <path id="Path_23" data-name="Path 23" d="M138.654,128.558a2.641,2.641,0,0,0-.662-.767,1.508,1.508,0,0,0-.887-.327h-6.244a1.166,1.166,0,0,0-.756.375,3.087,3.087,0,0,0-.568.752,5.357,5.357,0,0,0-.414.923,3.012,3.012,0,0,0-.18.945v38.17a2.73,2.73,0,0,0,.168.924,3.307,3.307,0,0,0,.413.8,2.041,2.041,0,0,0,.606.6,1.123,1.123,0,0,0,.554.168.824.824,0,0,0,.307-.059l4.691-1.72.079-.11c.223-.309.422-.621.6-.913l.048-.077c.075-.121.148-.239.224-.348.538.123,1.112.25,1.745.386l.531.114.169-24.185-.512.077-2.574.39-1.491.226-.052.317c-.332,2.006-.667,4.059-1,6.11l.042-16.037a.644.644,0,0,1,.233-.5l.018-.015a1.064,1.064,0,0,1,.357-.231c.093,0,.285.161.348.214a.717.717,0,0,1,.216.566l-.025,6.023.794-1.006c1.209-1.532,2.438-3.041,3.652-4.486l.1-.122.035-5.04a4.41,4.41,0,0,0-.153-1.127,4.01,4.01,0,0,0-.421-1.007m-4.234,23.674-.016,9.893a.262.262,0,0,1-.044.121,1.629,1.629,0,0,1-.2.271,1.779,1.779,0,0,1-.233.221.952.952,0,0,1-.091.063.292.292,0,0,1-.063.006,1.3,1.3,0,0,1-.3-.054.2.2,0,0,1-.051-.168v-.01l.027-10.142Z" transform="translate(-118.893 -117.53)" fill="#fff"/>
    <path id="Path_24" data-name="Path 24" d="M287.634,127.463h-6.159a1.3,1.3,0,0,0-.784.312,3.484,3.484,0,0,0-.59.623,3.824,3.824,0,0,0-.453.817,2.5,2.5,0,0,0-.2.911l-.314,34.592v.012a2.339,2.339,0,0,0,.182.847,2.827,2.827,0,0,0,.446.706,1.838,1.838,0,0,0,.662.5,1.325,1.325,0,0,0,.5.112.931.931,0,0,0,.307-.051c1.988-.638,4.021-1.231,6.036-1.76a2.534,2.534,0,0,0,1.51-1.3,4.293,4.293,0,0,0,.606-2.105l.41-31.237a3.538,3.538,0,0,0-.578-2,1.942,1.942,0,0,0-1.584-.975m-2.724,30.92a.98.98,0,0,1-.27.651,1.257,1.257,0,0,1-.454.37.142.142,0,0,1-.029,0,.575.575,0,0,1-.093-.009.341.341,0,0,1-.146-.064.99.99,0,0,1-.185-.175.167.167,0,0,1-.013-.085L284,134.612v-.017a.315.315,0,0,1,.043-.14,1.975,1.975,0,0,1,.225-.272.756.756,0,0,1,.215-.154.544.544,0,0,1,.141-.049h0a.828.828,0,0,1,.37.209.608.608,0,0,1,.206.492Z" transform="translate(-257.382 -117.53)" fill="#fff"/>
    <path id="Path_25" data-name="Path 25" d="M568.33,162.292l.5-.061c1.219-.149,2.456-.281,3.676-.391l.4-.036s.051-10.57.075-15.655c1.33-.061,2.675-.111,4-.148l.427-.012.028-5.626-.453.009c-1.312.027-2.642.063-3.96.107l.061-7.381c1.746-.022,3.515-.038,5.265-.048l.438,0,.022-5.584h-10.12Z" transform="translate(-524.039 -117.53)" fill="#fff"/>
    <path id="Path_26" data-name="Path 26" d="M734.229,128.35a2,2,0,0,0-1.585-.887h-6.157a1.4,1.4,0,0,0-.735.247,2.624,2.624,0,0,0-.618.555,3.281,3.281,0,0,0-.456.708,1.925,1.925,0,0,0-.2.815l-.046,29.284a1.876,1.876,0,0,0,.2.816,3.221,3.221,0,0,0,.468.7,2.919,2.919,0,0,0,.619.54,1.434,1.434,0,0,0,.765.25h.03c2.085,0,4.2.057,6.279.168l.086,0a1.963,1.963,0,0,0,1.541-.81,3.021,3.021,0,0,0,.621-1.843l-.19-28.666a3.123,3.123,0,0,0-.626-1.884M730.2,155.378a.9.9,0,0,1-.43.2.578.578,0,0,1-.17-.045.744.744,0,0,1-.22-.13,1.611,1.611,0,0,1-.221-.224.1.1,0,0,1-.024-.073l-.039-21.354a.1.1,0,0,1,.022-.071,1.516,1.516,0,0,1,.213-.216.67.67,0,0,1,.206-.12.544.544,0,0,1,.157-.039h0a.91.91,0,0,1,.42.216.51.51,0,0,1,.2.409L730.392,155a.46.46,0,0,1-.194.381" transform="translate(-667.976 -117.529)" fill="#fff"/>
    <path id="Path_27" data-name="Path 27" d="M889.662,148.266a1.4,1.4,0,0,0,.619-1.243l-.227-17.837a1.71,1.71,0,0,0-.54-1.2,1.608,1.608,0,0,0-1.026-.521h-8.315l.292,34.381.4.038c1.186.113,2.386.245,3.568.393l.5.063-.134-12.654q.757,6.257,1.512,12.515l.041.335.334.049c1.2.177,2.422.376,3.62.59l.586.1-.069-.591c-.52-4.436-1.066-9.071-1.667-14.159a2.94,2.94,0,0,0,.509-.26m-4.251-6.518a.278.278,0,0,1-.042.061l-.681-.038-.084-7.918.692.015a1.011,1.011,0,0,1,.086.086.29.29,0,0,1,.074.174l.083,7.239a.851.851,0,0,1-.127.382" transform="translate(-811.579 -117.53)" fill="#fff"/>
    <path id="Path_28" data-name="Path 28" d="M1168.374,166.31c1.15.351,2.31.725,3.448,1.111l.589.2-.359-40.157h-4.418l.43,38.752Z" transform="translate(-1076.638 -117.53)" fill="#fff"/>
    <path id="Path_29" data-name="Path 29" d="M1249.466,134.189l.162,35.035,4.312,1.581-.072-36.391,2.813.144v-7.094h-10.1l.045,6.581Z" transform="translate(-1149.432 -117.53)" fill="#fff"/>
  </g>
</svg>
