<svg xmlns="http://www.w3.org/2000/svg" width="840.045" height="678.751" viewBox="0 0 840.045 678.751">
  <g id="Group_249" data-name="Group 249" transform="matrix(-0.174, 0.985, -0.985, -0.174, 2281.119, -623.636)">
    <path id="Path_5534" data-name="Path 5534" d="M0,91.021,91.025,66.632,24.389,0Z" transform="translate(1048.025 1940.513) rotate(-103)" fill="#9a3cbc"/>
    <path id="Path_5535" data-name="Path 5535" d="M0,65.045,65.048,47.616,17.429,0Z" transform="translate(1404.771 1890.575) rotate(-20)" fill="#9a3cbc"/>
    <path id="Path_5536" data-name="Path 5536" d="M0,170.983l170.991-45.815L45.816,0Z" transform="translate(1342.923 1256.661) rotate(-20)" fill="#ec008c"/>
    <path id="Path_5537" data-name="Path 5537" d="M0,39.5,39.5,28.916,10.584,0Z" transform="translate(1307.2 1315.438) rotate(26)" fill="#fff"/>
    <path id="Path_5538" data-name="Path 5538" d="M80.746,110.3,110.3,0,0,29.555Z" transform="matrix(0.208, -0.978, 0.978, 0.208, 947.63, 1782.899)" fill="#99e21b"/>
    <path id="Path_5539" data-name="Path 5539" d="M0,99.117,99.121,72.559,26.559,0Z" transform="translate(966.415 1524.856) rotate(-98)" fill="#fff"/>
    <path id="Path_5540" data-name="Path 5540" d="M0,168.369l168.376-45.114L45.115,0Z" transform="translate(1000.989 1760.038) rotate(-98)" fill="#ec008c"/>
    <path id="Path_5541" data-name="Path 5541" d="M0,114.416,114.421,83.758,30.658,0Z" transform="matrix(0.208, -0.978, 0.978, 0.208, 1462.972, 2014.825)" fill="#ec008c"/>
  </g>
</svg>
